%TF.GenerationSoftware,KiCad,Pcbnew,(6.0.0-0)*%
%TF.CreationDate,2022-12-06T19:34:54+01:00*%
%TF.ProjectId,esp32-led,65737033-322d-46c6-9564-2e6b69636164,rev?*%
%TF.SameCoordinates,Original*%
%TF.FileFunction,Copper,L3,Inr*%
%TF.FilePolarity,Positive*%
%FSLAX46Y46*%
G04 Gerber Fmt 4.6, Leading zero omitted, Abs format (unit mm)*
G04 Created by KiCad (PCBNEW (6.0.0-0)) date 2022-12-06 19:34:54*
%MOMM*%
%LPD*%
G01*
G04 APERTURE LIST*
%TA.AperFunction,ComponentPad*%
%ADD10R,2.600000X2.600000*%
%TD*%
%TA.AperFunction,ComponentPad*%
%ADD11C,2.600000*%
%TD*%
%TA.AperFunction,ComponentPad*%
%ADD12C,0.600000*%
%TD*%
%TA.AperFunction,ComponentPad*%
%ADD13C,4.400000*%
%TD*%
%TA.AperFunction,ComponentPad*%
%ADD14O,1.300000X2.300000*%
%TD*%
%TA.AperFunction,ComponentPad*%
%ADD15O,1.300000X2.600000*%
%TD*%
%TA.AperFunction,ViaPad*%
%ADD16C,0.600000*%
%TD*%
%TA.AperFunction,ViaPad*%
%ADD17C,0.685800*%
%TD*%
%TA.AperFunction,ViaPad*%
%ADD18C,0.889000*%
%TD*%
G04 APERTURE END LIST*
D10*
%TO.N,+5V*%
%TO.C,J2*%
X10795000Y25360000D03*
D11*
%TO.N,GPIO26*%
X10795000Y20280000D03*
%TO.N,GND*%
X10795000Y15200000D03*
%TO.N,+5V*%
X10795000Y10120000D03*
%TO.N,GND*%
X10795000Y5040000D03*
%TD*%
D12*
%TO.N,GND*%
%TO.C,U1*%
X34730000Y13650000D03*
X33980000Y12900000D03*
X33230000Y13650000D03*
X33230000Y12150000D03*
X34730000Y12150000D03*
%TD*%
D13*
%TO.N,GND*%
%TO.C,H1*%
X18300000Y31700000D03*
%TD*%
D14*
%TO.N,GND*%
%TO.C,J1*%
X35620000Y6575000D03*
D15*
X35620000Y2750000D03*
X26980000Y2750000D03*
D14*
X26980000Y6575000D03*
%TD*%
D12*
%TO.N,GND*%
%TO.C,IC1*%
X21925000Y18450000D03*
X20925000Y20450000D03*
X21925000Y19450000D03*
X22925000Y19450000D03*
X21925000Y20450000D03*
X22925000Y20450000D03*
X20925000Y19450000D03*
X20925000Y18450000D03*
X22925000Y18450000D03*
%TD*%
D13*
%TO.N,GND*%
%TO.C,H2*%
X26300000Y31700000D03*
%TD*%
D16*
%TO.N,GND*%
X37400000Y2100000D03*
X19450000Y14800000D03*
X23650000Y3900000D03*
X19450000Y13900000D03*
X37400000Y6750000D03*
X29400000Y13200000D03*
X23650000Y2800000D03*
D17*
X26390000Y27100000D03*
D16*
X29400000Y14000000D03*
X17200000Y4950000D03*
X26250000Y12650000D03*
D17*
X26390000Y25100000D03*
D16*
X37080000Y9800000D03*
%TO.N,EN*%
X18700000Y4650000D03*
X18700000Y24100000D03*
%TO.N,+3V3*%
X25550000Y20325000D03*
X26800000Y15400000D03*
X23050000Y24100000D03*
X37180000Y14950000D03*
X25700000Y15400000D03*
X22250000Y24100000D03*
X24400000Y15850000D03*
X37980000Y11680000D03*
X27900000Y15400000D03*
X17900000Y19000000D03*
X25550000Y21400000D03*
X33200000Y23200000D03*
X25560000Y19275000D03*
X35280000Y8900000D03*
%TO.N,SCL*%
X33250000Y19200000D03*
X21700000Y14950000D03*
%TO.N,SDA*%
X22700000Y14950000D03*
X33200000Y21200000D03*
D18*
%TO.N,+5V*%
X19225000Y7275000D03*
X19225000Y6200000D03*
%TO.N,/5V to 3.3V Power/VBUS*%
X24350000Y7250000D03*
X24350000Y6175000D03*
X33650000Y8000000D03*
X25800000Y8200000D03*
D16*
%TO.N,/USB to UART /RTS*%
X19600000Y4650000D03*
X30975000Y15225000D03*
%TO.N,/USB to UART /DTR*%
X31000000Y12600000D03*
X21000000Y1950000D03*
%TD*%
%TA.AperFunction,Conductor*%
%TO.N,/5V to 3.3V Power/VBUS*%
G36*
X33915931Y8579998D02*
G01*
X33936905Y8563095D01*
X34500000Y8000000D01*
X34966538Y8000000D01*
X35034659Y7979998D01*
X35081152Y7926342D01*
X35091256Y7856068D01*
X35061762Y7791488D01*
X35040603Y7772067D01*
X35011438Y7750877D01*
X34884214Y7609580D01*
X34789147Y7444920D01*
X34730392Y7264092D01*
X34729702Y7257531D01*
X34729702Y7257529D01*
X34726738Y7229328D01*
X34715500Y7122401D01*
X34715500Y6510882D01*
X34695498Y6442761D01*
X34641842Y6396268D01*
X34571568Y6386164D01*
X34554347Y6389885D01*
X34547693Y6391818D01*
X34506765Y6403709D01*
X34495993Y6404500D01*
X34136943Y6404500D01*
X34132697Y6403918D01*
X34132691Y6403918D01*
X34053946Y6393131D01*
X34024482Y6389095D01*
X34016598Y6385683D01*
X34016597Y6385683D01*
X33892936Y6332169D01*
X33885054Y6328758D01*
X33878381Y6323354D01*
X33773661Y6238555D01*
X33773659Y6238553D01*
X33766987Y6233150D01*
X33762013Y6226151D01*
X33762012Y6226150D01*
X33750373Y6209772D01*
X33678980Y6109313D01*
X33627518Y5966371D01*
X33616391Y5814855D01*
X33646420Y5665929D01*
X33650320Y5658275D01*
X33711492Y5538217D01*
X33711494Y5538214D01*
X33715392Y5530564D01*
X33721205Y5524243D01*
X33721206Y5524241D01*
X33778910Y5461489D01*
X33818226Y5418734D01*
X33825521Y5414211D01*
X33825522Y5414210D01*
X33940044Y5343203D01*
X33947344Y5338677D01*
X34093235Y5296291D01*
X34104007Y5295500D01*
X34463057Y5295500D01*
X34467303Y5296082D01*
X34467309Y5296082D01*
X34546054Y5306869D01*
X34575518Y5310905D01*
X34634158Y5336281D01*
X34707064Y5367831D01*
X34707065Y5367831D01*
X34714946Y5371242D01*
X34808011Y5446604D01*
X34873539Y5473929D01*
X34943437Y5461489D01*
X34980939Y5432995D01*
X35011438Y5399123D01*
X35042375Y5376646D01*
X35150440Y5298132D01*
X35165259Y5287365D01*
X35171287Y5284681D01*
X35171289Y5284680D01*
X35332924Y5212716D01*
X35338955Y5210031D01*
X35431944Y5190266D01*
X35518476Y5171872D01*
X35518480Y5171872D01*
X35524933Y5170500D01*
X35715067Y5170500D01*
X35721520Y5171872D01*
X35721524Y5171872D01*
X35808056Y5190266D01*
X35901045Y5210031D01*
X35907076Y5212716D01*
X36068711Y5284680D01*
X36068713Y5284681D01*
X36074741Y5287365D01*
X36089561Y5298132D01*
X36197625Y5376646D01*
X36228562Y5399123D01*
X36251909Y5425052D01*
X36351367Y5535512D01*
X36351368Y5535513D01*
X36355786Y5540420D01*
X36450853Y5705080D01*
X36509608Y5885908D01*
X36524500Y6027599D01*
X36524500Y6750000D01*
X36840715Y6750000D01*
X36859772Y6605246D01*
X36915645Y6470358D01*
X36920672Y6463807D01*
X36977106Y6390261D01*
X37004526Y6354526D01*
X37011076Y6349500D01*
X37011079Y6349497D01*
X37099999Y6281266D01*
X37120357Y6265645D01*
X37255246Y6209772D01*
X37400000Y6190715D01*
X37408188Y6191793D01*
X37536566Y6208694D01*
X37544754Y6209772D01*
X37679643Y6265645D01*
X37700001Y6281266D01*
X37788921Y6349497D01*
X37788924Y6349500D01*
X37795474Y6354526D01*
X37822895Y6390261D01*
X37879328Y6463807D01*
X37884355Y6470358D01*
X37940228Y6605246D01*
X37959285Y6750000D01*
X37940228Y6894754D01*
X37884355Y7029642D01*
X37813179Y7122401D01*
X37800501Y7138923D01*
X37800500Y7138924D01*
X37795474Y7145474D01*
X37788924Y7150500D01*
X37788921Y7150503D01*
X37686196Y7229327D01*
X37686194Y7229328D01*
X37679643Y7234355D01*
X37544754Y7290228D01*
X37400000Y7309285D01*
X37391812Y7308207D01*
X37263432Y7291306D01*
X37263430Y7291305D01*
X37255246Y7290228D01*
X37207430Y7270422D01*
X37127986Y7237515D01*
X37127984Y7237514D01*
X37120358Y7234355D01*
X37004526Y7145474D01*
X36915645Y7029642D01*
X36859772Y6894754D01*
X36840715Y6750000D01*
X36524500Y6750000D01*
X36524500Y7122401D01*
X36513262Y7229328D01*
X36510298Y7257529D01*
X36510298Y7257531D01*
X36509608Y7264092D01*
X36450853Y7444920D01*
X36355786Y7609580D01*
X36228562Y7750877D01*
X36199399Y7772065D01*
X36156047Y7828287D01*
X36149972Y7899023D01*
X36183104Y7961815D01*
X36244924Y7996726D01*
X36273462Y8000000D01*
X38670000Y8000000D01*
X38738121Y7979998D01*
X38784614Y7926342D01*
X38796000Y7874000D01*
X38796000Y3737425D01*
X38793579Y3712847D01*
X38791024Y3700000D01*
X38793445Y3687830D01*
X38793445Y3675417D01*
X38793120Y3675417D01*
X38793858Y3664580D01*
X38784644Y3512265D01*
X38780084Y3436882D01*
X38778250Y3421778D01*
X38732109Y3169995D01*
X38728468Y3155222D01*
X38652313Y2910831D01*
X38646919Y2896608D01*
X38541864Y2663186D01*
X38534793Y2649713D01*
X38402364Y2430649D01*
X38393721Y2418127D01*
X38235851Y2216621D01*
X38225761Y2205233D01*
X38158711Y2138183D01*
X38096399Y2104157D01*
X38025584Y2109222D01*
X37968748Y2151769D01*
X37944694Y2210831D01*
X37943932Y2216621D01*
X37940228Y2244754D01*
X37884355Y2379642D01*
X37795474Y2495474D01*
X37788924Y2500500D01*
X37788921Y2500503D01*
X37686196Y2579327D01*
X37686194Y2579328D01*
X37679643Y2584355D01*
X37544754Y2640228D01*
X37400000Y2659285D01*
X37391812Y2658207D01*
X37263432Y2641306D01*
X37263430Y2641305D01*
X37255246Y2640228D01*
X37207430Y2620422D01*
X37127986Y2587515D01*
X37127984Y2587514D01*
X37120358Y2584355D01*
X37004526Y2495474D01*
X36915645Y2379642D01*
X36859772Y2244754D01*
X36840715Y2100000D01*
X36859772Y1955246D01*
X36915645Y1820358D01*
X36920672Y1813807D01*
X36984918Y1730080D01*
X37004526Y1704526D01*
X37006700Y1702858D01*
X37039501Y1642792D01*
X37034440Y1571977D01*
X36991895Y1515139D01*
X36939094Y1492068D01*
X36828222Y1471750D01*
X36813118Y1469916D01*
X36737735Y1465356D01*
X36585420Y1456142D01*
X36574583Y1456880D01*
X36574583Y1456555D01*
X36562170Y1456555D01*
X36550000Y1458976D01*
X36537153Y1456421D01*
X36512575Y1454000D01*
X36509696Y1454000D01*
X36441575Y1474002D01*
X36395082Y1527658D01*
X36384978Y1597932D01*
X36400577Y1643000D01*
X36447549Y1724357D01*
X36447550Y1724358D01*
X36450853Y1730080D01*
X36509608Y1910908D01*
X36524500Y2052599D01*
X36524500Y3447401D01*
X36509608Y3589092D01*
X36450853Y3769920D01*
X36355786Y3934580D01*
X36228562Y4075877D01*
X36130038Y4147459D01*
X36080083Y4183754D01*
X36080082Y4183755D01*
X36074741Y4187635D01*
X36068713Y4190319D01*
X36068711Y4190320D01*
X35907076Y4262284D01*
X35907075Y4262284D01*
X35901045Y4264969D01*
X35788351Y4288923D01*
X35721524Y4303128D01*
X35721520Y4303128D01*
X35715067Y4304500D01*
X35524933Y4304500D01*
X35518480Y4303128D01*
X35518476Y4303128D01*
X35451649Y4288923D01*
X35338955Y4264969D01*
X35332925Y4262284D01*
X35332924Y4262284D01*
X35171289Y4190320D01*
X35171287Y4190319D01*
X35165259Y4187635D01*
X35159918Y4183755D01*
X35159917Y4183754D01*
X35109962Y4147459D01*
X35011438Y4075877D01*
X34884214Y3934580D01*
X34789147Y3769920D01*
X34730392Y3589092D01*
X34715500Y3447401D01*
X34715500Y2052599D01*
X34730392Y1910908D01*
X34789147Y1730080D01*
X34792450Y1724358D01*
X34792451Y1724357D01*
X34839423Y1643000D01*
X34856161Y1574005D01*
X34832941Y1506913D01*
X34777134Y1463026D01*
X34730304Y1454000D01*
X27869696Y1454000D01*
X27801575Y1474002D01*
X27755082Y1527658D01*
X27744978Y1597932D01*
X27760577Y1643000D01*
X27807549Y1724357D01*
X27807550Y1724358D01*
X27810853Y1730080D01*
X27869608Y1910908D01*
X27884500Y2052599D01*
X27884500Y3447401D01*
X27869608Y3589092D01*
X27810853Y3769920D01*
X27715786Y3934580D01*
X27588562Y4075877D01*
X27490038Y4147459D01*
X27440083Y4183754D01*
X27440082Y4183755D01*
X27434741Y4187635D01*
X27428713Y4190319D01*
X27428711Y4190320D01*
X27267076Y4262284D01*
X27267075Y4262284D01*
X27261045Y4264969D01*
X27148351Y4288923D01*
X27081524Y4303128D01*
X27081520Y4303128D01*
X27075067Y4304500D01*
X26884933Y4304500D01*
X26878480Y4303128D01*
X26878476Y4303128D01*
X26811649Y4288923D01*
X26698955Y4264969D01*
X26692925Y4262284D01*
X26692924Y4262284D01*
X26531289Y4190320D01*
X26531287Y4190319D01*
X26525259Y4187635D01*
X26519918Y4183755D01*
X26519917Y4183754D01*
X26469962Y4147459D01*
X26371438Y4075877D01*
X26244214Y3934580D01*
X26149147Y3769920D01*
X26090392Y3589092D01*
X26075500Y3447401D01*
X26075500Y2052599D01*
X26090392Y1910908D01*
X26149147Y1730080D01*
X26152450Y1724358D01*
X26152451Y1724357D01*
X26199423Y1643000D01*
X26216161Y1574005D01*
X26192941Y1506913D01*
X26137134Y1463026D01*
X26090304Y1454000D01*
X22226000Y1454000D01*
X22157879Y1474002D01*
X22111386Y1527658D01*
X22100000Y1580000D01*
X22100000Y2800000D01*
X23090715Y2800000D01*
X23109772Y2655246D01*
X23112931Y2647620D01*
X23141219Y2579328D01*
X23165645Y2520358D01*
X23170672Y2513807D01*
X23244090Y2418127D01*
X23254526Y2404526D01*
X23261076Y2399500D01*
X23261079Y2399497D01*
X23363804Y2320673D01*
X23370357Y2315645D01*
X23505246Y2259772D01*
X23650000Y2240715D01*
X23658188Y2241793D01*
X23680680Y2244754D01*
X23794754Y2259772D01*
X23929643Y2315645D01*
X23936196Y2320673D01*
X24038921Y2399497D01*
X24038924Y2399500D01*
X24045474Y2404526D01*
X24055911Y2418127D01*
X24129328Y2513807D01*
X24134355Y2520358D01*
X24158782Y2579328D01*
X24187069Y2647620D01*
X24190228Y2655246D01*
X24209285Y2800000D01*
X24190228Y2944754D01*
X24134355Y3079642D01*
X24089914Y3137558D01*
X24050501Y3188923D01*
X24050500Y3188924D01*
X24045474Y3195474D01*
X23974364Y3250039D01*
X23932498Y3307376D01*
X23928276Y3378247D01*
X23963040Y3440149D01*
X23974365Y3449962D01*
X24038921Y3499498D01*
X24045474Y3504526D01*
X24134355Y3620358D01*
X24157162Y3675417D01*
X24187069Y3747620D01*
X24190228Y3755246D01*
X24191333Y3763635D01*
X24208207Y3891812D01*
X24209285Y3900000D01*
X24190228Y4044754D01*
X24134355Y4179642D01*
X24045474Y4295474D01*
X24038924Y4300500D01*
X24038921Y4300503D01*
X23936196Y4379327D01*
X23936194Y4379328D01*
X23929643Y4384355D01*
X23794754Y4440228D01*
X23650000Y4459285D01*
X23641812Y4458207D01*
X23513432Y4441306D01*
X23513430Y4441305D01*
X23505246Y4440228D01*
X23457430Y4420422D01*
X23377986Y4387515D01*
X23377984Y4387514D01*
X23370358Y4384355D01*
X23254526Y4295474D01*
X23165645Y4179642D01*
X23109772Y4044754D01*
X23090715Y3900000D01*
X23091793Y3891812D01*
X23108668Y3763635D01*
X23109772Y3755246D01*
X23112931Y3747620D01*
X23142839Y3675417D01*
X23165645Y3620358D01*
X23254526Y3504526D01*
X23324711Y3450671D01*
X23325635Y3449962D01*
X23367502Y3392624D01*
X23371723Y3321753D01*
X23336958Y3259850D01*
X23325635Y3250038D01*
X23254526Y3195474D01*
X23165645Y3079642D01*
X23109772Y2944754D01*
X23090715Y2800000D01*
X22100000Y2800000D01*
X22100000Y6027599D01*
X26075500Y6027599D01*
X26090392Y5885908D01*
X26149147Y5705080D01*
X26244214Y5540420D01*
X26248632Y5535513D01*
X26248633Y5535512D01*
X26348091Y5425052D01*
X26371438Y5399123D01*
X26402375Y5376646D01*
X26510440Y5298132D01*
X26525259Y5287365D01*
X26531287Y5284681D01*
X26531289Y5284680D01*
X26692924Y5212716D01*
X26698955Y5210031D01*
X26791944Y5190266D01*
X26878476Y5171872D01*
X26878480Y5171872D01*
X26884933Y5170500D01*
X27075067Y5170500D01*
X27081520Y5171872D01*
X27081524Y5171872D01*
X27168056Y5190266D01*
X27261045Y5210031D01*
X27267076Y5212716D01*
X27428711Y5284680D01*
X27428713Y5284681D01*
X27434741Y5287365D01*
X27449561Y5298132D01*
X27557625Y5376646D01*
X27588562Y5399123D01*
X27619060Y5432994D01*
X27680294Y5501002D01*
X27740740Y5538242D01*
X27811723Y5536890D01*
X27866677Y5501980D01*
X27943226Y5418734D01*
X27950521Y5414211D01*
X27950522Y5414210D01*
X28065044Y5343203D01*
X28072344Y5338677D01*
X28218235Y5296291D01*
X28229007Y5295500D01*
X28338057Y5295500D01*
X28342303Y5296082D01*
X28342309Y5296082D01*
X28421054Y5306869D01*
X28450518Y5310905D01*
X28509158Y5336281D01*
X28582064Y5367831D01*
X28582065Y5367831D01*
X28589946Y5371242D01*
X28637909Y5410081D01*
X28701339Y5461445D01*
X28701341Y5461447D01*
X28708013Y5466850D01*
X28764361Y5546138D01*
X28791044Y5583685D01*
X28791044Y5583686D01*
X28796020Y5590687D01*
X28847482Y5733629D01*
X28858609Y5885145D01*
X28828580Y6034071D01*
X28794361Y6101230D01*
X28763508Y6161783D01*
X28763506Y6161786D01*
X28759608Y6169436D01*
X28739050Y6191793D01*
X28662584Y6274948D01*
X28662583Y6274949D01*
X28656774Y6281266D01*
X28588894Y6323354D01*
X28534956Y6356797D01*
X28534955Y6356798D01*
X28527656Y6361323D01*
X28381765Y6403709D01*
X28370993Y6404500D01*
X28261943Y6404500D01*
X28257697Y6403918D01*
X28257691Y6403918D01*
X28178946Y6393131D01*
X28149482Y6389095D01*
X28060540Y6350606D01*
X27990080Y6341909D01*
X27926101Y6372686D01*
X27888919Y6433168D01*
X27884500Y6466243D01*
X27884500Y7122401D01*
X27873262Y7229328D01*
X27870298Y7257529D01*
X27870298Y7257531D01*
X27869608Y7264092D01*
X27810853Y7444920D01*
X27715786Y7609580D01*
X27588562Y7750877D01*
X27434741Y7862635D01*
X27428713Y7865319D01*
X27428711Y7865320D01*
X27267076Y7937284D01*
X27267075Y7937284D01*
X27261045Y7939969D01*
X27158268Y7961815D01*
X27081524Y7978128D01*
X27081520Y7978128D01*
X27075067Y7979500D01*
X26884933Y7979500D01*
X26878480Y7978128D01*
X26878476Y7978128D01*
X26801732Y7961815D01*
X26698955Y7939969D01*
X26692925Y7937284D01*
X26692924Y7937284D01*
X26531289Y7865320D01*
X26531287Y7865319D01*
X26525259Y7862635D01*
X26371438Y7750877D01*
X26244214Y7609580D01*
X26149147Y7444920D01*
X26090392Y7264092D01*
X26089702Y7257531D01*
X26089702Y7257529D01*
X26086738Y7229328D01*
X26075500Y7122401D01*
X26075500Y6027599D01*
X22100000Y6027599D01*
X22100000Y7547810D01*
X22120002Y7615931D01*
X22136905Y7636905D01*
X22663095Y8163095D01*
X22725407Y8197121D01*
X22752190Y8200000D01*
X25100000Y8200000D01*
X25463095Y8563095D01*
X25525407Y8597121D01*
X25552190Y8600000D01*
X33847810Y8600000D01*
X33915931Y8579998D01*
G37*
%TD.AperFunction*%
%TD*%
%TA.AperFunction,Conductor*%
%TO.N,+3V3*%
G36*
X18732121Y28979998D02*
G01*
X18778614Y28926342D01*
X18790000Y28874000D01*
X18790000Y24781633D01*
X18769998Y24713512D01*
X18716342Y24667019D01*
X18680446Y24656711D01*
X18563432Y24641306D01*
X18563430Y24641305D01*
X18555246Y24640228D01*
X18547619Y24637069D01*
X18547620Y24637069D01*
X18427986Y24587515D01*
X18427984Y24587514D01*
X18420358Y24584355D01*
X18304526Y24495474D01*
X18215645Y24379642D01*
X18159772Y24244754D01*
X18140715Y24100000D01*
X18159772Y23955246D01*
X18215645Y23820358D01*
X18304526Y23704526D01*
X18311076Y23699500D01*
X18311079Y23699497D01*
X18413804Y23620673D01*
X18420357Y23615645D01*
X18555246Y23559772D01*
X18700000Y23540715D01*
X18708188Y23541793D01*
X18836566Y23558694D01*
X18844754Y23559772D01*
X18979643Y23615645D01*
X18986196Y23620673D01*
X19088921Y23699497D01*
X19088924Y23699500D01*
X19095474Y23704526D01*
X19184355Y23820358D01*
X19240228Y23955246D01*
X19259285Y24100000D01*
X19240228Y24244754D01*
X19184355Y24379642D01*
X19170808Y24397297D01*
X19145209Y24463518D01*
X19159475Y24533067D01*
X19209076Y24583862D01*
X19270772Y24600000D01*
X23599221Y24600000D01*
X23667342Y24579998D01*
X23713835Y24526342D01*
X23723939Y24456068D01*
X23722844Y24450000D01*
X23720000Y24450000D01*
X23720000Y21490000D01*
X24220000Y21490000D01*
X24220000Y22424000D01*
X24240002Y22492121D01*
X24293658Y22538614D01*
X24346000Y22550000D01*
X25370000Y22550000D01*
X25370000Y24450000D01*
X25368057Y24450000D01*
X25368057Y24509498D01*
X25406441Y24569225D01*
X25471022Y24598718D01*
X25488953Y24600000D01*
X25990000Y24600000D01*
X25990000Y24600737D01*
X26045389Y24600737D01*
X26074282Y24586055D01*
X26075017Y24587329D01*
X26082170Y24583199D01*
X26088722Y24578172D01*
X26234047Y24517977D01*
X26390000Y24497445D01*
X26545953Y24517977D01*
X26691278Y24578172D01*
X26816071Y24673929D01*
X26911828Y24798723D01*
X26972023Y24944047D01*
X26992555Y25100000D01*
X26972023Y25255953D01*
X26911828Y25401277D01*
X26816071Y25526071D01*
X26691278Y25621828D01*
X26545953Y25682023D01*
X26390000Y25702555D01*
X26234047Y25682023D01*
X26226415Y25678862D01*
X26226416Y25678862D01*
X26164218Y25653099D01*
X26093628Y25645510D01*
X26030141Y25677289D01*
X25993914Y25738348D01*
X25990000Y25769508D01*
X25990000Y26430492D01*
X26010002Y26498613D01*
X26063658Y26545106D01*
X26133932Y26555210D01*
X26164217Y26546901D01*
X26234047Y26517977D01*
X26390000Y26497445D01*
X26545953Y26517977D01*
X26691278Y26578172D01*
X26816071Y26673929D01*
X26911828Y26798723D01*
X26972023Y26944047D01*
X26992555Y27100000D01*
X26972023Y27255953D01*
X26911828Y27401277D01*
X26816071Y27526071D01*
X26691278Y27621828D01*
X26545953Y27682023D01*
X26390000Y27702555D01*
X26234047Y27682023D01*
X26226415Y27678862D01*
X26226416Y27678862D01*
X26164218Y27653099D01*
X26093628Y27645510D01*
X26030141Y27677289D01*
X25993914Y27738348D01*
X25990000Y27769508D01*
X25990000Y28874000D01*
X26010002Y28942121D01*
X26063658Y28988614D01*
X26116000Y29000000D01*
X38563233Y29000000D01*
X38631354Y28979998D01*
X38677847Y28926342D01*
X38683518Y28911516D01*
X38728356Y28767751D01*
X38732002Y28752975D01*
X38778220Y28500982D01*
X38780057Y28485866D01*
X38793855Y28257945D01*
X38793118Y28247113D01*
X38793445Y28247113D01*
X38793445Y28234705D01*
X38791024Y28222533D01*
X38793445Y28210363D01*
X38793579Y28209689D01*
X38796000Y28185108D01*
X38796000Y8526000D01*
X38775998Y8457879D01*
X38722342Y8411386D01*
X38670000Y8400000D01*
X34752190Y8400000D01*
X34684069Y8420002D01*
X34663095Y8436905D01*
X33300000Y9800000D01*
X36520715Y9800000D01*
X36539772Y9655246D01*
X36595645Y9520358D01*
X36684526Y9404526D01*
X36691076Y9399500D01*
X36691079Y9399497D01*
X36793804Y9320673D01*
X36800357Y9315645D01*
X36935246Y9259772D01*
X37080000Y9240715D01*
X37088188Y9241793D01*
X37216566Y9258694D01*
X37224754Y9259772D01*
X37359643Y9315645D01*
X37366196Y9320673D01*
X37468921Y9399497D01*
X37468924Y9399500D01*
X37475474Y9404526D01*
X37564355Y9520358D01*
X37620228Y9655246D01*
X37639285Y9800000D01*
X37620228Y9944754D01*
X37564355Y10079642D01*
X37475474Y10195474D01*
X37468924Y10200500D01*
X37468921Y10200503D01*
X37366196Y10279327D01*
X37366194Y10279328D01*
X37359643Y10284355D01*
X37224754Y10340228D01*
X37080000Y10359285D01*
X37071812Y10358207D01*
X36943432Y10341306D01*
X36943430Y10341305D01*
X36935246Y10340228D01*
X36887430Y10320422D01*
X36807986Y10287515D01*
X36807984Y10287514D01*
X36800358Y10284355D01*
X36684526Y10195474D01*
X36595645Y10079642D01*
X36539772Y9944754D01*
X36520715Y9800000D01*
X33300000Y9800000D01*
X32900000Y10200000D01*
X26100000Y10200000D01*
X25136905Y9236905D01*
X25074593Y9202879D01*
X25047810Y9200000D01*
X21352190Y9200000D01*
X21284069Y9220002D01*
X21263095Y9236905D01*
X20536905Y9963095D01*
X20502879Y10025407D01*
X20500000Y10052190D01*
X20500000Y10800000D01*
X19900000Y11400000D01*
X17952190Y11400000D01*
X17884069Y11420002D01*
X17863095Y11436905D01*
X17536905Y11763095D01*
X17502879Y11825407D01*
X17500000Y11852190D01*
X17500000Y12650000D01*
X25690715Y12650000D01*
X25691937Y12640715D01*
X25705338Y12538928D01*
X25709772Y12505246D01*
X25712931Y12497620D01*
X25741089Y12429642D01*
X25765645Y12370358D01*
X25854526Y12254526D01*
X25861076Y12249500D01*
X25861079Y12249497D01*
X25963804Y12170673D01*
X25970357Y12165645D01*
X26105246Y12109772D01*
X26250000Y12090715D01*
X26258188Y12091793D01*
X26386566Y12108694D01*
X26394754Y12109772D01*
X26529643Y12165645D01*
X26536196Y12170673D01*
X26638921Y12249497D01*
X26638924Y12249500D01*
X26645474Y12254526D01*
X26734355Y12370358D01*
X26758912Y12429642D01*
X26787069Y12497620D01*
X26790228Y12505246D01*
X26794663Y12538928D01*
X26802703Y12600000D01*
X30440715Y12600000D01*
X30459772Y12455246D01*
X30462931Y12447620D01*
X30511620Y12330076D01*
X30515645Y12320358D01*
X30520672Y12313807D01*
X30591290Y12221776D01*
X30604526Y12204526D01*
X30611076Y12199500D01*
X30611079Y12199497D01*
X30713804Y12120673D01*
X30720357Y12115645D01*
X30855246Y12059772D01*
X31000000Y12040715D01*
X31008188Y12041793D01*
X31136566Y12058694D01*
X31144754Y12059772D01*
X31279643Y12115645D01*
X31286196Y12120673D01*
X31324416Y12150000D01*
X32670715Y12150000D01*
X32671793Y12141812D01*
X32684961Y12041793D01*
X32689772Y12005246D01*
X32745645Y11870358D01*
X32834526Y11754526D01*
X32841076Y11749500D01*
X32841079Y11749497D01*
X32943804Y11670673D01*
X32950357Y11665645D01*
X33085246Y11609772D01*
X33230000Y11590715D01*
X33238188Y11591793D01*
X33366566Y11608694D01*
X33374754Y11609772D01*
X33509643Y11665645D01*
X33516196Y11670673D01*
X33618921Y11749497D01*
X33618924Y11749500D01*
X33625474Y11754526D01*
X33714355Y11870358D01*
X33770228Y12005246D01*
X33775040Y12041793D01*
X33788207Y12141812D01*
X33789285Y12150000D01*
X33781803Y12206830D01*
X33792742Y12276977D01*
X33839870Y12330076D01*
X33908224Y12349266D01*
X33923163Y12348198D01*
X33980000Y12340715D01*
X34036830Y12348197D01*
X34106977Y12337258D01*
X34160076Y12290130D01*
X34179266Y12221776D01*
X34178198Y12206837D01*
X34170715Y12150000D01*
X34171793Y12141812D01*
X34184961Y12041793D01*
X34189772Y12005246D01*
X34245645Y11870358D01*
X34334526Y11754526D01*
X34341076Y11749500D01*
X34341079Y11749497D01*
X34443804Y11670673D01*
X34450357Y11665645D01*
X34585246Y11609772D01*
X34730000Y11590715D01*
X34738188Y11591793D01*
X34866566Y11608694D01*
X34874754Y11609772D01*
X35009643Y11665645D01*
X35016196Y11670673D01*
X35118921Y11749497D01*
X35118924Y11749500D01*
X35125474Y11754526D01*
X35214355Y11870358D01*
X35270228Y12005246D01*
X35275040Y12041793D01*
X35288207Y12141812D01*
X35289285Y12150000D01*
X35274662Y12261077D01*
X35271306Y12286568D01*
X35271305Y12286570D01*
X35270228Y12294754D01*
X35241625Y12363807D01*
X35217515Y12422014D01*
X35217514Y12422016D01*
X35214355Y12429642D01*
X35125474Y12545474D01*
X35118924Y12550500D01*
X35118921Y12550503D01*
X35016196Y12629327D01*
X35016194Y12629328D01*
X35009643Y12634355D01*
X34874754Y12690228D01*
X34730000Y12709285D01*
X34673170Y12701803D01*
X34603023Y12712742D01*
X34549924Y12759870D01*
X34530734Y12828224D01*
X34531802Y12843163D01*
X34539285Y12900000D01*
X34531803Y12956830D01*
X34542742Y13026977D01*
X34589870Y13080076D01*
X34658224Y13099266D01*
X34673163Y13098198D01*
X34730000Y13090715D01*
X34738188Y13091793D01*
X34866566Y13108694D01*
X34874754Y13109772D01*
X35009643Y13165645D01*
X35037562Y13187068D01*
X35118921Y13249497D01*
X35118924Y13249500D01*
X35125474Y13254526D01*
X35214355Y13370358D01*
X35235197Y13420673D01*
X35267069Y13497620D01*
X35270228Y13505246D01*
X35272569Y13523023D01*
X35288207Y13641812D01*
X35288207Y13641813D01*
X35289285Y13650000D01*
X35285769Y13676704D01*
X35271306Y13786568D01*
X35271305Y13786570D01*
X35270228Y13794754D01*
X35214355Y13929642D01*
X35125474Y14045474D01*
X35118924Y14050500D01*
X35118921Y14050503D01*
X35016196Y14129327D01*
X35016194Y14129328D01*
X35009643Y14134355D01*
X34874754Y14190228D01*
X34730000Y14209285D01*
X34721812Y14208207D01*
X34593432Y14191306D01*
X34593430Y14191305D01*
X34585246Y14190228D01*
X34541274Y14172014D01*
X34457986Y14137515D01*
X34457984Y14137514D01*
X34450358Y14134355D01*
X34334526Y14045474D01*
X34245645Y13929642D01*
X34189772Y13794754D01*
X34188695Y13786570D01*
X34188694Y13786568D01*
X34174231Y13676704D01*
X34170715Y13650000D01*
X34178197Y13593170D01*
X34167258Y13523023D01*
X34120130Y13469924D01*
X34051776Y13450734D01*
X34036837Y13451802D01*
X33980000Y13459285D01*
X33923170Y13451803D01*
X33853023Y13462742D01*
X33799924Y13509870D01*
X33780734Y13578224D01*
X33781802Y13593163D01*
X33789285Y13650000D01*
X33785769Y13676704D01*
X33771306Y13786568D01*
X33771305Y13786570D01*
X33770228Y13794754D01*
X33714355Y13929642D01*
X33625474Y14045474D01*
X33618924Y14050500D01*
X33618921Y14050503D01*
X33516196Y14129327D01*
X33516194Y14129328D01*
X33509643Y14134355D01*
X33374754Y14190228D01*
X33230000Y14209285D01*
X33221812Y14208207D01*
X33093432Y14191306D01*
X33093430Y14191305D01*
X33085246Y14190228D01*
X33041274Y14172014D01*
X32957986Y14137515D01*
X32957984Y14137514D01*
X32950358Y14134355D01*
X32834526Y14045474D01*
X32745645Y13929642D01*
X32689772Y13794754D01*
X32688695Y13786570D01*
X32688694Y13786568D01*
X32674231Y13676704D01*
X32670715Y13650000D01*
X32671793Y13641813D01*
X32671793Y13641812D01*
X32687432Y13523023D01*
X32689772Y13505246D01*
X32692931Y13497620D01*
X32724804Y13420673D01*
X32745645Y13370358D01*
X32834526Y13254526D01*
X32841076Y13249500D01*
X32841079Y13249497D01*
X32922438Y13187068D01*
X32950357Y13165645D01*
X33085246Y13109772D01*
X33230000Y13090715D01*
X33286830Y13098197D01*
X33356977Y13087258D01*
X33410076Y13040130D01*
X33429266Y12971776D01*
X33428198Y12956837D01*
X33420715Y12900000D01*
X33428197Y12843170D01*
X33417258Y12773023D01*
X33370130Y12719924D01*
X33301776Y12700734D01*
X33286837Y12701802D01*
X33230000Y12709285D01*
X33221812Y12708207D01*
X33093432Y12691306D01*
X33093430Y12691305D01*
X33085246Y12690228D01*
X33037430Y12670422D01*
X32957986Y12637515D01*
X32957984Y12637514D01*
X32950358Y12634355D01*
X32834526Y12545474D01*
X32745645Y12429642D01*
X32742486Y12422016D01*
X32742485Y12422014D01*
X32718375Y12363807D01*
X32689772Y12294754D01*
X32688695Y12286570D01*
X32688694Y12286568D01*
X32685338Y12261077D01*
X32670715Y12150000D01*
X31324416Y12150000D01*
X31388921Y12199497D01*
X31388924Y12199500D01*
X31395474Y12204526D01*
X31408711Y12221776D01*
X31479328Y12313807D01*
X31484355Y12320358D01*
X31488381Y12330076D01*
X31537069Y12447620D01*
X31540228Y12455246D01*
X31559285Y12600000D01*
X31553459Y12644253D01*
X31541306Y12736568D01*
X31541305Y12736570D01*
X31540228Y12744754D01*
X31519517Y12794754D01*
X31487515Y12872014D01*
X31487514Y12872016D01*
X31484355Y12879642D01*
X31395474Y12995474D01*
X31388924Y13000500D01*
X31388921Y13000503D01*
X31286196Y13079327D01*
X31286194Y13079328D01*
X31279643Y13084355D01*
X31144754Y13140228D01*
X31000000Y13159285D01*
X30991812Y13158207D01*
X30863432Y13141306D01*
X30863430Y13141305D01*
X30855246Y13140228D01*
X30828929Y13129327D01*
X30727986Y13087515D01*
X30727984Y13087514D01*
X30720358Y13084355D01*
X30604526Y12995474D01*
X30515645Y12879642D01*
X30512486Y12872016D01*
X30512485Y12872014D01*
X30480483Y12794754D01*
X30459772Y12744754D01*
X30458695Y12736570D01*
X30458694Y12736568D01*
X30446541Y12644253D01*
X30440715Y12600000D01*
X26802703Y12600000D01*
X26808063Y12640715D01*
X26809285Y12650000D01*
X26800643Y12715645D01*
X26791306Y12786568D01*
X26791305Y12786570D01*
X26790228Y12794754D01*
X26755066Y12879642D01*
X26737515Y12922014D01*
X26737514Y12922016D01*
X26734355Y12929642D01*
X26679986Y13000497D01*
X26650501Y13038923D01*
X26650500Y13038924D01*
X26645474Y13045474D01*
X26638924Y13050500D01*
X26638921Y13050503D01*
X26536196Y13129327D01*
X26536194Y13129328D01*
X26529643Y13134355D01*
X26394754Y13190228D01*
X26320527Y13200000D01*
X28840715Y13200000D01*
X28842417Y13187069D01*
X28856602Y13079327D01*
X28859772Y13055246D01*
X28862931Y13047620D01*
X28882448Y13000503D01*
X28915645Y12920358D01*
X29004526Y12804526D01*
X29011076Y12799500D01*
X29011079Y12799497D01*
X29113804Y12720673D01*
X29120357Y12715645D01*
X29255246Y12659772D01*
X29400000Y12640715D01*
X29408188Y12641793D01*
X29408333Y12641812D01*
X29544754Y12659772D01*
X29679643Y12715645D01*
X29686196Y12720673D01*
X29788921Y12799497D01*
X29788924Y12799500D01*
X29795474Y12804526D01*
X29884355Y12920358D01*
X29917553Y13000503D01*
X29937069Y13047620D01*
X29940228Y13055246D01*
X29943399Y13079327D01*
X29957583Y13187069D01*
X29959285Y13200000D01*
X29940228Y13344754D01*
X29896329Y13450734D01*
X29887515Y13472014D01*
X29887514Y13472016D01*
X29884355Y13479642D01*
X29879327Y13486195D01*
X29879325Y13486198D01*
X29850859Y13523296D01*
X29825258Y13589516D01*
X29839523Y13659065D01*
X29850859Y13676704D01*
X29879325Y13713802D01*
X29879327Y13713805D01*
X29884355Y13720358D01*
X29895648Y13747620D01*
X29937069Y13847620D01*
X29940228Y13855246D01*
X29959285Y14000000D01*
X29940228Y14144754D01*
X29884355Y14279642D01*
X29795474Y14395474D01*
X29788924Y14400500D01*
X29788921Y14400503D01*
X29686196Y14479327D01*
X29686194Y14479328D01*
X29679643Y14484355D01*
X29544754Y14540228D01*
X29400000Y14559285D01*
X29391812Y14558207D01*
X29263432Y14541306D01*
X29263430Y14541305D01*
X29255246Y14540228D01*
X29207430Y14520422D01*
X29127986Y14487515D01*
X29127984Y14487514D01*
X29120358Y14484355D01*
X29045226Y14426704D01*
X29023160Y14409772D01*
X29004526Y14395474D01*
X28915645Y14279642D01*
X28859772Y14144754D01*
X28840715Y14000000D01*
X28859772Y13855246D01*
X28862931Y13847620D01*
X28904353Y13747620D01*
X28915645Y13720358D01*
X28920673Y13713805D01*
X28920675Y13713802D01*
X28949141Y13676704D01*
X28974742Y13610484D01*
X28960477Y13540935D01*
X28949141Y13523296D01*
X28920675Y13486198D01*
X28920673Y13486195D01*
X28915645Y13479642D01*
X28912486Y13472016D01*
X28912485Y13472014D01*
X28903671Y13450734D01*
X28859772Y13344754D01*
X28840715Y13200000D01*
X26320527Y13200000D01*
X26250000Y13209285D01*
X26226255Y13206159D01*
X26113432Y13191306D01*
X26113430Y13191305D01*
X26105246Y13190228D01*
X26058037Y13170673D01*
X25977986Y13137515D01*
X25977984Y13137514D01*
X25970358Y13134355D01*
X25854526Y13045474D01*
X25765645Y12929642D01*
X25762486Y12922016D01*
X25762485Y12922014D01*
X25744934Y12879642D01*
X25709772Y12794754D01*
X25708695Y12786570D01*
X25708694Y12786568D01*
X25699357Y12715645D01*
X25690715Y12650000D01*
X17500000Y12650000D01*
X17500000Y13900000D01*
X18890715Y13900000D01*
X18909772Y13755246D01*
X18965645Y13620358D01*
X19054526Y13504526D01*
X19061076Y13499500D01*
X19061079Y13499497D01*
X19138320Y13440228D01*
X19170357Y13415645D01*
X19305246Y13359772D01*
X19450000Y13340715D01*
X19458188Y13341793D01*
X19480680Y13344754D01*
X19594754Y13359772D01*
X19729643Y13415645D01*
X19761680Y13440228D01*
X19838921Y13499497D01*
X19838924Y13499500D01*
X19845474Y13504526D01*
X19934355Y13620358D01*
X19990228Y13755246D01*
X20009285Y13900000D01*
X19990228Y14044754D01*
X19970422Y14092570D01*
X19937515Y14172014D01*
X19937514Y14172016D01*
X19934355Y14179642D01*
X19894754Y14231251D01*
X19862492Y14273296D01*
X19836892Y14339517D01*
X19851157Y14409065D01*
X19862492Y14426704D01*
X19929328Y14513807D01*
X19934355Y14520358D01*
X19951409Y14561528D01*
X19987069Y14647620D01*
X19990228Y14655246D01*
X19991607Y14665715D01*
X20008207Y14791812D01*
X20009285Y14800000D01*
X19990228Y14944754D01*
X19988055Y14950000D01*
X21140715Y14950000D01*
X21141793Y14941812D01*
X21157238Y14824497D01*
X21159772Y14805246D01*
X21162931Y14797620D01*
X21208366Y14687932D01*
X21215645Y14670358D01*
X21260085Y14612442D01*
X21295017Y14566919D01*
X21304526Y14554526D01*
X21311076Y14549500D01*
X21311079Y14549497D01*
X21402525Y14479328D01*
X21420357Y14465645D01*
X21555246Y14409772D01*
X21700000Y14390715D01*
X21708188Y14391793D01*
X21736149Y14395474D01*
X21844754Y14409772D01*
X21979643Y14465645D01*
X21997475Y14479328D01*
X22088921Y14549497D01*
X22088924Y14549500D01*
X22095474Y14554526D01*
X22100501Y14561077D01*
X22106343Y14566919D01*
X22107408Y14565854D01*
X22157372Y14602339D01*
X22228243Y14606563D01*
X22290147Y14571801D01*
X22299049Y14561528D01*
X22299497Y14561080D01*
X22304526Y14554526D01*
X22311076Y14549500D01*
X22311079Y14549497D01*
X22402525Y14479328D01*
X22420357Y14465645D01*
X22555246Y14409772D01*
X22700000Y14390715D01*
X22708188Y14391793D01*
X22736149Y14395474D01*
X22844754Y14409772D01*
X22979643Y14465645D01*
X22997475Y14479328D01*
X23088921Y14549497D01*
X23088924Y14549500D01*
X23095474Y14554526D01*
X23104984Y14566919D01*
X23139914Y14612442D01*
X23184355Y14670358D01*
X23191635Y14687932D01*
X23237069Y14797620D01*
X23240228Y14805246D01*
X23242763Y14824497D01*
X23258207Y14941812D01*
X23259285Y14950000D01*
X23240228Y15094754D01*
X23201222Y15188923D01*
X23187515Y15222014D01*
X23187514Y15222016D01*
X23186278Y15225000D01*
X30415715Y15225000D01*
X30434772Y15080246D01*
X30437931Y15072620D01*
X30485331Y14958188D01*
X30490645Y14945358D01*
X30579526Y14829526D01*
X30586076Y14824500D01*
X30586079Y14824497D01*
X30621106Y14797620D01*
X30695357Y14740645D01*
X30830246Y14684772D01*
X30975000Y14665715D01*
X30983188Y14666793D01*
X31010268Y14670358D01*
X31119754Y14684772D01*
X31254643Y14740645D01*
X31328894Y14797620D01*
X31363921Y14824497D01*
X31363924Y14824500D01*
X31370474Y14829526D01*
X31459355Y14945358D01*
X31464670Y14958188D01*
X31512069Y15072620D01*
X31515228Y15080246D01*
X31534285Y15225000D01*
X31519531Y15337069D01*
X31516306Y15361568D01*
X31516305Y15361570D01*
X31515228Y15369754D01*
X31487160Y15437515D01*
X31462515Y15497014D01*
X31462514Y15497016D01*
X31459355Y15504642D01*
X31370474Y15620474D01*
X31363924Y15625500D01*
X31363921Y15625503D01*
X31261196Y15704327D01*
X31261194Y15704328D01*
X31254643Y15709355D01*
X31119754Y15765228D01*
X30975000Y15784285D01*
X30966812Y15783207D01*
X30838432Y15766306D01*
X30838430Y15766305D01*
X30830246Y15765228D01*
X30782430Y15745422D01*
X30702986Y15712515D01*
X30702984Y15712514D01*
X30695358Y15709355D01*
X30579526Y15620474D01*
X30490645Y15504642D01*
X30487486Y15497016D01*
X30487485Y15497014D01*
X30462840Y15437515D01*
X30434772Y15369754D01*
X30433695Y15361570D01*
X30433694Y15361568D01*
X30430469Y15337069D01*
X30415715Y15225000D01*
X23186278Y15225000D01*
X23184355Y15229642D01*
X23101924Y15337068D01*
X23100501Y15338923D01*
X23100500Y15338924D01*
X23095474Y15345474D01*
X23088924Y15350500D01*
X23088921Y15350503D01*
X22986196Y15429327D01*
X22986194Y15429328D01*
X22979643Y15434355D01*
X22844754Y15490228D01*
X22700000Y15509285D01*
X22691812Y15508207D01*
X22563432Y15491306D01*
X22563430Y15491305D01*
X22555246Y15490228D01*
X22507430Y15470422D01*
X22427986Y15437515D01*
X22427984Y15437514D01*
X22420358Y15434355D01*
X22304526Y15345474D01*
X22299503Y15338928D01*
X22293658Y15333083D01*
X22292594Y15334147D01*
X22242628Y15297661D01*
X22171757Y15293437D01*
X22109853Y15328199D01*
X22100951Y15338472D01*
X22100503Y15338920D01*
X22095474Y15345474D01*
X22088924Y15350500D01*
X22088921Y15350503D01*
X21986196Y15429327D01*
X21986194Y15429328D01*
X21979643Y15434355D01*
X21844754Y15490228D01*
X21700000Y15509285D01*
X21691812Y15508207D01*
X21563432Y15491306D01*
X21563430Y15491305D01*
X21555246Y15490228D01*
X21507430Y15470422D01*
X21427986Y15437515D01*
X21427984Y15437514D01*
X21420358Y15434355D01*
X21304526Y15345474D01*
X21215645Y15229642D01*
X21212486Y15222016D01*
X21212485Y15222014D01*
X21198778Y15188923D01*
X21159772Y15094754D01*
X21140715Y14950000D01*
X19988055Y14950000D01*
X19934355Y15079642D01*
X19845474Y15195474D01*
X19838924Y15200500D01*
X19838921Y15200503D01*
X19736196Y15279327D01*
X19736194Y15279328D01*
X19729643Y15284355D01*
X19594754Y15340228D01*
X19450000Y15359285D01*
X19441812Y15358207D01*
X19313432Y15341306D01*
X19313430Y15341305D01*
X19305246Y15340228D01*
X19287997Y15333083D01*
X19177986Y15287515D01*
X19177984Y15287514D01*
X19170358Y15284355D01*
X19054526Y15195474D01*
X18965645Y15079642D01*
X18909772Y14944754D01*
X18890715Y14800000D01*
X18891793Y14791812D01*
X18908394Y14665715D01*
X18909772Y14655246D01*
X18912931Y14647620D01*
X18948592Y14561528D01*
X18965645Y14520358D01*
X18970672Y14513807D01*
X19037508Y14426704D01*
X19063108Y14360483D01*
X19048843Y14290935D01*
X19037508Y14273296D01*
X19005246Y14231251D01*
X18965645Y14179642D01*
X18962486Y14172016D01*
X18962485Y14172014D01*
X18929578Y14092570D01*
X18909772Y14044754D01*
X18890715Y13900000D01*
X17500000Y13900000D01*
X17500000Y18450000D01*
X20365715Y18450000D01*
X20384772Y18305246D01*
X20440645Y18170358D01*
X20445672Y18163807D01*
X20520017Y18066919D01*
X20529526Y18054526D01*
X20536076Y18049500D01*
X20536079Y18049497D01*
X20638804Y17970673D01*
X20645357Y17965645D01*
X20780246Y17909772D01*
X20925000Y17890715D01*
X20933188Y17891793D01*
X21061566Y17908694D01*
X21069754Y17909772D01*
X21204643Y17965645D01*
X21211196Y17970673D01*
X21313921Y18049497D01*
X21313924Y18049500D01*
X21320474Y18054526D01*
X21325501Y18061077D01*
X21331343Y18066919D01*
X21332408Y18065854D01*
X21382372Y18102339D01*
X21453243Y18106563D01*
X21515147Y18071801D01*
X21524049Y18061528D01*
X21524497Y18061080D01*
X21529526Y18054526D01*
X21536076Y18049500D01*
X21536079Y18049497D01*
X21638804Y17970673D01*
X21645357Y17965645D01*
X21780246Y17909772D01*
X21925000Y17890715D01*
X21933188Y17891793D01*
X22061566Y17908694D01*
X22069754Y17909772D01*
X22204643Y17965645D01*
X22211196Y17970673D01*
X22313921Y18049497D01*
X22313924Y18049500D01*
X22320474Y18054526D01*
X22325501Y18061077D01*
X22331343Y18066919D01*
X22332408Y18065854D01*
X22382372Y18102339D01*
X22453243Y18106563D01*
X22515147Y18071801D01*
X22524049Y18061528D01*
X22524497Y18061080D01*
X22529526Y18054526D01*
X22536076Y18049500D01*
X22536079Y18049497D01*
X22638804Y17970673D01*
X22645357Y17965645D01*
X22780246Y17909772D01*
X22925000Y17890715D01*
X22933188Y17891793D01*
X23061566Y17908694D01*
X23069754Y17909772D01*
X23204643Y17965645D01*
X23211196Y17970673D01*
X23313921Y18049497D01*
X23313924Y18049500D01*
X23320474Y18054526D01*
X23329984Y18066919D01*
X23404328Y18163807D01*
X23409355Y18170358D01*
X23465228Y18305246D01*
X23484285Y18450000D01*
X23465228Y18594754D01*
X23438296Y18659772D01*
X23412515Y18722014D01*
X23412514Y18722016D01*
X23409355Y18729642D01*
X23355753Y18799497D01*
X23325501Y18838923D01*
X23325500Y18838924D01*
X23320474Y18845474D01*
X23313921Y18850502D01*
X23308084Y18856339D01*
X23309148Y18857403D01*
X23272659Y18907375D01*
X23268437Y18978246D01*
X23303200Y19040149D01*
X23313473Y19049050D01*
X23313920Y19049497D01*
X23320474Y19054526D01*
X23329984Y19066919D01*
X23404328Y19163807D01*
X23409355Y19170358D01*
X23421633Y19200000D01*
X32690715Y19200000D01*
X32691793Y19191812D01*
X32707593Y19071801D01*
X32709772Y19055246D01*
X32765645Y18920358D01*
X32770672Y18913807D01*
X32823106Y18845474D01*
X32854526Y18804526D01*
X32861076Y18799500D01*
X32861079Y18799497D01*
X32963804Y18720673D01*
X32970357Y18715645D01*
X33105246Y18659772D01*
X33250000Y18640715D01*
X33258188Y18641793D01*
X33386566Y18658694D01*
X33394754Y18659772D01*
X33529643Y18715645D01*
X33536196Y18720673D01*
X33638921Y18799497D01*
X33638924Y18799500D01*
X33645474Y18804526D01*
X33676895Y18845474D01*
X33729328Y18913807D01*
X33734355Y18920358D01*
X33790228Y19055246D01*
X33792408Y19071801D01*
X33808207Y19191812D01*
X33809285Y19200000D01*
X33790228Y19344754D01*
X33734355Y19479642D01*
X33645474Y19595474D01*
X33638924Y19600500D01*
X33638921Y19600503D01*
X33536196Y19679327D01*
X33536194Y19679328D01*
X33529643Y19684355D01*
X33394754Y19740228D01*
X33250000Y19759285D01*
X33241812Y19758207D01*
X33113432Y19741306D01*
X33113430Y19741305D01*
X33105246Y19740228D01*
X33061274Y19722014D01*
X32977986Y19687515D01*
X32977984Y19687514D01*
X32970358Y19684355D01*
X32854526Y19595474D01*
X32765645Y19479642D01*
X32709772Y19344754D01*
X32690715Y19200000D01*
X23421633Y19200000D01*
X23465228Y19305246D01*
X23484285Y19450000D01*
X23465228Y19594754D01*
X23445422Y19642570D01*
X23412515Y19722014D01*
X23412514Y19722016D01*
X23409355Y19729642D01*
X23320474Y19845474D01*
X23313921Y19850502D01*
X23308084Y19856339D01*
X23309148Y19857403D01*
X23272659Y19907375D01*
X23268437Y19978246D01*
X23303200Y20040149D01*
X23313473Y20049050D01*
X23313920Y20049497D01*
X23320474Y20054526D01*
X23329984Y20066919D01*
X23404328Y20163807D01*
X23409355Y20170358D01*
X23465228Y20305246D01*
X23484285Y20450000D01*
X23465228Y20594754D01*
X23438296Y20659772D01*
X23412515Y20722014D01*
X23412514Y20722016D01*
X23409355Y20729642D01*
X23355753Y20799497D01*
X23325501Y20838923D01*
X23325500Y20838924D01*
X23320474Y20845474D01*
X23313924Y20850500D01*
X23313921Y20850503D01*
X23211196Y20929327D01*
X23211194Y20929328D01*
X23204643Y20934355D01*
X23069754Y20990228D01*
X22925000Y21009285D01*
X22916812Y21008207D01*
X22788432Y20991306D01*
X22788430Y20991305D01*
X22780246Y20990228D01*
X22732430Y20970422D01*
X22652986Y20937515D01*
X22652984Y20937514D01*
X22645358Y20934355D01*
X22529526Y20845474D01*
X22524503Y20838928D01*
X22518658Y20833083D01*
X22517594Y20834147D01*
X22467628Y20797661D01*
X22396757Y20793437D01*
X22334853Y20828199D01*
X22325951Y20838472D01*
X22325503Y20838920D01*
X22320474Y20845474D01*
X22313924Y20850500D01*
X22313921Y20850503D01*
X22211196Y20929327D01*
X22211194Y20929328D01*
X22204643Y20934355D01*
X22069754Y20990228D01*
X21925000Y21009285D01*
X21916812Y21008207D01*
X21788432Y20991306D01*
X21788430Y20991305D01*
X21780246Y20990228D01*
X21732430Y20970422D01*
X21652986Y20937515D01*
X21652984Y20937514D01*
X21645358Y20934355D01*
X21529526Y20845474D01*
X21524503Y20838928D01*
X21518658Y20833083D01*
X21517594Y20834147D01*
X21467628Y20797661D01*
X21396757Y20793437D01*
X21334853Y20828199D01*
X21325951Y20838472D01*
X21325503Y20838920D01*
X21320474Y20845474D01*
X21313924Y20850500D01*
X21313921Y20850503D01*
X21211196Y20929327D01*
X21211194Y20929328D01*
X21204643Y20934355D01*
X21069754Y20990228D01*
X20925000Y21009285D01*
X20916812Y21008207D01*
X20788432Y20991306D01*
X20788430Y20991305D01*
X20780246Y20990228D01*
X20732430Y20970422D01*
X20652986Y20937515D01*
X20652984Y20937514D01*
X20645358Y20934355D01*
X20529526Y20845474D01*
X20440645Y20729642D01*
X20437486Y20722016D01*
X20437485Y20722014D01*
X20411704Y20659772D01*
X20384772Y20594754D01*
X20365715Y20450000D01*
X20384772Y20305246D01*
X20440645Y20170358D01*
X20445672Y20163807D01*
X20520017Y20066919D01*
X20529526Y20054526D01*
X20536079Y20049498D01*
X20541916Y20043661D01*
X20540853Y20042598D01*
X20577343Y19992616D01*
X20581560Y19921744D01*
X20546791Y19859844D01*
X20536518Y19850943D01*
X20536072Y19850497D01*
X20529526Y19845474D01*
X20440645Y19729642D01*
X20437486Y19722016D01*
X20437485Y19722014D01*
X20404578Y19642570D01*
X20384772Y19594754D01*
X20365715Y19450000D01*
X20384772Y19305246D01*
X20440645Y19170358D01*
X20445672Y19163807D01*
X20520017Y19066919D01*
X20529526Y19054526D01*
X20536079Y19049498D01*
X20541916Y19043661D01*
X20540853Y19042598D01*
X20577343Y18992616D01*
X20581560Y18921744D01*
X20546791Y18859844D01*
X20536518Y18850943D01*
X20536072Y18850497D01*
X20529526Y18845474D01*
X20440645Y18729642D01*
X20437486Y18722016D01*
X20437485Y18722014D01*
X20411704Y18659772D01*
X20384772Y18594754D01*
X20365715Y18450000D01*
X17500000Y18450000D01*
X17500000Y21200000D01*
X32640715Y21200000D01*
X32659772Y21055246D01*
X32662931Y21047620D01*
X32688013Y20987068D01*
X32715645Y20920358D01*
X32720672Y20913807D01*
X32773106Y20845474D01*
X32804526Y20804526D01*
X32811076Y20799500D01*
X32811079Y20799497D01*
X32913804Y20720673D01*
X32920357Y20715645D01*
X33055246Y20659772D01*
X33200000Y20640715D01*
X33208188Y20641793D01*
X33336566Y20658694D01*
X33344754Y20659772D01*
X33479643Y20715645D01*
X33486196Y20720673D01*
X33588921Y20799497D01*
X33588924Y20799500D01*
X33595474Y20804526D01*
X33626895Y20845474D01*
X33679328Y20913807D01*
X33684355Y20920358D01*
X33711988Y20987068D01*
X33737069Y21047620D01*
X33740228Y21055246D01*
X33759285Y21200000D01*
X33740228Y21344754D01*
X33684355Y21479642D01*
X33595474Y21595474D01*
X33588924Y21600500D01*
X33588921Y21600503D01*
X33486196Y21679327D01*
X33486194Y21679328D01*
X33479643Y21684355D01*
X33344754Y21740228D01*
X33200000Y21759285D01*
X33191812Y21758207D01*
X33063432Y21741306D01*
X33063430Y21741305D01*
X33055246Y21740228D01*
X33007430Y21720422D01*
X32927986Y21687515D01*
X32927984Y21687514D01*
X32920358Y21684355D01*
X32804526Y21595474D01*
X32715645Y21479642D01*
X32659772Y21344754D01*
X32640715Y21200000D01*
X17500000Y21200000D01*
X17500000Y28874000D01*
X17520002Y28942121D01*
X17573658Y28988614D01*
X17626000Y29000000D01*
X18664000Y29000000D01*
X18732121Y28979998D01*
G37*
%TD.AperFunction*%
%TD*%
%TA.AperFunction,Conductor*%
%TO.N,+5V*%
G36*
X16842121Y28979998D02*
G01*
X16888614Y28926342D01*
X16900000Y28874000D01*
X16900000Y11400000D01*
X17500000Y10800000D01*
X19447810Y10800000D01*
X19515931Y10779998D01*
X19536905Y10763095D01*
X19863095Y10436905D01*
X19897121Y10374593D01*
X19900000Y10347810D01*
X19900000Y9200000D01*
X21463095Y7636905D01*
X21497121Y7574593D01*
X21500000Y7547810D01*
X21500000Y2520771D01*
X21479998Y2452650D01*
X21426342Y2406157D01*
X21356068Y2396053D01*
X21297295Y2420810D01*
X21286197Y2429326D01*
X21286194Y2429328D01*
X21279643Y2434355D01*
X21144754Y2490228D01*
X21000000Y2509285D01*
X20991812Y2508207D01*
X20863432Y2491306D01*
X20863430Y2491305D01*
X20855246Y2490228D01*
X20807430Y2470422D01*
X20727986Y2437515D01*
X20727984Y2437514D01*
X20720358Y2434355D01*
X20604526Y2345474D01*
X20515645Y2229642D01*
X20512486Y2222016D01*
X20512485Y2222014D01*
X20505534Y2205233D01*
X20459772Y2094754D01*
X20458695Y2086570D01*
X20458694Y2086568D01*
X20449160Y2014149D01*
X20440715Y1950000D01*
X20459772Y1805246D01*
X20462931Y1797620D01*
X20499997Y1708136D01*
X20515645Y1670358D01*
X20520672Y1663807D01*
X20526122Y1656704D01*
X20551722Y1590483D01*
X20537457Y1520934D01*
X20487856Y1470139D01*
X20426159Y1454000D01*
X8087425Y1454000D01*
X8062847Y1456421D01*
X8050000Y1458976D01*
X8037830Y1456555D01*
X8025417Y1456555D01*
X8025417Y1456880D01*
X8014580Y1456142D01*
X7857485Y1465645D01*
X7786882Y1469916D01*
X7771778Y1471750D01*
X7519995Y1517891D01*
X7505222Y1521532D01*
X7434904Y1543444D01*
X7260826Y1597689D01*
X7246608Y1603081D01*
X7013183Y1708138D01*
X6999713Y1715207D01*
X6780649Y1847636D01*
X6768127Y1856279D01*
X6566621Y2014149D01*
X6555233Y2024239D01*
X6374239Y2205233D01*
X6364149Y2216621D01*
X6206279Y2418127D01*
X6197636Y2430649D01*
X6065207Y2649713D01*
X6058136Y2663186D01*
X5953083Y2896604D01*
X5947687Y2910831D01*
X5871532Y3155222D01*
X5867891Y3169995D01*
X5821750Y3421778D01*
X5819916Y3436882D01*
X5812649Y3557011D01*
X5806142Y3664580D01*
X5806880Y3675417D01*
X5806555Y3675417D01*
X5806555Y3687830D01*
X5808976Y3700000D01*
X5806421Y3712847D01*
X5804000Y3737425D01*
X5804000Y5040000D01*
X9235693Y5040000D01*
X9254891Y4796071D01*
X9256045Y4791264D01*
X9256046Y4791258D01*
X9285072Y4670358D01*
X9312011Y4558148D01*
X9313904Y4553577D01*
X9313905Y4553575D01*
X9389796Y4370358D01*
X9405647Y4332089D01*
X9533494Y4123462D01*
X9692403Y3937403D01*
X9878462Y3778494D01*
X10087089Y3650647D01*
X10091659Y3648754D01*
X10091663Y3648752D01*
X10308575Y3558905D01*
X10313148Y3557011D01*
X10395452Y3537252D01*
X10546258Y3501046D01*
X10546264Y3501045D01*
X10551071Y3499891D01*
X10795000Y3480693D01*
X11038929Y3499891D01*
X11043736Y3501045D01*
X11043742Y3501046D01*
X11194548Y3537252D01*
X11276852Y3557011D01*
X11281425Y3558905D01*
X11498337Y3648752D01*
X11498341Y3648754D01*
X11502911Y3650647D01*
X11711538Y3778494D01*
X11897597Y3937403D01*
X12056506Y4123462D01*
X12184353Y4332089D01*
X12200205Y4370358D01*
X12276095Y4553575D01*
X12276096Y4553577D01*
X12277989Y4558148D01*
X12304928Y4670358D01*
X12333954Y4791258D01*
X12333955Y4791264D01*
X12335109Y4796071D01*
X12347224Y4950000D01*
X16640715Y4950000D01*
X16659772Y4805246D01*
X16715645Y4670358D01*
X16804526Y4554526D01*
X16811076Y4549500D01*
X16811079Y4549497D01*
X16913804Y4470673D01*
X16920357Y4465645D01*
X17055246Y4409772D01*
X17200000Y4390715D01*
X17208188Y4391793D01*
X17336566Y4408694D01*
X17344754Y4409772D01*
X17479643Y4465645D01*
X17486196Y4470673D01*
X17588921Y4549497D01*
X17588924Y4549500D01*
X17595474Y4554526D01*
X17668734Y4650000D01*
X18140715Y4650000D01*
X18159772Y4505246D01*
X18162931Y4497620D01*
X18207213Y4390715D01*
X18215645Y4370358D01*
X18304526Y4254526D01*
X18311076Y4249500D01*
X18311079Y4249497D01*
X18413804Y4170673D01*
X18420357Y4165645D01*
X18555246Y4109772D01*
X18700000Y4090715D01*
X18708188Y4091793D01*
X18836566Y4108694D01*
X18844754Y4109772D01*
X18979643Y4165645D01*
X19073296Y4237508D01*
X19139516Y4263109D01*
X19209065Y4248844D01*
X19226705Y4237508D01*
X19320357Y4165645D01*
X19455246Y4109772D01*
X19600000Y4090715D01*
X19608188Y4091793D01*
X19736566Y4108694D01*
X19744754Y4109772D01*
X19879643Y4165645D01*
X19886196Y4170673D01*
X19988921Y4249497D01*
X19988924Y4249500D01*
X19995474Y4254526D01*
X20084355Y4370358D01*
X20092788Y4390715D01*
X20137069Y4497620D01*
X20140228Y4505246D01*
X20159285Y4650000D01*
X20140228Y4794754D01*
X20084355Y4929642D01*
X19995474Y5045474D01*
X19988924Y5050500D01*
X19988921Y5050503D01*
X19886196Y5129327D01*
X19886193Y5129329D01*
X19879643Y5134355D01*
X19744754Y5190228D01*
X19600000Y5209285D01*
X19591812Y5208207D01*
X19463432Y5191306D01*
X19463430Y5191305D01*
X19455246Y5190228D01*
X19407430Y5170422D01*
X19327986Y5137515D01*
X19327984Y5137514D01*
X19320358Y5134355D01*
X19268749Y5094754D01*
X19226703Y5062491D01*
X19160483Y5036891D01*
X19090934Y5051156D01*
X19073306Y5062484D01*
X18979643Y5134355D01*
X18844754Y5190228D01*
X18700000Y5209285D01*
X18691812Y5208207D01*
X18563432Y5191306D01*
X18563430Y5191305D01*
X18555246Y5190228D01*
X18507430Y5170422D01*
X18427986Y5137515D01*
X18427984Y5137514D01*
X18420358Y5134355D01*
X18304526Y5045474D01*
X18215645Y4929642D01*
X18159772Y4794754D01*
X18140715Y4650000D01*
X17668734Y4650000D01*
X17684355Y4670358D01*
X17740228Y4805246D01*
X17759285Y4950000D01*
X17756071Y4974414D01*
X17741306Y5086568D01*
X17741305Y5086570D01*
X17740228Y5094754D01*
X17701990Y5187068D01*
X17687515Y5222014D01*
X17687514Y5222016D01*
X17684355Y5229642D01*
X17595474Y5345474D01*
X17588924Y5350500D01*
X17588921Y5350503D01*
X17486196Y5429327D01*
X17486194Y5429328D01*
X17479643Y5434355D01*
X17344754Y5490228D01*
X17200000Y5509285D01*
X17191812Y5508207D01*
X17063432Y5491306D01*
X17063430Y5491305D01*
X17055246Y5490228D01*
X17007430Y5470422D01*
X16927986Y5437515D01*
X16927984Y5437514D01*
X16920358Y5434355D01*
X16804526Y5345474D01*
X16715645Y5229642D01*
X16712486Y5222016D01*
X16712485Y5222014D01*
X16698010Y5187068D01*
X16659772Y5094754D01*
X16658695Y5086570D01*
X16658694Y5086568D01*
X16643929Y4974414D01*
X16640715Y4950000D01*
X12347224Y4950000D01*
X12354307Y5040000D01*
X12335109Y5283929D01*
X12320334Y5345474D01*
X12286340Y5487068D01*
X12277989Y5521852D01*
X12184353Y5747911D01*
X12056506Y5956538D01*
X11897597Y6142597D01*
X11711538Y6301506D01*
X11502911Y6429353D01*
X11498341Y6431246D01*
X11498337Y6431248D01*
X11281425Y6521095D01*
X11281423Y6521096D01*
X11276852Y6522989D01*
X11194548Y6542748D01*
X11043742Y6578954D01*
X11043736Y6578955D01*
X11038929Y6580109D01*
X10795000Y6599307D01*
X10551071Y6580109D01*
X10546264Y6578955D01*
X10546258Y6578954D01*
X10395452Y6542748D01*
X10313148Y6522989D01*
X10308577Y6521096D01*
X10308575Y6521095D01*
X10091663Y6431248D01*
X10091659Y6431246D01*
X10087089Y6429353D01*
X9878462Y6301506D01*
X9692403Y6142597D01*
X9533494Y5956538D01*
X9405647Y5747911D01*
X9312011Y5521852D01*
X9303660Y5487068D01*
X9269667Y5345474D01*
X9254891Y5283929D01*
X9235693Y5040000D01*
X5804000Y5040000D01*
X5804000Y8675094D01*
X9714839Y8675094D01*
X9723553Y8663573D01*
X9830452Y8585191D01*
X9838351Y8580255D01*
X10067905Y8459481D01*
X10076454Y8455764D01*
X10321327Y8370251D01*
X10330336Y8367837D01*
X10585166Y8319456D01*
X10594423Y8318402D01*
X10853607Y8308217D01*
X10862921Y8308543D01*
X11120753Y8336780D01*
X11129930Y8338481D01*
X11380758Y8404519D01*
X11389574Y8407555D01*
X11627880Y8509938D01*
X11636167Y8514252D01*
X11856718Y8650734D01*
X11864268Y8656220D01*
X11869559Y8660699D01*
X11877997Y8673503D01*
X11871935Y8683855D01*
X10807812Y9747978D01*
X10793868Y9755592D01*
X10792035Y9755461D01*
X10785420Y9751210D01*
X9721497Y8687287D01*
X9714839Y8675094D01*
X5804000Y8675094D01*
X5804000Y10162789D01*
X8982775Y10162789D01*
X8995220Y9903712D01*
X8996356Y9894457D01*
X9046961Y9640055D01*
X9049449Y9631083D01*
X9137095Y9386967D01*
X9140895Y9378432D01*
X9263658Y9149958D01*
X9268666Y9142096D01*
X9338720Y9048284D01*
X9349979Y9039835D01*
X9362397Y9046607D01*
X10422978Y10107188D01*
X10429356Y10118868D01*
X11159408Y10118868D01*
X11159539Y10117035D01*
X11163790Y10110420D01*
X12231094Y9043116D01*
X12243474Y9036356D01*
X12251815Y9042600D01*
X12385832Y9250952D01*
X12390275Y9259136D01*
X12496807Y9495630D01*
X12499997Y9504395D01*
X12570402Y9754028D01*
X12572262Y9763170D01*
X12605187Y10021981D01*
X12605668Y10028267D01*
X12607987Y10116840D01*
X12607836Y10123149D01*
X12588501Y10383337D01*
X12587125Y10392543D01*
X12529878Y10645533D01*
X12527154Y10654444D01*
X12433143Y10896194D01*
X12429132Y10904603D01*
X12300422Y11129798D01*
X12295211Y11137524D01*
X12251996Y11192342D01*
X12240071Y11200813D01*
X12228537Y11194327D01*
X11167022Y10132812D01*
X11159408Y10118868D01*
X10429356Y10118868D01*
X10430592Y10121132D01*
X10430461Y10122965D01*
X10426210Y10129580D01*
X9360816Y11194974D01*
X9347507Y11202242D01*
X9337472Y11195122D01*
X9321937Y11176444D01*
X9316531Y11168865D01*
X9181965Y10947109D01*
X9177736Y10938808D01*
X9077432Y10699611D01*
X9074471Y10690761D01*
X9010628Y10439375D01*
X9009006Y10430178D01*
X8983020Y10172115D01*
X8982775Y10162789D01*
X5804000Y10162789D01*
X5804000Y11567311D01*
X9712102Y11567311D01*
X9716675Y11557535D01*
X10782188Y10492022D01*
X10796132Y10484408D01*
X10797965Y10484539D01*
X10804580Y10488790D01*
X11869349Y11553559D01*
X11875733Y11565249D01*
X11866321Y11577359D01*
X11719045Y11679529D01*
X11711010Y11684262D01*
X11478376Y11798984D01*
X11469743Y11802472D01*
X11222703Y11881550D01*
X11213643Y11883726D01*
X10957630Y11925420D01*
X10948343Y11926232D01*
X10688992Y11929627D01*
X10679681Y11929057D01*
X10422682Y11894081D01*
X10413546Y11892140D01*
X10164543Y11819561D01*
X10155800Y11816293D01*
X9920252Y11707704D01*
X9912097Y11703184D01*
X9721240Y11578053D01*
X9712102Y11567311D01*
X5804000Y11567311D01*
X5804000Y15200000D01*
X9235693Y15200000D01*
X9254891Y14956071D01*
X9256045Y14951264D01*
X9256046Y14951258D01*
X9291101Y14805246D01*
X9312011Y14718148D01*
X9313904Y14713577D01*
X9313905Y14713575D01*
X9393938Y14520358D01*
X9405647Y14492089D01*
X9533494Y14283462D01*
X9692403Y14097403D01*
X9878462Y13938494D01*
X10087089Y13810647D01*
X10091659Y13808754D01*
X10091663Y13808752D01*
X10308575Y13718905D01*
X10313148Y13717011D01*
X10395452Y13697252D01*
X10546258Y13661046D01*
X10546264Y13661045D01*
X10551071Y13659891D01*
X10795000Y13640693D01*
X11038929Y13659891D01*
X11043736Y13661045D01*
X11043742Y13661046D01*
X11194548Y13697252D01*
X11276852Y13717011D01*
X11281425Y13718905D01*
X11498337Y13808752D01*
X11498341Y13808754D01*
X11502911Y13810647D01*
X11711538Y13938494D01*
X11897597Y14097403D01*
X12056506Y14283462D01*
X12184353Y14492089D01*
X12196063Y14520358D01*
X12276095Y14713575D01*
X12276096Y14713577D01*
X12277989Y14718148D01*
X12298899Y14805246D01*
X12333954Y14951258D01*
X12333955Y14951264D01*
X12335109Y14956071D01*
X12354307Y15200000D01*
X12335109Y15443929D01*
X12319419Y15509285D01*
X12279144Y15677040D01*
X12277989Y15681852D01*
X12184353Y15907911D01*
X12056506Y16116538D01*
X11897597Y16302597D01*
X11711538Y16461506D01*
X11502911Y16589353D01*
X11498341Y16591246D01*
X11498337Y16591248D01*
X11281425Y16681095D01*
X11281423Y16681096D01*
X11276852Y16682989D01*
X11194548Y16702748D01*
X11043742Y16738954D01*
X11043736Y16738955D01*
X11038929Y16740109D01*
X10795000Y16759307D01*
X10551071Y16740109D01*
X10546264Y16738955D01*
X10546258Y16738954D01*
X10395452Y16702748D01*
X10313148Y16682989D01*
X10308577Y16681096D01*
X10308575Y16681095D01*
X10091663Y16591248D01*
X10091659Y16591246D01*
X10087089Y16589353D01*
X9878462Y16461506D01*
X9692403Y16302597D01*
X9533494Y16116538D01*
X9405647Y15907911D01*
X9312011Y15681852D01*
X9310856Y15677040D01*
X9270582Y15509285D01*
X9254891Y15443929D01*
X9235693Y15200000D01*
X5804000Y15200000D01*
X5804000Y20280000D01*
X9235693Y20280000D01*
X9254891Y20036071D01*
X9256045Y20031264D01*
X9256046Y20031258D01*
X9279311Y19934355D01*
X9312011Y19798148D01*
X9313904Y19793577D01*
X9313905Y19793575D01*
X9356032Y19691872D01*
X9405647Y19572089D01*
X9533494Y19363462D01*
X9692403Y19177403D01*
X9878462Y19018494D01*
X10087089Y18890647D01*
X10091659Y18888754D01*
X10091663Y18888752D01*
X10308575Y18798905D01*
X10313148Y18797011D01*
X10395452Y18777252D01*
X10546258Y18741046D01*
X10546264Y18741045D01*
X10551071Y18739891D01*
X10795000Y18720693D01*
X11038929Y18739891D01*
X11043736Y18741045D01*
X11043742Y18741046D01*
X11194548Y18777252D01*
X11276852Y18797011D01*
X11281425Y18798905D01*
X11498337Y18888752D01*
X11498341Y18888754D01*
X11502911Y18890647D01*
X11711538Y19018494D01*
X11897597Y19177403D01*
X12056506Y19363462D01*
X12184353Y19572089D01*
X12233969Y19691872D01*
X12276095Y19793575D01*
X12276096Y19793577D01*
X12277989Y19798148D01*
X12310689Y19934355D01*
X12333954Y20031258D01*
X12333955Y20031264D01*
X12335109Y20036071D01*
X12354307Y20280000D01*
X12335109Y20523929D01*
X12318106Y20594754D01*
X12279144Y20757040D01*
X12277989Y20761852D01*
X12243352Y20845474D01*
X12186248Y20983337D01*
X12186246Y20983341D01*
X12184353Y20987911D01*
X12056506Y21196538D01*
X11897597Y21382597D01*
X11711538Y21541506D01*
X11502911Y21669353D01*
X11498341Y21671246D01*
X11498337Y21671248D01*
X11281425Y21761095D01*
X11281423Y21761096D01*
X11276852Y21762989D01*
X11194548Y21782748D01*
X11043742Y21818954D01*
X11043736Y21818955D01*
X11038929Y21820109D01*
X10795000Y21839307D01*
X10551071Y21820109D01*
X10546264Y21818955D01*
X10546258Y21818954D01*
X10395452Y21782748D01*
X10313148Y21762989D01*
X10308577Y21761096D01*
X10308575Y21761095D01*
X10091663Y21671248D01*
X10091659Y21671246D01*
X10087089Y21669353D01*
X9878462Y21541506D01*
X9692403Y21382597D01*
X9533494Y21196538D01*
X9405647Y20987911D01*
X9403754Y20983341D01*
X9403752Y20983337D01*
X9346648Y20845474D01*
X9312011Y20761852D01*
X9310856Y20757040D01*
X9271895Y20594754D01*
X9254891Y20523929D01*
X9235693Y20280000D01*
X5804000Y20280000D01*
X5804000Y24015331D01*
X8987001Y24015331D01*
X8987371Y24008510D01*
X8992895Y23957648D01*
X8996521Y23942396D01*
X9041676Y23821946D01*
X9050214Y23806351D01*
X9126715Y23704276D01*
X9139276Y23691715D01*
X9241351Y23615214D01*
X9256946Y23606676D01*
X9377394Y23561522D01*
X9392649Y23557895D01*
X9443514Y23552369D01*
X9450328Y23552000D01*
X10522885Y23552000D01*
X10538124Y23556475D01*
X10539329Y23557865D01*
X10541000Y23565548D01*
X10541000Y23570116D01*
X11049000Y23570116D01*
X11053475Y23554877D01*
X11054865Y23553672D01*
X11062548Y23552001D01*
X12139669Y23552001D01*
X12146490Y23552371D01*
X12197352Y23557895D01*
X12212604Y23561521D01*
X12333054Y23606676D01*
X12348649Y23615214D01*
X12450724Y23691715D01*
X12463285Y23704276D01*
X12539786Y23806351D01*
X12548324Y23821946D01*
X12593478Y23942394D01*
X12597105Y23957649D01*
X12602631Y24008514D01*
X12603000Y24015328D01*
X12603000Y25087885D01*
X12598525Y25103124D01*
X12597135Y25104329D01*
X12589452Y25106000D01*
X11067115Y25106000D01*
X11051876Y25101525D01*
X11050671Y25100135D01*
X11049000Y25092452D01*
X11049000Y23570116D01*
X10541000Y23570116D01*
X10541000Y25087885D01*
X10536525Y25103124D01*
X10535135Y25104329D01*
X10527452Y25106000D01*
X9005116Y25106000D01*
X8989877Y25101525D01*
X8988672Y25100135D01*
X8987001Y25092452D01*
X8987001Y24015331D01*
X5804000Y24015331D01*
X5804000Y25632115D01*
X8987000Y25632115D01*
X8991475Y25616876D01*
X8992865Y25615671D01*
X9000548Y25614000D01*
X10522885Y25614000D01*
X10538124Y25618475D01*
X10539329Y25619865D01*
X10541000Y25627548D01*
X10541000Y25632115D01*
X11049000Y25632115D01*
X11053475Y25616876D01*
X11054865Y25615671D01*
X11062548Y25614000D01*
X12584884Y25614000D01*
X12600123Y25618475D01*
X12601328Y25619865D01*
X12602999Y25627548D01*
X12602999Y26704669D01*
X12602629Y26711490D01*
X12597105Y26762352D01*
X12593479Y26777604D01*
X12548324Y26898054D01*
X12539786Y26913649D01*
X12463285Y27015724D01*
X12450724Y27028285D01*
X12348649Y27104786D01*
X12333054Y27113324D01*
X12212606Y27158478D01*
X12197351Y27162105D01*
X12146486Y27167631D01*
X12139672Y27168000D01*
X11067115Y27168000D01*
X11051876Y27163525D01*
X11050671Y27162135D01*
X11049000Y27154452D01*
X11049000Y25632115D01*
X10541000Y25632115D01*
X10541000Y27149884D01*
X10536525Y27165123D01*
X10535135Y27166328D01*
X10527452Y27167999D01*
X9450331Y27167999D01*
X9443510Y27167629D01*
X9392648Y27162105D01*
X9377396Y27158479D01*
X9256946Y27113324D01*
X9241351Y27104786D01*
X9139276Y27028285D01*
X9126715Y27015724D01*
X9050214Y26913649D01*
X9041676Y26898054D01*
X8996522Y26777606D01*
X8992895Y26762351D01*
X8987369Y26711486D01*
X8987000Y26704672D01*
X8987000Y25632115D01*
X5804000Y25632115D01*
X5804000Y28185108D01*
X5806421Y28209689D01*
X5806555Y28210363D01*
X5808976Y28222533D01*
X5806555Y28234704D01*
X5806555Y28247115D01*
X5806882Y28247115D01*
X5806144Y28257951D01*
X5819942Y28485866D01*
X5821779Y28500982D01*
X5867997Y28752975D01*
X5871643Y28767751D01*
X5916481Y28911516D01*
X5955858Y28970592D01*
X6020923Y28999000D01*
X6036766Y29000000D01*
X16774000Y29000000D01*
X16842121Y28979998D01*
G37*
%TD.AperFunction*%
%TD*%
M02*
