%TF.GenerationSoftware,KiCad,Pcbnew,(6.0.0-0)*%
%TF.CreationDate,2022-12-06T19:34:54+01:00*%
%TF.ProjectId,esp32-led,65737033-322d-46c6-9564-2e6b69636164,rev?*%
%TF.SameCoordinates,Original*%
%TF.FileFunction,Copper,L1,Top*%
%TF.FilePolarity,Positive*%
%FSLAX46Y46*%
G04 Gerber Fmt 4.6, Leading zero omitted, Abs format (unit mm)*
G04 Created by KiCad (PCBNEW (6.0.0-0)) date 2022-12-06 19:34:54*
%MOMM*%
%LPD*%
G01*
G04 APERTURE LIST*
G04 Aperture macros list*
%AMRoundRect*
0 Rectangle with rounded corners*
0 $1 Rounding radius*
0 $2 $3 $4 $5 $6 $7 $8 $9 X,Y pos of 4 corners*
0 Add a 4 corners polygon primitive as box body*
4,1,4,$2,$3,$4,$5,$6,$7,$8,$9,$2,$3,0*
0 Add four circle primitives for the rounded corners*
1,1,$1+$1,$2,$3*
1,1,$1+$1,$4,$5*
1,1,$1+$1,$6,$7*
1,1,$1+$1,$8,$9*
0 Add four rect primitives between the rounded corners*
20,1,$1+$1,$2,$3,$4,$5,0*
20,1,$1+$1,$4,$5,$6,$7,0*
20,1,$1+$1,$6,$7,$8,$9,0*
20,1,$1+$1,$8,$9,$2,$3,0*%
G04 Aperture macros list end*
%TA.AperFunction,SMDPad,CuDef*%
%ADD10RoundRect,0.140000X-0.140000X-0.170000X0.140000X-0.170000X0.140000X0.170000X-0.140000X0.170000X0*%
%TD*%
%TA.AperFunction,ComponentPad*%
%ADD11R,2.600000X2.600000*%
%TD*%
%TA.AperFunction,ComponentPad*%
%ADD12C,2.600000*%
%TD*%
%TA.AperFunction,SMDPad,CuDef*%
%ADD13RoundRect,0.200000X0.200000X0.700000X-0.200000X0.700000X-0.200000X-0.700000X0.200000X-0.700000X0*%
%TD*%
%TA.AperFunction,SMDPad,CuDef*%
%ADD14R,1.200000X1.400000*%
%TD*%
%TA.AperFunction,SMDPad,CuDef*%
%ADD15R,1.000000X1.400000*%
%TD*%
%TA.AperFunction,SMDPad,CuDef*%
%ADD16RoundRect,0.062500X0.062500X-0.350000X0.062500X0.350000X-0.062500X0.350000X-0.062500X-0.350000X0*%
%TD*%
%TA.AperFunction,SMDPad,CuDef*%
%ADD17RoundRect,0.062500X0.350000X-0.062500X0.350000X0.062500X-0.350000X0.062500X-0.350000X-0.062500X0*%
%TD*%
%TA.AperFunction,ComponentPad*%
%ADD18C,0.600000*%
%TD*%
%TA.AperFunction,SMDPad,CuDef*%
%ADD19R,2.600000X2.600000*%
%TD*%
%TA.AperFunction,SMDPad,CuDef*%
%ADD20R,0.900000X1.700000*%
%TD*%
%TA.AperFunction,SMDPad,CuDef*%
%ADD21RoundRect,0.140000X-0.170000X0.140000X-0.170000X-0.140000X0.170000X-0.140000X0.170000X0.140000X0*%
%TD*%
%TA.AperFunction,ComponentPad*%
%ADD22C,4.400000*%
%TD*%
%TA.AperFunction,SMDPad,CuDef*%
%ADD23RoundRect,0.135000X-0.185000X0.135000X-0.185000X-0.135000X0.185000X-0.135000X0.185000X0.135000X0*%
%TD*%
%TA.AperFunction,SMDPad,CuDef*%
%ADD24RoundRect,0.135000X0.135000X0.185000X-0.135000X0.185000X-0.135000X-0.185000X0.135000X-0.185000X0*%
%TD*%
%TA.AperFunction,SMDPad,CuDef*%
%ADD25RoundRect,0.140000X0.140000X0.170000X-0.140000X0.170000X-0.140000X-0.170000X0.140000X-0.170000X0*%
%TD*%
%TA.AperFunction,SMDPad,CuDef*%
%ADD26R,1.000000X2.000000*%
%TD*%
%TA.AperFunction,SMDPad,CuDef*%
%ADD27R,0.520000X1.000000*%
%TD*%
%TA.AperFunction,SMDPad,CuDef*%
%ADD28R,0.270000X1.000000*%
%TD*%
%TA.AperFunction,ComponentPad*%
%ADD29O,1.300000X2.300000*%
%TD*%
%TA.AperFunction,ComponentPad*%
%ADD30O,1.300000X2.600000*%
%TD*%
%TA.AperFunction,SMDPad,CuDef*%
%ADD31R,3.750000X3.750000*%
%TD*%
%TA.AperFunction,SMDPad,CuDef*%
%ADD32R,0.800000X0.150000*%
%TD*%
%TA.AperFunction,SMDPad,CuDef*%
%ADD33R,0.150000X0.800000*%
%TD*%
%TA.AperFunction,SMDPad,CuDef*%
%ADD34RoundRect,0.225000X-0.250000X0.225000X-0.250000X-0.225000X0.250000X-0.225000X0.250000X0.225000X0*%
%TD*%
%TA.AperFunction,SMDPad,CuDef*%
%ADD35RoundRect,0.135000X0.185000X-0.135000X0.185000X0.135000X-0.185000X0.135000X-0.185000X-0.135000X0*%
%TD*%
%TA.AperFunction,SMDPad,CuDef*%
%ADD36RoundRect,0.250000X1.500000X-0.250000X1.500000X0.250000X-1.500000X0.250000X-1.500000X-0.250000X0*%
%TD*%
%TA.AperFunction,SMDPad,CuDef*%
%ADD37RoundRect,0.250001X1.449999X-0.499999X1.449999X0.499999X-1.449999X0.499999X-1.449999X-0.499999X0*%
%TD*%
%TA.AperFunction,SMDPad,CuDef*%
%ADD38RoundRect,0.250000X0.350000X0.450000X-0.350000X0.450000X-0.350000X-0.450000X0.350000X-0.450000X0*%
%TD*%
%TA.AperFunction,SMDPad,CuDef*%
%ADD39RoundRect,0.147500X-0.172500X0.147500X-0.172500X-0.147500X0.172500X-0.147500X0.172500X0.147500X0*%
%TD*%
%TA.AperFunction,SMDPad,CuDef*%
%ADD40R,0.650000X0.400000*%
%TD*%
%TA.AperFunction,SMDPad,CuDef*%
%ADD41R,2.000000X1.500000*%
%TD*%
%TA.AperFunction,SMDPad,CuDef*%
%ADD42R,2.000000X3.800000*%
%TD*%
%TA.AperFunction,ViaPad*%
%ADD43C,0.600000*%
%TD*%
%TA.AperFunction,ViaPad*%
%ADD44C,0.685800*%
%TD*%
%TA.AperFunction,ViaPad*%
%ADD45C,0.889000*%
%TD*%
%TA.AperFunction,Conductor*%
%ADD46C,0.261112*%
%TD*%
%TA.AperFunction,Conductor*%
%ADD47C,0.293370*%
%TD*%
%TA.AperFunction,Conductor*%
%ADD48C,0.127000*%
%TD*%
%TA.AperFunction,Conductor*%
%ADD49C,0.254000*%
%TD*%
%TA.AperFunction,Conductor*%
%ADD50C,0.152400*%
%TD*%
%TA.AperFunction,Conductor*%
%ADD51C,0.508000*%
%TD*%
G04 APERTURE END LIST*
D10*
%TO.P,C1,1*%
%TO.N,/ESP32-U4WDH/ANTENNA*%
X24585000Y27175000D03*
%TO.P,C1,2*%
%TO.N,GND*%
X25545000Y27175000D03*
%TD*%
D11*
%TO.P,J2,1,Pin_1*%
%TO.N,+5V*%
X10795000Y25360000D03*
D12*
%TO.P,J2,2,Pin_2*%
%TO.N,GPIO26*%
X10795000Y20280000D03*
%TO.P,J2,3,Pin_3*%
%TO.N,GND*%
X10795000Y15200000D03*
%TO.P,J2,4,Pin_4*%
%TO.N,+5V*%
X10795000Y10120000D03*
%TO.P,J2,5,Pin_5*%
%TO.N,GND*%
X10795000Y5040000D03*
%TD*%
D13*
%TO.P,A1,1,Feed-In*%
%TO.N,/ESP32-U4WDH/ANTENNA*%
X23120000Y27175000D03*
%TO.P,A1,2,NC*%
%TO.N,unconnected-(A1-Pad2)*%
X20120000Y27175000D03*
%TD*%
D14*
%TO.P,D1,1,A*%
%TO.N,GND*%
X29470000Y11800000D03*
D15*
%TO.P,D1,2,K*%
%TO.N,+5V*%
X27750000Y11800000D03*
%TO.P,D1,3,K*%
%TO.N,D-*%
X27750000Y9600000D03*
%TO.P,D1,4,K*%
%TO.N,D+*%
X29650000Y9600000D03*
%TD*%
D16*
%TO.P,U1,1,~{RI}/CLK*%
%TO.N,unconnected-(U1-Pad1)*%
X32730000Y10962500D03*
%TO.P,U1,2,GND*%
%TO.N,GND*%
X33230000Y10962500D03*
%TO.P,U1,3,D+*%
%TO.N,D+*%
X33730000Y10962500D03*
%TO.P,U1,4,D-*%
%TO.N,D-*%
X34230000Y10962500D03*
%TO.P,U1,5,VIO*%
%TO.N,+3V3*%
X34730000Y10962500D03*
%TO.P,U1,6,VDD*%
X35230000Y10962500D03*
D17*
%TO.P,U1,7,VREGIN*%
X35917500Y11650000D03*
%TO.P,U1,8,VBUS*%
X35917500Y12150000D03*
%TO.P,U1,9,~{RST}*%
%TO.N,/USB to UART /RST*%
X35917500Y12650000D03*
%TO.P,U1,10,NC*%
%TO.N,unconnected-(U1-Pad10)*%
X35917500Y13150000D03*
%TO.P,U1,11,~{WAKEUP}/GPIO.3*%
%TO.N,unconnected-(U1-Pad11)*%
X35917500Y13650000D03*
%TO.P,U1,12,RS485/GPIO.2*%
%TO.N,unconnected-(U1-Pad12)*%
X35917500Y14150000D03*
D16*
%TO.P,U1,13,~{RXT}/GPIO.1*%
%TO.N,unconnected-(U1-Pad13)*%
X35230000Y14837500D03*
%TO.P,U1,14,~{TXT}/GPIO.0*%
%TO.N,unconnected-(U1-Pad14)*%
X34730000Y14837500D03*
%TO.P,U1,15,~{SUSPEND}*%
%TO.N,unconnected-(U1-Pad15)*%
X34230000Y14837500D03*
%TO.P,U1,16,NC*%
%TO.N,unconnected-(U1-Pad16)*%
X33730000Y14837500D03*
%TO.P,U1,17,SUSPEND*%
%TO.N,unconnected-(U1-Pad17)*%
X33230000Y14837500D03*
%TO.P,U1,18,~{CTS}*%
%TO.N,unconnected-(U1-Pad18)*%
X32730000Y14837500D03*
D17*
%TO.P,U1,19,~{RTS}*%
%TO.N,/USB to UART /RTS*%
X32042500Y14150000D03*
%TO.P,U1,20,RXD*%
%TO.N,U0TXD*%
X32042500Y13650000D03*
%TO.P,U1,21,TXD*%
%TO.N,/USB to UART /TXD*%
X32042500Y13150000D03*
%TO.P,U1,22,~{DSR}*%
%TO.N,unconnected-(U1-Pad22)*%
X32042500Y12650000D03*
%TO.P,U1,23,~{DTR}*%
%TO.N,/USB to UART /DTR*%
X32042500Y12150000D03*
%TO.P,U1,24,~{DCD}*%
%TO.N,unconnected-(U1-Pad24)*%
X32042500Y11650000D03*
D18*
%TO.P,U1,25,GND*%
%TO.N,GND*%
X34730000Y13650000D03*
X33980000Y12900000D03*
X33230000Y13650000D03*
X33230000Y12150000D03*
X34730000Y12150000D03*
D19*
X33980000Y12900000D03*
%TD*%
D20*
%TO.P,SW1,1,1*%
%TO.N,EN*%
X21200000Y3350000D03*
%TO.P,SW1,2,2*%
%TO.N,GND*%
X24600000Y3350000D03*
%TD*%
D21*
%TO.P,C7,1*%
%TO.N,+3V3*%
X26250000Y14480000D03*
%TO.P,C7,2*%
%TO.N,GND*%
X26250000Y13520000D03*
%TD*%
D22*
%TO.P,H1,1,1*%
%TO.N,GND*%
X18300000Y31700000D03*
%TD*%
D23*
%TO.P,R7,1*%
%TO.N,/5V to 3.3V Power/CC1*%
X37400000Y3885000D03*
%TO.P,R7,2*%
%TO.N,GND*%
X37400000Y2865000D03*
%TD*%
D24*
%TO.P,R1,1*%
%TO.N,+3V3*%
X22230000Y23190000D03*
%TO.P,R1,2*%
%TO.N,EN*%
X21210000Y23190000D03*
%TD*%
D25*
%TO.P,C3,1*%
%TO.N,EN*%
X20200000Y23190000D03*
%TO.P,C3,2*%
%TO.N,GND*%
X19240000Y23190000D03*
%TD*%
D26*
%TO.P,J1,*%
%TO.N,*%
X32700000Y2750000D03*
X29900000Y2750000D03*
D27*
%TO.P,J1,A1,GND*%
%TO.N,GND*%
X28200000Y6950000D03*
%TO.P,J1,A4,VBUS*%
%TO.N,/5V to 3.3V Power/VBUS*%
X28950000Y6950000D03*
D28*
%TO.P,J1,A5,CC1*%
%TO.N,/5V to 3.3V Power/CC1*%
X29550000Y6950000D03*
%TO.P,J1,A6,D+*%
%TO.N,D+*%
X31050000Y6950000D03*
%TO.P,J1,A7,D-*%
%TO.N,D-*%
X32050000Y6950000D03*
%TO.P,J1,A8,SBU1*%
%TO.N,unconnected-(J1-PadA8)*%
X33050000Y6950000D03*
D27*
%TO.P,J1,A9,VBUS*%
%TO.N,/5V to 3.3V Power/VBUS*%
X33650000Y6950000D03*
%TO.P,J1,A12,GND*%
%TO.N,GND*%
X34400000Y6950000D03*
%TO.P,J1,B1,GND*%
X34400000Y6950000D03*
%TO.P,J1,B4,VBUS*%
%TO.N,/5V to 3.3V Power/VBUS*%
X33650000Y6950000D03*
D28*
%TO.P,J1,B5,CC2*%
%TO.N,/5V to 3.3V Power/CC2*%
X32550000Y6950000D03*
%TO.P,J1,B6,D+*%
%TO.N,D+*%
X31550000Y6950000D03*
%TO.P,J1,B7,D-*%
%TO.N,D-*%
X30550000Y6950000D03*
%TO.P,J1,B8,SBU2*%
%TO.N,unconnected-(J1-PadB8)*%
X30050000Y6950000D03*
D27*
%TO.P,J1,B9,VBUS*%
%TO.N,/5V to 3.3V Power/VBUS*%
X28950000Y6950000D03*
%TO.P,J1,B12,GND*%
%TO.N,GND*%
X28200000Y6950000D03*
D29*
%TO.P,J1,S1,SHIELD*%
X35620000Y6575000D03*
D30*
X35620000Y2750000D03*
X26980000Y2750000D03*
D29*
X26980000Y6575000D03*
%TD*%
D24*
%TO.P,R2,1*%
%TO.N,/ESP32-U4WDH/MTDI*%
X18150000Y19980000D03*
%TO.P,R2,2*%
%TO.N,GND*%
X17130000Y19980000D03*
%TD*%
D18*
%TO.P,IC1,49,EP*%
%TO.N,GND*%
X21925000Y18450000D03*
X20925000Y20450000D03*
X21925000Y19450000D03*
X22925000Y19450000D03*
X21925000Y20450000D03*
X22925000Y20450000D03*
D31*
X21925000Y19450000D03*
D18*
X20925000Y19450000D03*
X20925000Y18450000D03*
X22925000Y18450000D03*
D32*
%TO.P,IC1,48,CAP1*%
%TO.N,unconnected-(IC1-Pad48)*%
X24425000Y21025000D03*
%TO.P,IC1,47,CAP2*%
%TO.N,unconnected-(IC1-Pad47)*%
X24425000Y20675000D03*
%TO.P,IC1,46,VDDA_3*%
%TO.N,+3V3*%
X24425000Y20325000D03*
%TO.P,IC1,45,XTAL_P*%
%TO.N,unconnected-(IC1-Pad45)*%
X24425000Y19975000D03*
%TO.P,IC1,44,XTAL_N*%
%TO.N,unconnected-(IC1-Pad44)*%
X24425000Y19625000D03*
%TO.P,IC1,43,VDDA_2*%
%TO.N,+3V3*%
X24425000Y19275000D03*
%TO.P,IC1,42,GPIO21*%
%TO.N,unconnected-(IC1-Pad42)*%
X24425000Y18925000D03*
%TO.P,IC1,41,U0TXD*%
%TO.N,U0TXD*%
X24425000Y18575000D03*
%TO.P,IC1,40,U0RXD*%
%TO.N,U0RXD*%
X24425000Y18225000D03*
%TO.P,IC1,39,GPIO22*%
%TO.N,unconnected-(IC1-Pad39)*%
X24425000Y17875000D03*
D33*
%TO.P,IC1,38,GPIO19*%
%TO.N,unconnected-(IC1-Pad38)*%
X24200000Y16900000D03*
%TO.P,IC1,37,VDD3P3_CPU*%
%TO.N,+3V3*%
X23850000Y16900000D03*
%TO.P,IC1,36,GPIO23*%
%TO.N,SDA*%
X23500000Y16900000D03*
%TO.P,IC1,35,GPIO18*%
%TO.N,SCL*%
X23150000Y16900000D03*
%TO.P,IC1,34,GPIO5*%
%TO.N,unconnected-(IC1-Pad34)*%
X22800000Y16900000D03*
%TO.P,IC1,33,SD_DATA_1*%
%TO.N,unconnected-(IC1-Pad33)*%
X22450000Y16900000D03*
%TO.P,IC1,32,SD_DATA_0*%
%TO.N,unconnected-(IC1-Pad32)*%
X22100000Y16900000D03*
%TO.P,IC1,31,SD_CLK*%
%TO.N,unconnected-(IC1-Pad31)*%
X21750000Y16900000D03*
%TO.P,IC1,30,SD_CMD*%
%TO.N,unconnected-(IC1-Pad30)*%
X21400000Y16900000D03*
%TO.P,IC1,29,SD_DATA_3*%
%TO.N,unconnected-(IC1-Pad29)*%
X21050000Y16900000D03*
%TO.P,IC1,28,SD_DATA_2*%
%TO.N,unconnected-(IC1-Pad28)*%
X20700000Y16900000D03*
%TO.P,IC1,27,GPIO17*%
%TO.N,unconnected-(IC1-Pad27)*%
X20350000Y16900000D03*
%TO.P,IC1,26,VDD_SDIO*%
%TO.N,unconnected-(IC1-Pad26)*%
X20000000Y16900000D03*
%TO.P,IC1,25,GPIO16*%
%TO.N,unconnected-(IC1-Pad25)*%
X19650000Y16900000D03*
D32*
%TO.P,IC1,24,GPIO4*%
%TO.N,unconnected-(IC1-Pad24)*%
X19425000Y17875000D03*
%TO.P,IC1,23,GPIO0*%
%TO.N,GPIO0*%
X19425000Y18225000D03*
%TO.P,IC1,22,GPIO2*%
%TO.N,unconnected-(IC1-Pad22)*%
X19425000Y18575000D03*
%TO.P,IC1,21,MTDO*%
%TO.N,unconnected-(IC1-Pad21)*%
X19425000Y18925000D03*
%TO.P,IC1,20,MTCK*%
%TO.N,unconnected-(IC1-Pad20)*%
X19425000Y19275000D03*
%TO.P,IC1,19,VDD3P3_RTC*%
%TO.N,+3V3*%
X19425000Y19625000D03*
%TO.P,IC1,18,MTDI*%
%TO.N,/ESP32-U4WDH/MTDI*%
X19425000Y19975000D03*
%TO.P,IC1,17,MTMS*%
%TO.N,unconnected-(IC1-Pad17)*%
X19425000Y20325000D03*
%TO.P,IC1,16,GPIO27*%
%TO.N,unconnected-(IC1-Pad16)*%
X19425000Y20675000D03*
%TO.P,IC1,15,GPIO26*%
%TO.N,GPIO26*%
X19425000Y21025000D03*
D33*
%TO.P,IC1,14,GPIO25*%
%TO.N,unconnected-(IC1-Pad14)*%
X19650000Y22000000D03*
%TO.P,IC1,13,32K_XN*%
%TO.N,unconnected-(IC1-Pad13)*%
X20000000Y22000000D03*
%TO.P,IC1,12,32K_XP*%
%TO.N,unconnected-(IC1-Pad12)*%
X20350000Y22000000D03*
%TO.P,IC1,11,VDET_2*%
%TO.N,unconnected-(IC1-Pad11)*%
X20700000Y22000000D03*
%TO.P,IC1,10,VDET_1*%
%TO.N,unconnected-(IC1-Pad10)*%
X21050000Y22000000D03*
%TO.P,IC1,9,CHIP_PU*%
%TO.N,EN*%
X21400000Y22000000D03*
%TO.P,IC1,8,SENSOR_VN*%
%TO.N,unconnected-(IC1-Pad8)*%
X21750000Y22000000D03*
%TO.P,IC1,7,SENSOR_CAPN*%
%TO.N,unconnected-(IC1-Pad7)*%
X22100000Y22000000D03*
%TO.P,IC1,6,SENSOR_CAPP*%
%TO.N,unconnected-(IC1-Pad6)*%
X22450000Y22000000D03*
%TO.P,IC1,5,SENSOR_VP*%
%TO.N,unconnected-(IC1-Pad5)*%
X22800000Y22000000D03*
%TO.P,IC1,4,VDD3P3_2*%
%TO.N,+3V3*%
X23150000Y22000000D03*
%TO.P,IC1,3,VDD3P3_1*%
X23500000Y22000000D03*
%TO.P,IC1,2,LNA_IN*%
%TO.N,/ESP32-U4WDH/ANTENNA*%
X23850000Y22000000D03*
%TO.P,IC1,1,VDDA_1*%
%TO.N,+3V3*%
X24200000Y22000000D03*
%TD*%
D21*
%TO.P,C8,1*%
%TO.N,+3V3*%
X27350000Y14480000D03*
%TO.P,C8,2*%
%TO.N,GND*%
X27350000Y13520000D03*
%TD*%
%TO.P,C4,1*%
%TO.N,+3V3*%
X37180000Y11680000D03*
%TO.P,C4,2*%
%TO.N,GND*%
X37180000Y10720000D03*
%TD*%
D34*
%TO.P,C6,1*%
%TO.N,+5V*%
X17550000Y7625000D03*
%TO.P,C6,2*%
%TO.N,GND*%
X17550000Y6075000D03*
%TD*%
D35*
%TO.P,R6,1*%
%TO.N,/5V to 3.3V Power/CC2*%
X37400000Y4915000D03*
%TO.P,R6,2*%
%TO.N,GND*%
X37400000Y5935000D03*
%TD*%
D36*
%TO.P,J3,1,Pin_1*%
%TO.N,SCL*%
X30850000Y19200000D03*
%TO.P,J3,2,Pin_2*%
%TO.N,SDA*%
X30850000Y21200000D03*
%TO.P,J3,3,Pin_3*%
%TO.N,+3V3*%
X30850000Y23200000D03*
%TO.P,J3,4,Pin_4*%
%TO.N,GND*%
X30850000Y25200000D03*
D37*
%TO.P,J3,MP*%
%TO.N,N/C*%
X36600000Y27550000D03*
X36600000Y16850000D03*
%TD*%
D38*
%TO.P,R5,1*%
%TO.N,/5V to 3.3V Power/VBUS*%
X22750000Y6750000D03*
%TO.P,R5,2*%
%TO.N,+5V*%
X20750000Y6750000D03*
%TD*%
D10*
%TO.P,C5,1*%
%TO.N,+3V3*%
X35200000Y9700000D03*
%TO.P,C5,2*%
%TO.N,GND*%
X36160000Y9700000D03*
%TD*%
D23*
%TO.P,R3,1*%
%TO.N,+3V3*%
X37180000Y14210000D03*
%TO.P,R3,2*%
%TO.N,/USB to UART /RST*%
X37180000Y13190000D03*
%TD*%
D39*
%TO.P,L1,1,1*%
%TO.N,/ESP32-U4WDH/ANTENNA*%
X24815000Y26210000D03*
%TO.P,L1,2,2*%
X24815000Y25240000D03*
%TD*%
D22*
%TO.P,H2,1,1*%
%TO.N,GND*%
X26300000Y31700000D03*
%TD*%
D21*
%TO.P,C9,1*%
%TO.N,+3V3*%
X28450000Y14480000D03*
%TO.P,C9,2*%
%TO.N,GND*%
X28450000Y13520000D03*
%TD*%
D35*
%TO.P,R4,1*%
%TO.N,/USB to UART /TXD*%
X25700000Y16690000D03*
%TO.P,R4,2*%
%TO.N,U0RXD*%
X25700000Y17710000D03*
%TD*%
D10*
%TO.P,C2,1*%
%TO.N,/ESP32-U4WDH/ANTENNA*%
X24780000Y24250000D03*
%TO.P,C2,2*%
%TO.N,GND*%
X25740000Y24250000D03*
%TD*%
D40*
%TO.P,Q1,1,E2*%
%TO.N,/USB to UART /RTS*%
X17700000Y3750000D03*
%TO.P,Q1,2,B2*%
%TO.N,/USB to UART /DTR*%
X17700000Y3100000D03*
%TO.P,Q1,3,C1*%
%TO.N,GPIO0*%
X17700000Y2450000D03*
%TO.P,Q1,4,E1*%
%TO.N,/USB to UART /DTR*%
X19600000Y2450000D03*
%TO.P,Q1,5,B1*%
%TO.N,/USB to UART /RTS*%
X19600000Y3100000D03*
%TO.P,Q1,6,C2*%
%TO.N,EN*%
X19600000Y3750000D03*
%TD*%
D41*
%TO.P,U2,1,GND*%
%TO.N,GND*%
X18050000Y14350000D03*
D42*
%TO.P,U2,2,VO*%
%TO.N,+3V3*%
X24350000Y12050000D03*
D41*
X18050000Y12050000D03*
%TO.P,U2,3,VI*%
%TO.N,+5V*%
X18050000Y9750000D03*
%TD*%
D43*
%TO.N,GND*%
X37400000Y2100000D03*
X19450000Y14800000D03*
X23650000Y3900000D03*
X19450000Y13900000D03*
X37400000Y6750000D03*
X29400000Y13200000D03*
X23650000Y2800000D03*
D44*
X26390000Y27100000D03*
D43*
X29400000Y14000000D03*
X17200000Y4950000D03*
X26250000Y12650000D03*
D44*
X26390000Y25100000D03*
D43*
X37080000Y9800000D03*
%TO.N,EN*%
X18700000Y4650000D03*
X18700000Y24100000D03*
%TO.N,+3V3*%
X25550000Y20325000D03*
X26800000Y15400000D03*
X23050000Y24100000D03*
X37180000Y14950000D03*
X25700000Y15400000D03*
X22250000Y24100000D03*
X24400000Y15850000D03*
X37980000Y11680000D03*
X27900000Y15400000D03*
X17900000Y19000000D03*
X25550000Y21400000D03*
X33200000Y23200000D03*
X25560000Y19275000D03*
X35280000Y8900000D03*
%TO.N,SCL*%
X33250000Y19200000D03*
X21700000Y14950000D03*
%TO.N,SDA*%
X22700000Y14950000D03*
X33200000Y21200000D03*
D45*
%TO.N,+5V*%
X19225000Y7275000D03*
X19225000Y6200000D03*
%TO.N,/5V to 3.3V Power/VBUS*%
X24350000Y7250000D03*
X24350000Y6175000D03*
X33650000Y8000000D03*
X25800000Y8200000D03*
D43*
%TO.N,/USB to UART /RTS*%
X19600000Y4650000D03*
X30975000Y15225000D03*
%TO.N,/USB to UART /DTR*%
X31000000Y12600000D03*
X21000000Y1950000D03*
%TD*%
D46*
%TO.N,GND*%
X26315000Y27175000D02*
X26390000Y27100000D01*
X26390000Y25100000D02*
X26390000Y24400000D01*
X25545000Y27175000D02*
X26315000Y27175000D01*
X26390000Y24400000D02*
X26240000Y24250000D01*
X26240000Y24250000D02*
X25740000Y24250000D01*
D47*
%TO.N,/ESP32-U4WDH/ANTENNA*%
X23120000Y27175000D02*
X24585000Y27175000D01*
X23850000Y22000000D02*
X23850000Y22700000D01*
X24585000Y26685000D02*
X24585000Y27175000D01*
X24815000Y25240000D02*
X24815000Y26210000D01*
X24815000Y26210000D02*
X24815000Y26455000D01*
X24780000Y25205000D02*
X24815000Y25240000D01*
X24780000Y23630000D02*
X24780000Y24250000D01*
X23850000Y22700000D02*
X24780000Y23630000D01*
X24815000Y26455000D02*
X24585000Y26685000D01*
X24780000Y24250000D02*
X24780000Y25205000D01*
D48*
%TO.N,EN*%
X21400000Y22500000D02*
X21200000Y22700000D01*
X21400000Y22000000D02*
X21400000Y22500000D01*
X18700000Y3950000D02*
X18900000Y3750000D01*
X20200000Y23190000D02*
X21210000Y23190000D01*
X20075000Y24100000D02*
X18700000Y24100000D01*
X21200000Y22700000D02*
X21200000Y23180000D01*
X21200000Y23180000D02*
X21210000Y23190000D01*
X20600000Y3350000D02*
X21200000Y3350000D01*
X18700000Y4650000D02*
X18700000Y3950000D01*
X20200000Y23190000D02*
X20200000Y23975000D01*
X20200000Y23975000D02*
X20075000Y24100000D01*
X18900000Y3750000D02*
X19600000Y3750000D01*
X19600000Y3750000D02*
X20200000Y3750000D01*
X20200000Y3750000D02*
X20600000Y3350000D01*
%TO.N,+3V3*%
X26250000Y15300000D02*
X26250000Y14480000D01*
X23850000Y15950000D02*
X23850000Y16900000D01*
X26250000Y14480000D02*
X24580000Y14480000D01*
X18300000Y19000000D02*
X18925000Y19625000D01*
X23450000Y24100000D02*
X23050000Y24100000D01*
X25700000Y15400000D02*
X26150000Y15400000D01*
X27900000Y15400000D02*
X28350000Y15400000D01*
X24580000Y14480000D02*
X24350000Y14250000D01*
X28450000Y15300000D02*
X28450000Y14480000D01*
X27250000Y15400000D02*
X27350000Y15300000D01*
X27350000Y14480000D02*
X26250000Y14480000D01*
X26150000Y15400000D02*
X26250000Y15300000D01*
X23500000Y22000000D02*
X23500000Y24050000D01*
X23500000Y24050000D02*
X23450000Y24100000D01*
X18925000Y19625000D02*
X19425000Y19625000D01*
X26800000Y15400000D02*
X27250000Y15400000D01*
X23050000Y23150000D02*
X23050000Y24100000D01*
X33200000Y23200000D02*
X30850000Y23200000D01*
X24200000Y21500000D02*
X24300000Y21400000D01*
X17900000Y19000000D02*
X18300000Y19000000D01*
X28350000Y15400000D02*
X28450000Y15300000D01*
X22250000Y24100000D02*
X22250000Y23210000D01*
X25560000Y19275000D02*
X24425000Y19275000D01*
X24300000Y21400000D02*
X25550000Y21400000D01*
X24200000Y22000000D02*
X24200000Y21500000D01*
X37180000Y14950000D02*
X37180000Y14210000D01*
X24350000Y14250000D02*
X24350000Y12050000D01*
X23150000Y22000000D02*
X23150000Y23050000D01*
X23150000Y23050000D02*
X23050000Y23150000D01*
X25550000Y20325000D02*
X24425000Y20325000D01*
X28450000Y14480000D02*
X27350000Y14480000D01*
X24400000Y15850000D02*
X23950000Y15850000D01*
X23950000Y15850000D02*
X23850000Y15950000D01*
X22250000Y23210000D02*
X22230000Y23190000D01*
X27350000Y15300000D02*
X27350000Y14480000D01*
D49*
X18050000Y12050000D02*
X24350000Y12050000D01*
D50*
%TO.N,D-*%
X30596800Y7673739D02*
X30596800Y7361800D01*
X34183201Y10195831D02*
X34183201Y10915701D01*
X31650000Y5400000D02*
X32050000Y5800000D01*
X30550000Y7315000D02*
X30550000Y6950000D01*
X32050000Y7700001D02*
X32003200Y7746801D01*
X32003200Y8015830D02*
X34183201Y10195831D01*
X30373739Y7896800D02*
X30596800Y7673739D01*
X28496799Y8853201D02*
X28496800Y8515830D01*
X28496800Y8515830D02*
X29115830Y7896800D01*
X31000000Y5400000D02*
X31650000Y5400000D01*
X32050000Y6950000D02*
X32050000Y7700001D01*
X27750000Y9600000D02*
X28496799Y8853201D01*
X32003200Y7746801D02*
X32003200Y8015830D01*
X30550000Y6950000D02*
X30550000Y5850000D01*
X29115830Y7896800D02*
X30373739Y7896800D01*
X30596800Y7361800D02*
X30550000Y7315000D01*
X34183201Y10915701D02*
X34230000Y10962500D01*
X30550000Y5850000D02*
X31000000Y5400000D01*
X32050000Y5800000D02*
X32050000Y6950000D01*
D48*
%TO.N,/ESP32-U4WDH/MTDI*%
X18150000Y19980000D02*
X18155000Y19975000D01*
X18155000Y19975000D02*
X19425000Y19975000D01*
%TO.N,GPIO0*%
X17025000Y18225000D02*
X19425000Y18225000D01*
X16500000Y17700000D02*
X17025000Y18225000D01*
X16500000Y2800000D02*
X16500000Y17700000D01*
X16850000Y2450000D02*
X16500000Y2800000D01*
X17700000Y2450000D02*
X16850000Y2450000D01*
%TO.N,SCL*%
X21700000Y15150000D02*
X21700000Y14950000D01*
X22250000Y15700000D02*
X21700000Y15150000D01*
X23150000Y16200000D02*
X22650000Y15700000D01*
X22650000Y15700000D02*
X22250000Y15700000D01*
X30850000Y19200000D02*
X33250000Y19200000D01*
X23150000Y16900000D02*
X23150000Y16200000D01*
%TO.N,SDA*%
X22700000Y15300000D02*
X22700000Y14950000D01*
X23500000Y16100000D02*
X22700000Y15300000D01*
X33200000Y21200000D02*
X30850000Y21200000D01*
X23500000Y16900000D02*
X23500000Y16100000D01*
%TO.N,U0RXD*%
X25575000Y18225000D02*
X24425000Y18225000D01*
X25700000Y18100000D02*
X25575000Y18225000D01*
X25700000Y17710000D02*
X25700000Y18100000D01*
%TO.N,U0TXD*%
X24425000Y18575000D02*
X26425000Y18575000D01*
X31350000Y13650000D02*
X32042500Y13650000D01*
X26425000Y18575000D02*
X31350000Y13650000D01*
D47*
%TO.N,+5V*%
X18050000Y9750000D02*
X20850000Y9750000D01*
X27000000Y11800000D02*
X27750000Y11800000D01*
X26300000Y11100000D02*
X27000000Y11800000D01*
X20850000Y9750000D02*
X21300000Y9300000D01*
X26300000Y10000000D02*
X26300000Y11100000D01*
X25600000Y9300000D02*
X26300000Y10000000D01*
X21300000Y9300000D02*
X25600000Y9300000D01*
D51*
%TO.N,/5V to 3.3V Power/VBUS*%
X33650000Y8000000D02*
X33650000Y6950000D01*
D47*
X28256392Y8200000D02*
X25800000Y8200000D01*
X28950000Y7506392D02*
X28256392Y8200000D01*
X28950000Y6950000D02*
X28950000Y7506392D01*
D48*
%TO.N,/USB to UART /RTS*%
X17700000Y3750000D02*
X17700000Y4550000D01*
X32042500Y14150000D02*
X31525000Y14150000D01*
X18450000Y5300000D02*
X19500000Y5300000D01*
X19500000Y5300000D02*
X19600000Y5200000D01*
X18275000Y3750000D02*
X18925000Y3100000D01*
X30975000Y14700000D02*
X31525000Y14150000D01*
X18925000Y3100000D02*
X19600000Y3100000D01*
X17700000Y3750000D02*
X18275000Y3750000D01*
X19600000Y5200000D02*
X19600000Y4650000D01*
X30975000Y14700000D02*
X30975000Y15225000D01*
X17700000Y4550000D02*
X18450000Y5300000D01*
%TO.N,/USB to UART /DTR*%
X19600000Y2450000D02*
X18975000Y2450000D01*
X31050000Y12150000D02*
X31000000Y12200000D01*
X18325000Y3100000D02*
X17700000Y3100000D01*
X18975000Y2450000D02*
X18325000Y3100000D01*
X31000000Y12200000D02*
X31000000Y12600000D01*
X32042500Y12150000D02*
X31050000Y12150000D01*
X20600000Y1950000D02*
X21000000Y1950000D01*
X20100000Y2450000D02*
X20600000Y1950000D01*
X19600000Y2450000D02*
X20100000Y2450000D01*
D50*
%TO.N,/5V to 3.3V Power/CC1*%
X29550000Y5450000D02*
X29550000Y6950000D01*
X36100000Y4500000D02*
X30500000Y4500000D01*
X37400000Y3910000D02*
X36690000Y3910000D01*
X36690000Y3910000D02*
X36100000Y4500000D01*
X30500000Y4500000D02*
X29550000Y5450000D01*
%TO.N,/5V to 3.3V Power/CC2*%
X32550000Y5700000D02*
X33310000Y4940000D01*
X32550000Y6950000D02*
X32550000Y5700000D01*
X33310000Y4940000D02*
X37400000Y4940000D01*
D48*
%TO.N,/USB to UART /RST*%
X37180000Y12800000D02*
X37030000Y12650000D01*
X37030000Y12650000D02*
X35917500Y12650000D01*
X37180000Y13190000D02*
X37180000Y12800000D01*
%TO.N,/USB to UART /TXD*%
X25700000Y16690000D02*
X27810000Y16690000D01*
X27810000Y16690000D02*
X31350000Y13150000D01*
X31350000Y13150000D02*
X32042500Y13150000D01*
D50*
%TO.N,D+*%
X31200000Y5900000D02*
X31400000Y5900000D01*
X31596800Y7746801D02*
X31596800Y8184170D01*
X31550000Y7700001D02*
X31596800Y7746801D01*
X31550000Y6050000D02*
X31550000Y6950000D01*
X31550000Y6950000D02*
X31550000Y7700001D01*
X31050000Y6950000D02*
X31050000Y6050000D01*
X28903201Y8853201D02*
X28903200Y8684170D01*
X33776799Y10364169D02*
X33776799Y10915701D01*
X30542079Y8303200D02*
X31003200Y7842079D01*
X31003200Y7361800D02*
X31050000Y7315000D01*
X31400000Y5900000D02*
X31550000Y6050000D01*
X33776799Y10915701D02*
X33730000Y10962500D01*
X28903200Y8684170D02*
X29284170Y8303200D01*
X31003200Y7842079D02*
X31003200Y7361800D01*
X29650000Y9600000D02*
X28903201Y8853201D01*
X29284170Y8303200D02*
X30542079Y8303200D01*
X31050000Y7315000D02*
X31050000Y6950000D01*
X31596800Y8184170D02*
X33776799Y10364169D01*
X31050000Y6050000D02*
X31200000Y5900000D01*
D48*
%TO.N,GPIO26*%
X15780000Y20280000D02*
X10795000Y20280000D01*
X16525000Y21025000D02*
X15780000Y20280000D01*
X19425000Y21025000D02*
X16525000Y21025000D01*
%TD*%
%TA.AperFunction,Conductor*%
%TO.N,/5V to 3.3V Power/VBUS*%
G36*
X24569409Y7929998D02*
G01*
X24586044Y7917233D01*
X24590596Y7913095D01*
X24783757Y7737494D01*
X24820707Y7676871D01*
X24825000Y7644262D01*
X24825000Y5755738D01*
X24804998Y5687617D01*
X24783757Y5662506D01*
X24586045Y5482768D01*
X24522185Y5451745D01*
X24501288Y5450000D01*
X22352190Y5450000D01*
X22284069Y5470002D01*
X22263095Y5486905D01*
X22086905Y5663095D01*
X22052879Y5725407D01*
X22050000Y5752190D01*
X22050000Y7647810D01*
X22070002Y7715931D01*
X22086905Y7736905D01*
X22263095Y7913095D01*
X22325407Y7947121D01*
X22352190Y7950000D01*
X24501288Y7950000D01*
X24569409Y7929998D01*
G37*
%TD.AperFunction*%
%TD*%
%TA.AperFunction,Conductor*%
%TO.N,+5V*%
G36*
X19515931Y10779998D02*
G01*
X19536905Y10763095D01*
X19763095Y10536905D01*
X19797121Y10474593D01*
X19800000Y10447810D01*
X19800000Y8600000D01*
X20600000Y7800000D01*
X21247810Y7800000D01*
X21315931Y7779998D01*
X21336905Y7763095D01*
X21663095Y7436905D01*
X21697121Y7374593D01*
X21700000Y7347810D01*
X21700000Y5952190D01*
X21679998Y5884069D01*
X21663095Y5863095D01*
X21336905Y5536905D01*
X21274593Y5502879D01*
X21247810Y5500000D01*
X19806054Y5500000D01*
X19737933Y5520002D01*
X19723688Y5532544D01*
X19723089Y5531830D01*
X19714647Y5538914D01*
X19707560Y5547360D01*
X19698015Y5552871D01*
X19698011Y5552874D01*
X19675790Y5565703D01*
X19666520Y5571608D01*
X19645496Y5586329D01*
X19636466Y5592652D01*
X19625814Y5595506D01*
X19622953Y5596840D01*
X19619987Y5597919D01*
X19610440Y5603432D01*
X19599584Y5605346D01*
X19599579Y5605348D01*
X19574310Y5609804D01*
X19563581Y5612182D01*
X19538794Y5618823D01*
X19528143Y5621677D01*
X19495522Y5618823D01*
X19491590Y5618479D01*
X19480608Y5618000D01*
X18834190Y5618000D01*
X18766069Y5638002D01*
X18745095Y5654905D01*
X18436905Y5963095D01*
X18402879Y6025407D01*
X18400000Y6052190D01*
X18400000Y6400000D01*
X18100000Y6700000D01*
X18089350Y6700000D01*
X18074634Y6708036D01*
X18049234Y6718040D01*
X18047691Y6715222D01*
X18039823Y6719530D01*
X18032635Y6724917D01*
X18024227Y6728069D01*
X18024225Y6728070D01*
X17911419Y6770358D01*
X17911418Y6770358D01*
X17904024Y6773130D01*
X17896174Y6773983D01*
X17896173Y6773983D01*
X17848786Y6779131D01*
X17848785Y6779131D01*
X17845389Y6779500D01*
X17751479Y6779500D01*
X17272691Y6779499D01*
X17204570Y6799501D01*
X17183596Y6816404D01*
X16936905Y7063095D01*
X16902879Y7125407D01*
X16900000Y7152190D01*
X16900000Y10547810D01*
X16920002Y10615931D01*
X16936905Y10636905D01*
X17063095Y10763095D01*
X17125407Y10797121D01*
X17152190Y10800000D01*
X19447810Y10800000D01*
X19515931Y10779998D01*
G37*
%TD.AperFunction*%
%TD*%
%TA.AperFunction,Conductor*%
%TO.N,+3V3*%
G36*
X36509934Y12269506D02*
G01*
X36517275Y12262725D01*
X36680000Y12100000D01*
X38227810Y12100000D01*
X38295931Y12079998D01*
X38316905Y12063095D01*
X38343095Y12036905D01*
X38377121Y11974593D01*
X38380000Y11947810D01*
X38380000Y11452190D01*
X38359998Y11384069D01*
X38343095Y11363095D01*
X38316905Y11336905D01*
X38254593Y11302879D01*
X38227810Y11300000D01*
X35880000Y11300000D01*
X35680000Y11100000D01*
X35680000Y10101923D01*
X35666267Y10044720D01*
X35640132Y9993427D01*
X35638581Y9983637D01*
X35638581Y9983636D01*
X35634505Y9957899D01*
X35625500Y9901045D01*
X35625501Y9498956D01*
X35640132Y9406573D01*
X35644635Y9397736D01*
X35644635Y9397735D01*
X35666267Y9355280D01*
X35680000Y9298077D01*
X35680000Y8652190D01*
X35659998Y8584069D01*
X35643095Y8563095D01*
X35616905Y8536905D01*
X35554593Y8502879D01*
X35527810Y8500000D01*
X35032190Y8500000D01*
X34964069Y8520002D01*
X34943095Y8536905D01*
X34916905Y8563095D01*
X34882879Y8625407D01*
X34880000Y8652190D01*
X34880000Y10400000D01*
X34716905Y10563095D01*
X34682879Y10625407D01*
X34680000Y10652190D01*
X34680000Y11219501D01*
X34700002Y11287622D01*
X34753658Y11334115D01*
X34806000Y11345501D01*
X35305066Y11345501D01*
X35379301Y11360266D01*
X35389621Y11367161D01*
X35389622Y11367162D01*
X35406986Y11378764D01*
X35445783Y11390533D01*
X35444502Y11394896D01*
X35461885Y11400000D01*
X35480000Y11400000D01*
X35580000Y11500000D01*
X35580000Y12144500D01*
X35600002Y12212621D01*
X35653658Y12259114D01*
X35706000Y12270500D01*
X36304644Y12270500D01*
X36308731Y12271038D01*
X36341251Y12275319D01*
X36341254Y12275320D01*
X36350811Y12276578D01*
X36374931Y12287825D01*
X36445121Y12298486D01*
X36509934Y12269506D01*
G37*
%TD.AperFunction*%
%TD*%
%TA.AperFunction,Conductor*%
%TO.N,GND*%
G36*
X28106146Y7778813D02*
G01*
X28127120Y7761910D01*
X28398595Y7490435D01*
X28432621Y7428123D01*
X28435500Y7401340D01*
X28435501Y6530500D01*
X28415499Y6462379D01*
X28361843Y6415886D01*
X28309501Y6404500D01*
X28261943Y6404500D01*
X28257697Y6403918D01*
X28257691Y6403918D01*
X28178946Y6393131D01*
X28149482Y6389095D01*
X28141598Y6385683D01*
X28141597Y6385683D01*
X28085306Y6361323D01*
X28010054Y6328758D01*
X28003381Y6323354D01*
X27898661Y6238555D01*
X27898659Y6238553D01*
X27891987Y6233150D01*
X27887013Y6226151D01*
X27887012Y6226150D01*
X27812886Y6121845D01*
X27803980Y6109313D01*
X27752518Y5966371D01*
X27751889Y5957811D01*
X27751889Y5957809D01*
X27746553Y5885145D01*
X27741391Y5814855D01*
X27771420Y5665929D01*
X27775320Y5658275D01*
X27836492Y5538217D01*
X27836494Y5538214D01*
X27840392Y5530564D01*
X27846205Y5524243D01*
X27846206Y5524241D01*
X27931295Y5431709D01*
X27943226Y5418734D01*
X27950521Y5414211D01*
X27950522Y5414210D01*
X28065044Y5343203D01*
X28072344Y5338677D01*
X28218235Y5296291D01*
X28229007Y5295500D01*
X28338057Y5295500D01*
X28342303Y5296082D01*
X28342309Y5296082D01*
X28432990Y5308504D01*
X28450518Y5310905D01*
X28463843Y5316671D01*
X28582064Y5367831D01*
X28582065Y5367831D01*
X28589946Y5371242D01*
X28637921Y5410091D01*
X28701339Y5461445D01*
X28701341Y5461447D01*
X28708013Y5466850D01*
X28718771Y5481987D01*
X28791044Y5583685D01*
X28791044Y5583686D01*
X28796020Y5590687D01*
X28847482Y5733629D01*
X28849077Y5755340D01*
X28857980Y5876582D01*
X28858609Y5885145D01*
X28828580Y6034071D01*
X28829135Y6034183D01*
X28825924Y6098971D01*
X28861304Y6160524D01*
X28924346Y6193177D01*
X28948428Y6195500D01*
X29039419Y6195501D01*
X29093300Y6195501D01*
X29161420Y6175499D01*
X29207913Y6121844D01*
X29219300Y6069501D01*
X29219300Y5469949D01*
X29218821Y5458968D01*
X29215476Y5420733D01*
X29225409Y5383661D01*
X29227784Y5372947D01*
X29234449Y5335149D01*
X29239960Y5325604D01*
X29241231Y5322111D01*
X29242806Y5318733D01*
X29245660Y5308084D01*
X29251984Y5299053D01*
X29251985Y5299050D01*
X29267673Y5276645D01*
X29273578Y5267376D01*
X29292761Y5234151D01*
X29301204Y5227067D01*
X29301206Y5227064D01*
X29322164Y5209478D01*
X29330268Y5202052D01*
X30252052Y4280268D01*
X30259478Y4272164D01*
X30277064Y4251206D01*
X30277067Y4251204D01*
X30284151Y4242761D01*
X30293697Y4237250D01*
X30302140Y4230165D01*
X30300487Y4228195D01*
X30338587Y4188238D01*
X30352024Y4118525D01*
X30325638Y4052613D01*
X30267806Y4011430D01*
X30226594Y4004500D01*
X29406690Y4004499D01*
X29374934Y4004499D01*
X29339182Y3997388D01*
X29312874Y3992156D01*
X29312872Y3992155D01*
X29300699Y3989734D01*
X29290379Y3982839D01*
X29290378Y3982838D01*
X29234333Y3945389D01*
X29216516Y3933484D01*
X29160266Y3849301D01*
X29145500Y3775067D01*
X29145501Y1724934D01*
X29152612Y1689182D01*
X29157659Y1663807D01*
X29160266Y1650699D01*
X29167162Y1640379D01*
X29171911Y1628913D01*
X29167858Y1627234D01*
X29181946Y1582284D01*
X29163182Y1513812D01*
X29110378Y1466354D01*
X29055967Y1454000D01*
X21573841Y1454000D01*
X21505720Y1474002D01*
X21459227Y1527658D01*
X21449123Y1597932D01*
X21473878Y1656704D01*
X21479328Y1663807D01*
X21484355Y1670358D01*
X21500004Y1708136D01*
X21537069Y1797620D01*
X21540228Y1805246D01*
X21559285Y1950000D01*
X21540228Y2094754D01*
X21541409Y2094909D01*
X21542910Y2157870D01*
X21582706Y2216664D01*
X21647971Y2244610D01*
X21662926Y2245501D01*
X21675066Y2245501D01*
X21710818Y2252612D01*
X21737126Y2257844D01*
X21737128Y2257845D01*
X21749301Y2260266D01*
X21759621Y2267161D01*
X21759622Y2267162D01*
X21823168Y2309623D01*
X21833484Y2316516D01*
X21889734Y2400699D01*
X21904500Y2474933D01*
X21904499Y4225066D01*
X21895186Y4271892D01*
X21892156Y4287126D01*
X21892155Y4287128D01*
X21889734Y4299301D01*
X21881981Y4310905D01*
X21840377Y4373168D01*
X21833484Y4383484D01*
X21749301Y4439734D01*
X21675067Y4454500D01*
X21200077Y4454500D01*
X20724934Y4454499D01*
X20689182Y4447388D01*
X20662874Y4442156D01*
X20662872Y4442155D01*
X20650699Y4439734D01*
X20640379Y4432839D01*
X20640378Y4432838D01*
X20582561Y4394205D01*
X20566516Y4383484D01*
X20510266Y4299301D01*
X20495500Y4225067D01*
X20495500Y4164160D01*
X20475498Y4096039D01*
X20421842Y4049546D01*
X20351568Y4039442D01*
X20336790Y4043850D01*
X20336469Y4042651D01*
X20336466Y4042652D01*
X20334186Y4043263D01*
X20323701Y4046568D01*
X20319986Y4047920D01*
X20310440Y4053432D01*
X20299584Y4055346D01*
X20299579Y4055348D01*
X20274310Y4059804D01*
X20263581Y4062182D01*
X20238794Y4068823D01*
X20228143Y4071677D01*
X20217159Y4070716D01*
X20206486Y4071650D01*
X20140368Y4097513D01*
X20124396Y4114635D01*
X20124153Y4114392D01*
X20115377Y4123168D01*
X20108484Y4133484D01*
X20084233Y4149688D01*
X20038707Y4204165D01*
X20029860Y4274608D01*
X20054275Y4331156D01*
X20079325Y4363802D01*
X20079327Y4363805D01*
X20084355Y4370358D01*
X20092648Y4390377D01*
X20137069Y4497620D01*
X20140228Y4505246D01*
X20144961Y4541193D01*
X20158207Y4641812D01*
X20159285Y4650000D01*
X20145125Y4757560D01*
X20141306Y4786568D01*
X20141305Y4786570D01*
X20140228Y4794754D01*
X20091386Y4912668D01*
X20087515Y4922014D01*
X20087514Y4922016D01*
X20084355Y4929642D01*
X20079327Y4936195D01*
X20079325Y4936198D01*
X19997146Y5043296D01*
X19971545Y5109516D01*
X19985810Y5179065D01*
X20035411Y5229861D01*
X20097108Y5246000D01*
X21247810Y5246000D01*
X21274957Y5247455D01*
X21276628Y5247635D01*
X21276645Y5247636D01*
X21290599Y5249136D01*
X21301740Y5250334D01*
X21396325Y5279950D01*
X21401757Y5282916D01*
X21401759Y5282917D01*
X21454689Y5311820D01*
X21454691Y5311821D01*
X21458637Y5313976D01*
X21469504Y5322111D01*
X21512908Y5354603D01*
X21512912Y5354607D01*
X21516510Y5357300D01*
X21691200Y5531990D01*
X21753512Y5566016D01*
X21824327Y5560951D01*
X21881163Y5518404D01*
X21904598Y5487098D01*
X21904606Y5487089D01*
X21907300Y5483490D01*
X22083490Y5307300D01*
X22084743Y5306174D01*
X22084753Y5306165D01*
X22092674Y5299050D01*
X22103712Y5289135D01*
X22124686Y5272232D01*
X22212509Y5226291D01*
X22218447Y5224548D01*
X22218448Y5224547D01*
X22236278Y5219312D01*
X22280630Y5206289D01*
X22285089Y5205648D01*
X22285093Y5205647D01*
X22310098Y5202052D01*
X22352190Y5196000D01*
X24501288Y5196000D01*
X24516691Y5196642D01*
X24521109Y5196826D01*
X24521116Y5196826D01*
X24522425Y5196881D01*
X24523734Y5196990D01*
X24523745Y5196991D01*
X24530370Y5197544D01*
X24543322Y5198626D01*
X24588248Y5210952D01*
X24627562Y5221737D01*
X24627565Y5221738D01*
X24633174Y5223277D01*
X24638404Y5225818D01*
X24638410Y5225820D01*
X24692987Y5252334D01*
X24697034Y5254300D01*
X24756904Y5294823D01*
X24825629Y5357300D01*
X24953075Y5473160D01*
X24953077Y5473161D01*
X24954616Y5474561D01*
X24956054Y5476052D01*
X24956065Y5476062D01*
X24976250Y5496982D01*
X24977683Y5498467D01*
X24998924Y5523578D01*
X25007180Y5538913D01*
X25036109Y5592652D01*
X25048709Y5616057D01*
X25068711Y5684178D01*
X25069984Y5693028D01*
X25074200Y5722354D01*
X25079000Y5755738D01*
X25079000Y7625940D01*
X25099002Y7694061D01*
X25152658Y7740554D01*
X25222932Y7750658D01*
X25289800Y7719134D01*
X25392108Y7626041D01*
X25540791Y7545313D01*
X25704438Y7502381D01*
X25792047Y7501004D01*
X25866004Y7499842D01*
X25866007Y7499842D01*
X25873602Y7499723D01*
X25940348Y7515010D01*
X26031114Y7535798D01*
X26031118Y7535799D01*
X26038517Y7537494D01*
X26189662Y7613512D01*
X26195433Y7618441D01*
X26195436Y7618443D01*
X26312539Y7718459D01*
X26312540Y7718460D01*
X26318311Y7723389D01*
X26322742Y7729555D01*
X26334805Y7746342D01*
X26390800Y7789989D01*
X26437127Y7798815D01*
X28038025Y7798815D01*
X28106146Y7778813D01*
G37*
%TD.AperFunction*%
%TA.AperFunction,Conductor*%
G36*
X38743710Y11269591D02*
G01*
X38787257Y11213518D01*
X38796000Y11167401D01*
X38796000Y3737425D01*
X38793579Y3712847D01*
X38791024Y3700000D01*
X38793445Y3687830D01*
X38793445Y3675417D01*
X38793120Y3675417D01*
X38793858Y3664580D01*
X38785043Y3518863D01*
X38780084Y3436882D01*
X38778250Y3421778D01*
X38732109Y3169995D01*
X38728468Y3155222D01*
X38659349Y2933409D01*
X38652313Y2910831D01*
X38646919Y2896608D01*
X38541864Y2663186D01*
X38534793Y2649713D01*
X38402364Y2430649D01*
X38393721Y2418127D01*
X38235851Y2216621D01*
X38225761Y2205233D01*
X38044767Y2024239D01*
X38033379Y2014149D01*
X37831873Y1856279D01*
X37819351Y1847636D01*
X37600287Y1715207D01*
X37586817Y1708138D01*
X37353392Y1603081D01*
X37339174Y1597689D01*
X37165096Y1543444D01*
X37094778Y1521532D01*
X37080005Y1517891D01*
X36828222Y1471750D01*
X36813118Y1469916D01*
X36742515Y1465645D01*
X36585420Y1456142D01*
X36574583Y1456880D01*
X36574583Y1456555D01*
X36562170Y1456555D01*
X36550000Y1458976D01*
X36537153Y1456421D01*
X36512575Y1454000D01*
X33544033Y1454000D01*
X33475912Y1474002D01*
X33429419Y1527658D01*
X33419315Y1597932D01*
X33430767Y1627806D01*
X33428090Y1628915D01*
X33432839Y1640379D01*
X33439734Y1650699D01*
X33454500Y1724933D01*
X33454499Y3775066D01*
X33439734Y3849301D01*
X33383484Y3933484D01*
X33373168Y3940377D01*
X33364391Y3949154D01*
X33365839Y3950602D01*
X33330396Y3993014D01*
X33321550Y4063458D01*
X33352192Y4127501D01*
X33412595Y4164811D01*
X33445927Y4169300D01*
X35910830Y4169300D01*
X35978951Y4149298D01*
X35999925Y4132395D01*
X36442052Y3690268D01*
X36449478Y3682164D01*
X36467064Y3661206D01*
X36467067Y3661204D01*
X36474151Y3652761D01*
X36499840Y3637929D01*
X36507376Y3633578D01*
X36516645Y3627673D01*
X36539050Y3611985D01*
X36539053Y3611984D01*
X36548084Y3605660D01*
X36558733Y3602806D01*
X36562111Y3601231D01*
X36565604Y3599960D01*
X36575149Y3594449D01*
X36586002Y3592535D01*
X36586003Y3592535D01*
X36597100Y3590578D01*
X36612947Y3587784D01*
X36623661Y3585409D01*
X36660733Y3575476D01*
X36671708Y3576436D01*
X36671709Y3576436D01*
X36698968Y3578821D01*
X36709949Y3579300D01*
X36789288Y3579300D01*
X36857409Y3559298D01*
X36891222Y3527364D01*
X36891459Y3527038D01*
X36895960Y3518204D01*
X36983204Y3430960D01*
X37093138Y3374946D01*
X37102927Y3373396D01*
X37102929Y3373395D01*
X37129421Y3369199D01*
X37184347Y3360500D01*
X37399956Y3360500D01*
X37615652Y3360501D01*
X37620546Y3361276D01*
X37697064Y3373394D01*
X37697066Y3373395D01*
X37706862Y3374946D01*
X37816796Y3430960D01*
X37904040Y3518204D01*
X37960054Y3628138D01*
X37974500Y3719347D01*
X37974499Y4050652D01*
X37967078Y4097513D01*
X37961606Y4132064D01*
X37961605Y4132066D01*
X37960054Y4141862D01*
X37904040Y4251796D01*
X37844931Y4310905D01*
X37810905Y4373217D01*
X37815970Y4444032D01*
X37844931Y4489095D01*
X37904040Y4548204D01*
X37960054Y4658138D01*
X37962401Y4672953D01*
X37969301Y4716520D01*
X37974500Y4749347D01*
X37974499Y5080652D01*
X37972122Y5095660D01*
X37961606Y5162064D01*
X37961605Y5162066D01*
X37960054Y5171862D01*
X37945633Y5200166D01*
X37908540Y5272964D01*
X37904040Y5281796D01*
X37816796Y5369040D01*
X37706862Y5425054D01*
X37697073Y5426604D01*
X37697071Y5426605D01*
X37670579Y5430801D01*
X37615653Y5439500D01*
X37400044Y5439500D01*
X37184348Y5439499D01*
X37179455Y5438724D01*
X37179454Y5438724D01*
X37102936Y5426606D01*
X37102934Y5426605D01*
X37093138Y5425054D01*
X37084301Y5420551D01*
X37084300Y5420551D01*
X37071855Y5414210D01*
X36983204Y5369040D01*
X36921769Y5307605D01*
X36859457Y5273579D01*
X36832674Y5270700D01*
X34937737Y5270700D01*
X34869616Y5290702D01*
X34823123Y5344358D01*
X34813019Y5414632D01*
X34835031Y5469690D01*
X34837988Y5473850D01*
X34921020Y5590687D01*
X34972482Y5733629D01*
X34974077Y5755340D01*
X34982980Y5876582D01*
X34983609Y5885145D01*
X34953580Y6034071D01*
X34935528Y6069500D01*
X34888508Y6161783D01*
X34888506Y6161786D01*
X34884608Y6169436D01*
X34858952Y6197337D01*
X34787584Y6274948D01*
X34787583Y6274949D01*
X34781774Y6281266D01*
X34759963Y6294790D01*
X34659956Y6356797D01*
X34659955Y6356798D01*
X34652656Y6361323D01*
X34506765Y6403709D01*
X34495993Y6404500D01*
X34290500Y6404500D01*
X34222379Y6424502D01*
X34175886Y6478158D01*
X34164500Y6530500D01*
X34164499Y7475066D01*
X34166834Y7475066D01*
X34178111Y7534594D01*
X34187965Y7550741D01*
X34262605Y7654613D01*
X34262605Y7654614D01*
X34267037Y7660781D01*
X34280416Y7694061D01*
X34298844Y7739904D01*
X34330141Y7817757D01*
X34353980Y7985254D01*
X34354134Y8000000D01*
X34352331Y8014905D01*
X34341907Y8101040D01*
X34333809Y8167960D01*
X34274006Y8326222D01*
X34251819Y8358504D01*
X34182481Y8459393D01*
X34182479Y8459395D01*
X34178179Y8465652D01*
X34172508Y8470705D01*
X34057531Y8573146D01*
X34057528Y8573148D01*
X34051859Y8578199D01*
X34013971Y8598260D01*
X33960179Y8626741D01*
X33902339Y8657366D01*
X33869351Y8665652D01*
X33745622Y8696731D01*
X33745618Y8696731D01*
X33738251Y8698582D01*
X33730652Y8698622D01*
X33730650Y8698622D01*
X33660308Y8698990D01*
X33569069Y8699468D01*
X33561690Y8697696D01*
X33561686Y8697696D01*
X33457968Y8672795D01*
X33387060Y8676342D01*
X33329326Y8717662D01*
X33303096Y8783635D01*
X33316698Y8853317D01*
X33339459Y8884409D01*
X34402933Y9947883D01*
X34411039Y9955311D01*
X34419011Y9962000D01*
X34484052Y9990464D01*
X34554157Y9979245D01*
X34607067Y9931905D01*
X34626000Y9865477D01*
X34626000Y8652190D01*
X34627455Y8625043D01*
X34627635Y8623372D01*
X34627636Y8623355D01*
X34628131Y8618751D01*
X34630334Y8598260D01*
X34659950Y8503675D01*
X34662916Y8498243D01*
X34662917Y8498241D01*
X34691820Y8445311D01*
X34693976Y8441363D01*
X34696671Y8437763D01*
X34734603Y8387092D01*
X34734607Y8387088D01*
X34737300Y8383490D01*
X34763490Y8357300D01*
X34764743Y8356174D01*
X34764753Y8356165D01*
X34766492Y8354603D01*
X34783712Y8339135D01*
X34804686Y8322232D01*
X34824598Y8311816D01*
X34871273Y8287400D01*
X34892509Y8276291D01*
X34898447Y8274548D01*
X34898448Y8274547D01*
X34916278Y8269312D01*
X34960630Y8256289D01*
X34965089Y8255648D01*
X34965093Y8255647D01*
X34989166Y8252186D01*
X35032190Y8246000D01*
X35527810Y8246000D01*
X35554957Y8247455D01*
X35556628Y8247635D01*
X35556645Y8247636D01*
X35570599Y8249136D01*
X35581740Y8250334D01*
X35676325Y8279950D01*
X35681757Y8282916D01*
X35681759Y8282917D01*
X35734689Y8311820D01*
X35734691Y8311821D01*
X35738637Y8313976D01*
X35754859Y8326120D01*
X35792908Y8354603D01*
X35792912Y8354607D01*
X35796510Y8357300D01*
X35822700Y8383490D01*
X35840865Y8403712D01*
X35857768Y8424686D01*
X35903709Y8512509D01*
X35923711Y8580630D01*
X35926667Y8601185D01*
X35930150Y8625415D01*
X35934000Y8652190D01*
X35934000Y9298077D01*
X35932213Y9313180D01*
X35929205Y9338587D01*
X35926982Y9357371D01*
X35913249Y9414574D01*
X35911962Y9418063D01*
X35893869Y9467107D01*
X35893865Y9467115D01*
X35892582Y9470594D01*
X35890899Y9473898D01*
X35890692Y9474370D01*
X35881688Y9505133D01*
X35881053Y9509142D01*
X35879501Y9528858D01*
X35879500Y9871134D01*
X35881051Y9890846D01*
X35881686Y9894855D01*
X35890695Y9925636D01*
X35890897Y9926099D01*
X35892583Y9929407D01*
X35913249Y9985426D01*
X35926982Y10042629D01*
X35932425Y10088618D01*
X35933564Y10098236D01*
X35933564Y10098243D01*
X35934000Y10101923D01*
X35934000Y10920000D01*
X35954002Y10988121D01*
X36007658Y11034614D01*
X36060000Y11046000D01*
X38227810Y11046000D01*
X38254957Y11047455D01*
X38256628Y11047635D01*
X38256645Y11047636D01*
X38270599Y11049136D01*
X38281740Y11050334D01*
X38376325Y11079950D01*
X38381757Y11082916D01*
X38381759Y11082917D01*
X38434689Y11111820D01*
X38434691Y11111821D01*
X38438637Y11113976D01*
X38479412Y11144500D01*
X38492908Y11154603D01*
X38492912Y11154607D01*
X38496510Y11157300D01*
X38522700Y11183490D01*
X38540865Y11203712D01*
X38557768Y11224686D01*
X38560640Y11230176D01*
X38564031Y11235350D01*
X38566193Y11233933D01*
X38607665Y11276901D01*
X38676760Y11293220D01*
X38743710Y11269591D01*
G37*
%TD.AperFunction*%
%TA.AperFunction,Conductor*%
G36*
X26017800Y34443579D02*
G01*
X26030647Y34441024D01*
X26042819Y34443445D01*
X26053859Y34443445D01*
X26066304Y34444387D01*
X26227655Y34437091D01*
X26238991Y34436064D01*
X26428749Y34410182D01*
X26439947Y34408136D01*
X26572876Y34377582D01*
X26626609Y34365231D01*
X26637561Y34362186D01*
X26750804Y34325123D01*
X26791069Y34311944D01*
X26802382Y34306659D01*
X26812707Y34302755D01*
X26823235Y34296186D01*
X26835476Y34294146D01*
X26835478Y34294145D01*
X26836153Y34294032D01*
X26859999Y34287604D01*
X31083557Y32690637D01*
X37309347Y30336607D01*
X37331480Y30325649D01*
X37342587Y30318719D01*
X37354828Y30316679D01*
X37366434Y30312290D01*
X37366318Y30311984D01*
X37376712Y30308843D01*
X37585019Y30215329D01*
X37598509Y30208265D01*
X37817870Y30075910D01*
X37830409Y30067269D01*
X38032188Y29909429D01*
X38043594Y29899339D01*
X38224864Y29718304D01*
X38234969Y29706912D01*
X38393079Y29505326D01*
X38401735Y29492798D01*
X38459875Y29396721D01*
X38534372Y29273613D01*
X38541451Y29260138D01*
X38646675Y29026557D01*
X38652078Y29012323D01*
X38677166Y28931885D01*
X38728354Y28767760D01*
X38732002Y28752975D01*
X38778220Y28500982D01*
X38780057Y28485866D01*
X38793855Y28257945D01*
X38793118Y28247113D01*
X38793445Y28247113D01*
X38793445Y28234705D01*
X38791024Y28222533D01*
X38793445Y28210363D01*
X38793445Y28197953D01*
X38791082Y28197953D01*
X38786256Y28143994D01*
X38742704Y28087925D01*
X38675752Y28064303D01*
X38606658Y28080627D01*
X38557358Y28131716D01*
X38548128Y28156406D01*
X38547798Y28159447D01*
X38538179Y28185108D01*
X38500221Y28286361D01*
X38497071Y28294764D01*
X38491691Y28301943D01*
X38491689Y28301946D01*
X38415785Y28403224D01*
X38410404Y28410404D01*
X38389977Y28425713D01*
X38301946Y28491689D01*
X38301943Y28491691D01*
X38294764Y28497071D01*
X38219867Y28525148D01*
X38166842Y28545026D01*
X38166841Y28545026D01*
X38159447Y28547798D01*
X38151597Y28548651D01*
X38151596Y28548651D01*
X38101152Y28554131D01*
X38101151Y28554131D01*
X38097755Y28554500D01*
X36600220Y28554500D01*
X35102246Y28554499D01*
X35098852Y28554130D01*
X35098846Y28554130D01*
X35048411Y28548652D01*
X35048407Y28548651D01*
X35040553Y28547798D01*
X34905236Y28497071D01*
X34898057Y28491691D01*
X34898054Y28491689D01*
X34810023Y28425713D01*
X34789596Y28410404D01*
X34784215Y28403224D01*
X34708311Y28301946D01*
X34708309Y28301943D01*
X34702929Y28294764D01*
X34652202Y28159447D01*
X34645500Y28097755D01*
X34645501Y27002246D01*
X34652202Y26940553D01*
X34702929Y26805236D01*
X34708309Y26798057D01*
X34708311Y26798054D01*
X34737355Y26759301D01*
X34789596Y26689596D01*
X34796776Y26684215D01*
X34898054Y26608311D01*
X34898057Y26608309D01*
X34905236Y26602929D01*
X34913639Y26599779D01*
X35033158Y26554974D01*
X35033159Y26554974D01*
X35040553Y26552202D01*
X35048403Y26551349D01*
X35048404Y26551349D01*
X35098839Y26545870D01*
X35102245Y26545500D01*
X36599780Y26545500D01*
X38097754Y26545501D01*
X38101148Y26545870D01*
X38101154Y26545870D01*
X38151589Y26551348D01*
X38151593Y26551349D01*
X38159447Y26552202D01*
X38294764Y26602929D01*
X38301943Y26608309D01*
X38301946Y26608311D01*
X38403224Y26684215D01*
X38410404Y26689596D01*
X38462645Y26759301D01*
X38491689Y26798054D01*
X38491691Y26798057D01*
X38497071Y26805236D01*
X38538031Y26914499D01*
X38545026Y26933158D01*
X38545026Y26933159D01*
X38547798Y26940553D01*
X38548245Y26944666D01*
X38582635Y27004865D01*
X38645590Y27037685D01*
X38716295Y27031259D01*
X38772302Y26987627D01*
X38796000Y26914072D01*
X38796000Y17485927D01*
X38775998Y17417806D01*
X38722342Y17371313D01*
X38652068Y17361209D01*
X38587488Y17390703D01*
X38548234Y17455435D01*
X38547798Y17459447D01*
X38497071Y17594764D01*
X38491691Y17601943D01*
X38491689Y17601946D01*
X38415785Y17703224D01*
X38410404Y17710404D01*
X38339450Y17763581D01*
X38301946Y17791689D01*
X38301943Y17791691D01*
X38294764Y17797071D01*
X38226285Y17822742D01*
X38166842Y17845026D01*
X38166841Y17845026D01*
X38159447Y17847798D01*
X38151597Y17848651D01*
X38151596Y17848651D01*
X38101152Y17854131D01*
X38101151Y17854131D01*
X38097755Y17854500D01*
X36600220Y17854500D01*
X35102246Y17854499D01*
X35098852Y17854130D01*
X35098846Y17854130D01*
X35048411Y17848652D01*
X35048407Y17848651D01*
X35040553Y17847798D01*
X34905236Y17797071D01*
X34898057Y17791691D01*
X34898054Y17791689D01*
X34860550Y17763581D01*
X34789596Y17710404D01*
X34784215Y17703224D01*
X34708311Y17601946D01*
X34708309Y17601943D01*
X34702929Y17594764D01*
X34699779Y17586361D01*
X34656849Y17471842D01*
X34652202Y17459447D01*
X34645500Y17397755D01*
X34645501Y16302246D01*
X34645870Y16298852D01*
X34645870Y16298846D01*
X34650577Y16255516D01*
X34652202Y16240553D01*
X34702929Y16105236D01*
X34708309Y16098057D01*
X34708311Y16098054D01*
X34754078Y16036988D01*
X34789596Y15989596D01*
X34796776Y15984215D01*
X34898054Y15908311D01*
X34898057Y15908309D01*
X34905236Y15902929D01*
X34913639Y15899779D01*
X35033158Y15854974D01*
X35033159Y15854974D01*
X35040553Y15852202D01*
X35048403Y15851349D01*
X35048404Y15851349D01*
X35060822Y15850000D01*
X35102245Y15845500D01*
X36599780Y15845500D01*
X38097754Y15845501D01*
X38101148Y15845870D01*
X38101154Y15845870D01*
X38151589Y15851348D01*
X38151593Y15851349D01*
X38159447Y15852202D01*
X38294764Y15902929D01*
X38301943Y15908309D01*
X38301946Y15908311D01*
X38403224Y15984215D01*
X38410404Y15989596D01*
X38445922Y16036988D01*
X38491689Y16098054D01*
X38491691Y16098057D01*
X38497071Y16105236D01*
X38519386Y16164762D01*
X38545026Y16233158D01*
X38545026Y16233159D01*
X38547798Y16240553D01*
X38548245Y16244666D01*
X38582635Y16304865D01*
X38645590Y16337685D01*
X38716295Y16331259D01*
X38772302Y16287627D01*
X38796000Y16214072D01*
X38796000Y12229311D01*
X38775998Y12161190D01*
X38722342Y12114697D01*
X38652068Y12104593D01*
X38587488Y12134087D01*
X38566139Y12158723D01*
X38566024Y12158637D01*
X38564815Y12160252D01*
X38544150Y12187857D01*
X38525397Y12212908D01*
X38525393Y12212912D01*
X38522700Y12216510D01*
X38496510Y12242700D01*
X38495257Y12243826D01*
X38495247Y12243835D01*
X38477559Y12259723D01*
X38476288Y12260865D01*
X38455314Y12277768D01*
X38367491Y12323709D01*
X38361553Y12325452D01*
X38361552Y12325453D01*
X38343722Y12330688D01*
X38299370Y12343711D01*
X38294911Y12344352D01*
X38294907Y12344353D01*
X38263590Y12348856D01*
X38227810Y12354000D01*
X37489380Y12354000D01*
X37421259Y12374002D01*
X37374766Y12427658D01*
X37364662Y12497932D01*
X37394156Y12562512D01*
X37408387Y12576520D01*
X37418915Y12585354D01*
X37427360Y12592440D01*
X37432871Y12601985D01*
X37432874Y12601989D01*
X37445703Y12624210D01*
X37451608Y12633479D01*
X37464616Y12652057D01*
X37510628Y12692055D01*
X37587961Y12731458D01*
X37587963Y12731459D01*
X37596796Y12735960D01*
X37684040Y12823204D01*
X37740054Y12933138D01*
X37754500Y13024347D01*
X37754499Y13355652D01*
X37747021Y13402871D01*
X37741606Y13437064D01*
X37741605Y13437066D01*
X37740054Y13446862D01*
X37684040Y13556796D01*
X37629931Y13610905D01*
X37595905Y13673217D01*
X37600970Y13744032D01*
X37629931Y13789095D01*
X37684040Y13843204D01*
X37740054Y13953138D01*
X37754500Y14044347D01*
X37754499Y14375652D01*
X37752786Y14386466D01*
X37741606Y14457064D01*
X37741605Y14457066D01*
X37740054Y14466862D01*
X37732935Y14480835D01*
X37689615Y14565854D01*
X37684040Y14576796D01*
X37684777Y14577172D01*
X37663742Y14636114D01*
X37673127Y14691536D01*
X37676325Y14699255D01*
X37720228Y14805246D01*
X37723425Y14829526D01*
X37738207Y14941812D01*
X37739285Y14950000D01*
X37720228Y15094754D01*
X37674346Y15205522D01*
X37667515Y15222014D01*
X37667514Y15222016D01*
X37664355Y15229642D01*
X37575474Y15345474D01*
X37568924Y15350500D01*
X37568921Y15350503D01*
X37466196Y15429327D01*
X37466194Y15429328D01*
X37459643Y15434355D01*
X37324754Y15490228D01*
X37298716Y15493656D01*
X37216346Y15504500D01*
X37180000Y15509285D01*
X37171812Y15508207D01*
X37043432Y15491306D01*
X37043430Y15491305D01*
X37035246Y15490228D01*
X36997684Y15474669D01*
X36907986Y15437515D01*
X36907984Y15437514D01*
X36900358Y15434355D01*
X36784526Y15345474D01*
X36695645Y15229642D01*
X36692486Y15222016D01*
X36692485Y15222014D01*
X36685654Y15205522D01*
X36639772Y15094754D01*
X36620715Y14950000D01*
X36621793Y14941812D01*
X36636576Y14829526D01*
X36639772Y14805246D01*
X36683676Y14699255D01*
X36686873Y14691536D01*
X36694462Y14620946D01*
X36675678Y14576940D01*
X36675960Y14576796D01*
X36670385Y14565854D01*
X36644242Y14514546D01*
X36595494Y14462931D01*
X36526579Y14445865D01*
X36459804Y14468502D01*
X36452129Y14476177D01*
X36409040Y14496269D01*
X36359549Y14519348D01*
X36359546Y14519349D01*
X36350811Y14523422D01*
X36341254Y14524680D01*
X36341251Y14524681D01*
X36308731Y14528962D01*
X36308730Y14528962D01*
X36304644Y14529500D01*
X35735500Y14529500D01*
X35667379Y14549502D01*
X35620886Y14603158D01*
X35609500Y14655500D01*
X35609500Y15224644D01*
X35606475Y15247620D01*
X35604681Y15261251D01*
X35604680Y15261254D01*
X35603422Y15270811D01*
X35599349Y15279546D01*
X35599348Y15279549D01*
X35560837Y15362136D01*
X35560836Y15362137D01*
X35556177Y15372129D01*
X35477129Y15451177D01*
X35467136Y15455837D01*
X35384549Y15494348D01*
X35384546Y15494349D01*
X35375811Y15498422D01*
X35366254Y15499680D01*
X35366251Y15499681D01*
X35333731Y15503962D01*
X35333730Y15503962D01*
X35329644Y15504500D01*
X35130356Y15504500D01*
X35126270Y15503962D01*
X35126269Y15503962D01*
X35093749Y15499681D01*
X35093746Y15499680D01*
X35084189Y15498422D01*
X35075452Y15494348D01*
X35075449Y15494347D01*
X35033249Y15474669D01*
X34963058Y15464008D01*
X34926751Y15474669D01*
X34884551Y15494347D01*
X34884548Y15494348D01*
X34875811Y15498422D01*
X34866254Y15499680D01*
X34866251Y15499681D01*
X34833731Y15503962D01*
X34833730Y15503962D01*
X34829644Y15504500D01*
X34630356Y15504500D01*
X34626270Y15503962D01*
X34626269Y15503962D01*
X34593749Y15499681D01*
X34593746Y15499680D01*
X34584189Y15498422D01*
X34575452Y15494348D01*
X34575449Y15494347D01*
X34533249Y15474669D01*
X34463058Y15464008D01*
X34426751Y15474669D01*
X34384551Y15494347D01*
X34384548Y15494348D01*
X34375811Y15498422D01*
X34366254Y15499680D01*
X34366251Y15499681D01*
X34333731Y15503962D01*
X34333730Y15503962D01*
X34329644Y15504500D01*
X34130356Y15504500D01*
X34126270Y15503962D01*
X34126269Y15503962D01*
X34093749Y15499681D01*
X34093746Y15499680D01*
X34084189Y15498422D01*
X34075452Y15494348D01*
X34075449Y15494347D01*
X34033249Y15474669D01*
X33963058Y15464008D01*
X33926751Y15474669D01*
X33884551Y15494347D01*
X33884548Y15494348D01*
X33875811Y15498422D01*
X33866254Y15499680D01*
X33866251Y15499681D01*
X33833731Y15503962D01*
X33833730Y15503962D01*
X33829644Y15504500D01*
X33630356Y15504500D01*
X33626270Y15503962D01*
X33626269Y15503962D01*
X33593749Y15499681D01*
X33593746Y15499680D01*
X33584189Y15498422D01*
X33575452Y15494348D01*
X33575449Y15494347D01*
X33533249Y15474669D01*
X33463058Y15464008D01*
X33426751Y15474669D01*
X33384551Y15494347D01*
X33384548Y15494348D01*
X33375811Y15498422D01*
X33366254Y15499680D01*
X33366251Y15499681D01*
X33333731Y15503962D01*
X33333730Y15503962D01*
X33329644Y15504500D01*
X33130356Y15504500D01*
X33126270Y15503962D01*
X33126269Y15503962D01*
X33093749Y15499681D01*
X33093746Y15499680D01*
X33084189Y15498422D01*
X33075452Y15494348D01*
X33075449Y15494347D01*
X33033249Y15474669D01*
X32963058Y15464008D01*
X32926751Y15474669D01*
X32884551Y15494347D01*
X32884548Y15494348D01*
X32875811Y15498422D01*
X32866254Y15499680D01*
X32866251Y15499681D01*
X32833731Y15503962D01*
X32833730Y15503962D01*
X32829644Y15504500D01*
X32630356Y15504500D01*
X32626270Y15503962D01*
X32626269Y15503962D01*
X32593749Y15499681D01*
X32593746Y15499680D01*
X32584189Y15498422D01*
X32575454Y15494349D01*
X32575451Y15494348D01*
X32492864Y15455837D01*
X32482871Y15451177D01*
X32403823Y15372129D01*
X32399164Y15362137D01*
X32399163Y15362136D01*
X32360652Y15279549D01*
X32360651Y15279546D01*
X32356578Y15270811D01*
X32355320Y15261254D01*
X32355319Y15261251D01*
X32353525Y15247620D01*
X32350500Y15224644D01*
X32350500Y14655500D01*
X32330498Y14587379D01*
X32276842Y14540886D01*
X32224500Y14529500D01*
X31655356Y14529500D01*
X31655236Y14529484D01*
X31586860Y14544783D01*
X31558803Y14565916D01*
X31415924Y14708796D01*
X31381899Y14771108D01*
X31386964Y14841924D01*
X31405057Y14874595D01*
X31454328Y14938807D01*
X31459355Y14945358D01*
X31464670Y14958188D01*
X31512069Y15072620D01*
X31515228Y15080246D01*
X31518143Y15102383D01*
X31533207Y15216812D01*
X31534285Y15225000D01*
X31519287Y15338923D01*
X31516306Y15361568D01*
X31516305Y15361570D01*
X31515228Y15369754D01*
X31484731Y15443379D01*
X31462515Y15497014D01*
X31462514Y15497016D01*
X31459355Y15504642D01*
X31402769Y15578386D01*
X31375501Y15613923D01*
X31375500Y15613924D01*
X31370474Y15620474D01*
X31363924Y15625500D01*
X31363921Y15625503D01*
X31261196Y15704327D01*
X31261194Y15704328D01*
X31254643Y15709355D01*
X31119754Y15765228D01*
X30975000Y15784285D01*
X30966812Y15783207D01*
X30838432Y15766306D01*
X30838430Y15766305D01*
X30830246Y15765228D01*
X30808791Y15756341D01*
X30702986Y15712515D01*
X30702984Y15712514D01*
X30695358Y15709355D01*
X30579526Y15620474D01*
X30490645Y15504642D01*
X30487486Y15497016D01*
X30487485Y15497014D01*
X30465269Y15443379D01*
X30434772Y15369754D01*
X30433695Y15361570D01*
X30433694Y15361568D01*
X30426845Y15309541D01*
X30398123Y15244614D01*
X30338858Y15205522D01*
X30267866Y15204677D01*
X30212828Y15236892D01*
X26663569Y18786151D01*
X26656143Y18794255D01*
X26639648Y18813913D01*
X26632560Y18822360D01*
X26623015Y18827871D01*
X26623011Y18827874D01*
X26600790Y18840703D01*
X26591520Y18846608D01*
X26570496Y18861329D01*
X26561466Y18867652D01*
X26550814Y18870506D01*
X26547953Y18871840D01*
X26544987Y18872919D01*
X26535440Y18878432D01*
X26524584Y18880346D01*
X26524579Y18880348D01*
X26499310Y18884804D01*
X26488581Y18887182D01*
X26463794Y18893823D01*
X26453143Y18896677D01*
X26420522Y18893823D01*
X26416590Y18893479D01*
X26405608Y18893000D01*
X26190530Y18893000D01*
X26159048Y18902244D01*
X28845500Y18902244D01*
X28852202Y18840552D01*
X28854974Y18833159D01*
X28854974Y18833157D01*
X28865707Y18804526D01*
X28902929Y18705236D01*
X28908309Y18698057D01*
X28908311Y18698054D01*
X28969314Y18616658D01*
X28989596Y18589596D01*
X28996776Y18584215D01*
X29098054Y18508311D01*
X29098057Y18508309D01*
X29105236Y18502929D01*
X29186780Y18472360D01*
X29233157Y18454974D01*
X29233159Y18454974D01*
X29240552Y18452202D01*
X29248402Y18451349D01*
X29248403Y18451349D01*
X29298847Y18445869D01*
X29302244Y18445500D01*
X32397756Y18445500D01*
X32401153Y18445869D01*
X32451597Y18451349D01*
X32451598Y18451349D01*
X32459448Y18452202D01*
X32466841Y18454974D01*
X32466843Y18454974D01*
X32513220Y18472360D01*
X32594764Y18502929D01*
X32601943Y18508309D01*
X32601946Y18508311D01*
X32703224Y18584215D01*
X32710404Y18589596D01*
X32788866Y18694288D01*
X32845725Y18736803D01*
X32916543Y18741829D01*
X32955928Y18723543D01*
X32956655Y18724801D01*
X32963803Y18720674D01*
X32970357Y18715645D01*
X33053676Y18681133D01*
X33097463Y18662996D01*
X33105246Y18659772D01*
X33250000Y18640715D01*
X33258188Y18641793D01*
X33386566Y18658694D01*
X33394754Y18659772D01*
X33402538Y18662996D01*
X33446324Y18681133D01*
X33529643Y18715645D01*
X33536222Y18720693D01*
X33638921Y18799497D01*
X33638924Y18799500D01*
X33645474Y18804526D01*
X33651911Y18812914D01*
X33713994Y18893823D01*
X33734355Y18920358D01*
X33790228Y19055246D01*
X33791805Y19067219D01*
X33808207Y19191812D01*
X33809285Y19200000D01*
X33790228Y19344754D01*
X33767138Y19400497D01*
X33737515Y19472014D01*
X33737514Y19472016D01*
X33734355Y19479642D01*
X33679142Y19551597D01*
X33650501Y19588923D01*
X33650500Y19588924D01*
X33645474Y19595474D01*
X33638924Y19600500D01*
X33638921Y19600503D01*
X33536196Y19679327D01*
X33536194Y19679328D01*
X33529643Y19684355D01*
X33394754Y19740228D01*
X33250000Y19759285D01*
X33241812Y19758207D01*
X33113432Y19741306D01*
X33113430Y19741305D01*
X33105246Y19740228D01*
X33068642Y19725066D01*
X32977986Y19687515D01*
X32977984Y19687514D01*
X32970358Y19684355D01*
X32963808Y19679329D01*
X32956655Y19675199D01*
X32955546Y19677120D01*
X32900173Y19655715D01*
X32830624Y19669981D01*
X32788866Y19705713D01*
X32715786Y19803223D01*
X32715785Y19803224D01*
X32710404Y19810404D01*
X32681475Y19832085D01*
X32601946Y19891689D01*
X32601943Y19891691D01*
X32594764Y19897071D01*
X32490714Y19936077D01*
X32466843Y19945026D01*
X32466841Y19945026D01*
X32459448Y19947798D01*
X32451598Y19948651D01*
X32451597Y19948651D01*
X32401153Y19954131D01*
X32401152Y19954131D01*
X32397756Y19954500D01*
X29302244Y19954500D01*
X29298848Y19954131D01*
X29298847Y19954131D01*
X29248403Y19948651D01*
X29248402Y19948651D01*
X29240552Y19947798D01*
X29233159Y19945026D01*
X29233157Y19945026D01*
X29209286Y19936077D01*
X29105236Y19897071D01*
X29098057Y19891691D01*
X29098054Y19891689D01*
X29018525Y19832085D01*
X28989596Y19810404D01*
X28984215Y19803224D01*
X28908311Y19701946D01*
X28908309Y19701943D01*
X28902929Y19694764D01*
X28882992Y19641581D01*
X28858656Y19576663D01*
X28852202Y19559448D01*
X28851349Y19551598D01*
X28851349Y19551597D01*
X28848452Y19524933D01*
X28845500Y19497756D01*
X28845500Y18902244D01*
X26159048Y18902244D01*
X26122409Y18913002D01*
X26075916Y18966658D01*
X26065812Y19036932D01*
X26074121Y19067219D01*
X26100228Y19130246D01*
X26105313Y19168867D01*
X26118207Y19266812D01*
X26119285Y19275000D01*
X26105312Y19381135D01*
X26101306Y19411568D01*
X26101305Y19411570D01*
X26100228Y19419754D01*
X26054731Y19529593D01*
X26047515Y19547014D01*
X26047514Y19547016D01*
X26044355Y19554642D01*
X25999914Y19612558D01*
X25960501Y19663923D01*
X25960500Y19663924D01*
X25955474Y19670474D01*
X25911945Y19703876D01*
X25870078Y19761214D01*
X25865857Y19832085D01*
X25900622Y19893987D01*
X25911946Y19903799D01*
X25938921Y19924498D01*
X25945474Y19929526D01*
X25974857Y19967818D01*
X26020365Y20027126D01*
X26034355Y20045358D01*
X26044086Y20068849D01*
X26077410Y20149301D01*
X26090228Y20180246D01*
X26091605Y20190700D01*
X26108207Y20316812D01*
X26109285Y20325000D01*
X26099833Y20396796D01*
X26091306Y20461568D01*
X26091305Y20461570D01*
X26090228Y20469754D01*
X26063083Y20535287D01*
X26037515Y20597014D01*
X26037514Y20597016D01*
X26034355Y20604642D01*
X25965339Y20694586D01*
X25950501Y20713923D01*
X25950500Y20713924D01*
X25945474Y20720474D01*
X25890654Y20762539D01*
X25848788Y20819876D01*
X25844567Y20890747D01*
X25851024Y20902244D01*
X28845500Y20902244D01*
X28845869Y20898848D01*
X28845869Y20898847D01*
X28851252Y20849301D01*
X28852202Y20840552D01*
X28854974Y20833159D01*
X28854974Y20833157D01*
X28863897Y20809355D01*
X28902929Y20705236D01*
X28908309Y20698057D01*
X28908311Y20698054D01*
X28955639Y20634905D01*
X28989596Y20589596D01*
X28996776Y20584215D01*
X29098054Y20508311D01*
X29098057Y20508309D01*
X29105236Y20502929D01*
X29178612Y20475422D01*
X29233157Y20454974D01*
X29233159Y20454974D01*
X29240552Y20452202D01*
X29248402Y20451349D01*
X29248403Y20451349D01*
X29298847Y20445869D01*
X29302244Y20445500D01*
X32397756Y20445500D01*
X32401153Y20445869D01*
X32451597Y20451349D01*
X32451598Y20451349D01*
X32459448Y20452202D01*
X32466841Y20454974D01*
X32466843Y20454974D01*
X32521388Y20475422D01*
X32594764Y20502929D01*
X32601943Y20508309D01*
X32601946Y20508311D01*
X32703224Y20584215D01*
X32710404Y20589596D01*
X32769775Y20668815D01*
X32773563Y20673869D01*
X32830422Y20716384D01*
X32901241Y20721410D01*
X32922607Y20714713D01*
X33055246Y20659772D01*
X33200000Y20640715D01*
X33208188Y20641793D01*
X33217357Y20643000D01*
X33344754Y20659772D01*
X33479643Y20715645D01*
X33540755Y20762538D01*
X33588921Y20799497D01*
X33588924Y20799500D01*
X33595474Y20804526D01*
X33607253Y20819876D01*
X33667849Y20898847D01*
X33684355Y20920358D01*
X33740228Y21055246D01*
X33748606Y21118880D01*
X33758207Y21191812D01*
X33759285Y21200000D01*
X33746982Y21293452D01*
X33741306Y21336568D01*
X33741305Y21336570D01*
X33740228Y21344754D01*
X33684355Y21479642D01*
X33595474Y21595474D01*
X33588924Y21600500D01*
X33588921Y21600503D01*
X33486196Y21679327D01*
X33486194Y21679328D01*
X33479643Y21684355D01*
X33344754Y21740228D01*
X33200000Y21759285D01*
X33191812Y21758207D01*
X33063432Y21741306D01*
X33063430Y21741305D01*
X33055246Y21740228D01*
X32981007Y21709477D01*
X32922608Y21685287D01*
X32852018Y21677698D01*
X32788531Y21709477D01*
X32773563Y21726131D01*
X32715785Y21803224D01*
X32710404Y21810404D01*
X32689977Y21825713D01*
X32601946Y21891689D01*
X32601943Y21891691D01*
X32594764Y21897071D01*
X32488068Y21937069D01*
X32466843Y21945026D01*
X32466841Y21945026D01*
X32459448Y21947798D01*
X32451598Y21948651D01*
X32451597Y21948651D01*
X32401153Y21954131D01*
X32401152Y21954131D01*
X32397756Y21954500D01*
X29302244Y21954500D01*
X29298848Y21954131D01*
X29298847Y21954131D01*
X29248403Y21948651D01*
X29248402Y21948651D01*
X29240552Y21947798D01*
X29233159Y21945026D01*
X29233157Y21945026D01*
X29211932Y21937069D01*
X29105236Y21897071D01*
X29098057Y21891691D01*
X29098054Y21891689D01*
X29010023Y21825713D01*
X28989596Y21810404D01*
X28984215Y21803224D01*
X28908311Y21701946D01*
X28908309Y21701943D01*
X28902929Y21694764D01*
X28893403Y21669353D01*
X28863252Y21588923D01*
X28852202Y21559448D01*
X28851349Y21551598D01*
X28851349Y21551597D01*
X28850253Y21541506D01*
X28845500Y21497756D01*
X28845500Y20902244D01*
X25851024Y20902244D01*
X25879332Y20952650D01*
X25890650Y20962458D01*
X25945474Y21004526D01*
X26034355Y21120358D01*
X26038821Y21131138D01*
X26070736Y21208188D01*
X26090228Y21255246D01*
X26095674Y21296608D01*
X26108207Y21391812D01*
X26109285Y21400000D01*
X26096865Y21494339D01*
X26091306Y21536568D01*
X26091305Y21536570D01*
X26090228Y21544754D01*
X26067136Y21600503D01*
X26037515Y21672014D01*
X26037514Y21672016D01*
X26034355Y21679642D01*
X25945474Y21795474D01*
X25938923Y21800501D01*
X25938921Y21800503D01*
X25836196Y21879327D01*
X25836194Y21879328D01*
X25829643Y21884355D01*
X25694754Y21940228D01*
X25637254Y21947798D01*
X25558188Y21958207D01*
X25550000Y21959285D01*
X25541812Y21958207D01*
X25413432Y21941306D01*
X25413430Y21941305D01*
X25405246Y21940228D01*
X25357430Y21920422D01*
X25277986Y21887515D01*
X25277984Y21887514D01*
X25270358Y21884355D01*
X25217766Y21844000D01*
X25187137Y21820497D01*
X25154526Y21795474D01*
X25132903Y21767294D01*
X25075566Y21725428D01*
X25032942Y21718000D01*
X24655500Y21718000D01*
X24587379Y21738002D01*
X24540886Y21791658D01*
X24529500Y21844000D01*
X24529499Y22424000D01*
X24549501Y22492121D01*
X24603157Y22538614D01*
X24655499Y22550000D01*
X25370000Y22550000D01*
X25370000Y22902244D01*
X28845500Y22902244D01*
X28845869Y22898848D01*
X28845869Y22898847D01*
X28847077Y22887732D01*
X28852202Y22840552D01*
X28854974Y22833159D01*
X28854974Y22833157D01*
X28865707Y22804526D01*
X28902929Y22705236D01*
X28908309Y22698057D01*
X28908311Y22698054D01*
X28952020Y22639734D01*
X28989596Y22589596D01*
X28996776Y22584215D01*
X29098054Y22508311D01*
X29098057Y22508309D01*
X29105236Y22502929D01*
X29147386Y22487128D01*
X29233157Y22454974D01*
X29233159Y22454974D01*
X29240552Y22452202D01*
X29248402Y22451349D01*
X29248403Y22451349D01*
X29298847Y22445869D01*
X29302244Y22445500D01*
X32397756Y22445500D01*
X32401153Y22445869D01*
X32451597Y22451349D01*
X32451598Y22451349D01*
X32459448Y22452202D01*
X32466841Y22454974D01*
X32466843Y22454974D01*
X32552614Y22487128D01*
X32594764Y22502929D01*
X32601943Y22508309D01*
X32601946Y22508311D01*
X32703224Y22584215D01*
X32710404Y22589596D01*
X32749795Y22642156D01*
X32773563Y22673869D01*
X32830422Y22716384D01*
X32901241Y22721410D01*
X32922607Y22714713D01*
X33055246Y22659772D01*
X33200000Y22640715D01*
X33208188Y22641793D01*
X33210946Y22642156D01*
X33344754Y22659772D01*
X33479643Y22715645D01*
X33487156Y22721410D01*
X33588921Y22799497D01*
X33588924Y22799500D01*
X33595474Y22804526D01*
X33684355Y22920358D01*
X33740228Y23055246D01*
X33759285Y23200000D01*
X33740228Y23344754D01*
X33684355Y23479642D01*
X33595474Y23595474D01*
X33588924Y23600500D01*
X33588921Y23600503D01*
X33486196Y23679327D01*
X33486194Y23679328D01*
X33479643Y23684355D01*
X33344754Y23740228D01*
X33200000Y23759285D01*
X33191812Y23758207D01*
X33063432Y23741306D01*
X33063430Y23741305D01*
X33055246Y23740228D01*
X32983294Y23710424D01*
X32922608Y23685287D01*
X32852018Y23677698D01*
X32788531Y23709477D01*
X32773563Y23726131D01*
X32715785Y23803224D01*
X32710404Y23810404D01*
X32622191Y23876516D01*
X32601946Y23891689D01*
X32601943Y23891691D01*
X32594764Y23897071D01*
X32505046Y23930704D01*
X32466843Y23945026D01*
X32466841Y23945026D01*
X32459448Y23947798D01*
X32451598Y23948651D01*
X32451597Y23948651D01*
X32401153Y23954131D01*
X32401152Y23954131D01*
X32397756Y23954500D01*
X29302244Y23954500D01*
X29298848Y23954131D01*
X29298847Y23954131D01*
X29248403Y23948651D01*
X29248402Y23948651D01*
X29240552Y23947798D01*
X29233159Y23945026D01*
X29233157Y23945026D01*
X29194954Y23930704D01*
X29105236Y23897071D01*
X29098057Y23891691D01*
X29098054Y23891689D01*
X29077809Y23876516D01*
X28989596Y23810404D01*
X28984215Y23803224D01*
X28908311Y23701946D01*
X28908309Y23701943D01*
X28902929Y23694764D01*
X28895940Y23676120D01*
X28863252Y23588923D01*
X28852202Y23559448D01*
X28845500Y23497756D01*
X28845500Y22902244D01*
X25370000Y22902244D01*
X25370000Y24450000D01*
X25368057Y24450000D01*
X25368057Y24509498D01*
X25406441Y24569225D01*
X25471022Y24598718D01*
X25488953Y24600000D01*
X25990000Y24600000D01*
X25990000Y28950000D01*
X18790000Y28950000D01*
X18790000Y24781633D01*
X18769998Y24713512D01*
X18716342Y24667019D01*
X18680446Y24656711D01*
X18563432Y24641306D01*
X18563430Y24641305D01*
X18555246Y24640228D01*
X18547619Y24637069D01*
X18547620Y24637069D01*
X18427986Y24587515D01*
X18427984Y24587514D01*
X18420358Y24584355D01*
X18304526Y24495474D01*
X18215645Y24379642D01*
X18159772Y24244754D01*
X18158695Y24236570D01*
X18158694Y24236568D01*
X18146774Y24146027D01*
X18140715Y24100000D01*
X18141793Y24091812D01*
X18157452Y23972872D01*
X18159772Y23955246D01*
X18162931Y23947620D01*
X18195239Y23869623D01*
X18215645Y23820358D01*
X18241499Y23786664D01*
X18293173Y23719322D01*
X18304526Y23704526D01*
X18311076Y23699500D01*
X18311079Y23699497D01*
X18413804Y23620673D01*
X18420357Y23615645D01*
X18555246Y23559772D01*
X18700000Y23540715D01*
X18708188Y23541793D01*
X18836566Y23558694D01*
X18844754Y23559772D01*
X18979643Y23615645D01*
X19070402Y23685287D01*
X19083189Y23695099D01*
X19095474Y23704526D01*
X19117097Y23732706D01*
X19174434Y23774572D01*
X19217058Y23782000D01*
X19627523Y23782000D01*
X19695644Y23761998D01*
X19742137Y23708342D01*
X19752241Y23638068D01*
X19735044Y23595699D01*
X19736865Y23594771D01*
X19680132Y23483427D01*
X19665500Y23391045D01*
X19665501Y22988956D01*
X19666276Y22984063D01*
X19677403Y22913807D01*
X19680132Y22896573D01*
X19684635Y22887736D01*
X19684636Y22887732D01*
X19710128Y22837701D01*
X19723232Y22767925D01*
X19696532Y22702140D01*
X19638504Y22661234D01*
X19597862Y22654499D01*
X19549934Y22654499D01*
X19521105Y22648765D01*
X19487874Y22642156D01*
X19487872Y22642155D01*
X19475699Y22639734D01*
X19465379Y22632839D01*
X19465378Y22632838D01*
X19411409Y22596776D01*
X19391516Y22583484D01*
X19335266Y22499301D01*
X19320500Y22425067D01*
X19320501Y21574934D01*
X19323581Y21559448D01*
X19334395Y21505078D01*
X19328066Y21434364D01*
X19284511Y21378298D01*
X19210817Y21354499D01*
X18999934Y21354499D01*
X18962357Y21347025D01*
X18954292Y21345421D01*
X18929713Y21343000D01*
X16544392Y21343000D01*
X16533410Y21343479D01*
X16529478Y21343823D01*
X16496857Y21346677D01*
X16486206Y21343823D01*
X16461419Y21337182D01*
X16450690Y21334804D01*
X16425421Y21330348D01*
X16425416Y21330346D01*
X16414560Y21328432D01*
X16405013Y21322919D01*
X16402047Y21321840D01*
X16399186Y21320506D01*
X16388534Y21317652D01*
X16379504Y21311329D01*
X16358480Y21296608D01*
X16349210Y21290703D01*
X16326989Y21277874D01*
X16326985Y21277871D01*
X16317440Y21272360D01*
X16310352Y21263913D01*
X16293857Y21244255D01*
X16286431Y21236151D01*
X15685185Y20634905D01*
X15622873Y20600879D01*
X15596090Y20598000D01*
X12416657Y20598000D01*
X12348536Y20618002D01*
X12302043Y20671658D01*
X12294138Y20694586D01*
X12279144Y20757040D01*
X12277989Y20761852D01*
X12272515Y20775067D01*
X12186248Y20983337D01*
X12186246Y20983341D01*
X12184353Y20987911D01*
X12056506Y21196538D01*
X11897597Y21382597D01*
X11711538Y21541506D01*
X11502911Y21669353D01*
X11498341Y21671246D01*
X11498337Y21671248D01*
X11281425Y21761095D01*
X11281423Y21761096D01*
X11276852Y21762989D01*
X11168829Y21788923D01*
X11043742Y21818954D01*
X11043736Y21818955D01*
X11038929Y21820109D01*
X10795000Y21839307D01*
X10551071Y21820109D01*
X10546264Y21818955D01*
X10546258Y21818954D01*
X10421171Y21788923D01*
X10313148Y21762989D01*
X10308577Y21761096D01*
X10308575Y21761095D01*
X10091663Y21671248D01*
X10091659Y21671246D01*
X10087089Y21669353D01*
X9878462Y21541506D01*
X9692403Y21382597D01*
X9533494Y21196538D01*
X9405647Y20987911D01*
X9403754Y20983341D01*
X9403752Y20983337D01*
X9317485Y20775067D01*
X9312011Y20761852D01*
X9302302Y20721410D01*
X9257618Y20535287D01*
X9254891Y20523929D01*
X9235693Y20280000D01*
X9254891Y20036071D01*
X9256045Y20031264D01*
X9256046Y20031258D01*
X9288262Y19897071D01*
X9312011Y19798148D01*
X9313904Y19793577D01*
X9313905Y19793575D01*
X9395961Y19595474D01*
X9405647Y19572089D01*
X9533494Y19363462D01*
X9692403Y19177403D01*
X9878462Y19018494D01*
X10087089Y18890647D01*
X10091659Y18888754D01*
X10091663Y18888752D01*
X10274754Y18812914D01*
X10313148Y18797011D01*
X10380893Y18780747D01*
X10546258Y18741046D01*
X10546264Y18741045D01*
X10551071Y18739891D01*
X10795000Y18720693D01*
X11038929Y18739891D01*
X11043736Y18741045D01*
X11043742Y18741046D01*
X11209107Y18780747D01*
X11276852Y18797011D01*
X11315246Y18812914D01*
X11498337Y18888752D01*
X11498341Y18888754D01*
X11502911Y18890647D01*
X11711538Y19018494D01*
X11897597Y19177403D01*
X12056506Y19363462D01*
X12184353Y19572089D01*
X12194040Y19595474D01*
X12276095Y19793575D01*
X12276096Y19793577D01*
X12277989Y19798148D01*
X12294138Y19865414D01*
X12329490Y19926983D01*
X12392517Y19959666D01*
X12416657Y19962000D01*
X15760608Y19962000D01*
X15771590Y19961521D01*
X15808143Y19958323D01*
X15821866Y19962000D01*
X15843581Y19967818D01*
X15854310Y19970196D01*
X15879579Y19974652D01*
X15879584Y19974654D01*
X15890440Y19976568D01*
X15899987Y19982081D01*
X15902953Y19983160D01*
X15905814Y19984494D01*
X15916466Y19987348D01*
X15946520Y20008392D01*
X15955790Y20014297D01*
X15978011Y20027126D01*
X15978015Y20027129D01*
X15987560Y20032640D01*
X16011143Y20060745D01*
X16018569Y20068849D01*
X16619815Y20670095D01*
X16682127Y20704121D01*
X16708910Y20707000D01*
X17704934Y20707000D01*
X17773055Y20686998D01*
X17819548Y20633342D01*
X17829652Y20563068D01*
X17800158Y20498488D01*
X17785929Y20485429D01*
X17783204Y20484040D01*
X17695960Y20396796D01*
X17639946Y20286862D01*
X17625500Y20195653D01*
X17625501Y19764348D01*
X17626276Y19759455D01*
X17626276Y19759454D01*
X17638170Y19684355D01*
X17639946Y19673138D01*
X17644449Y19664301D01*
X17644449Y19664300D01*
X17656025Y19641581D01*
X17669129Y19571804D01*
X17642429Y19506019D01*
X17619140Y19485943D01*
X17620358Y19484355D01*
X17504526Y19395474D01*
X17415645Y19279642D01*
X17412486Y19272016D01*
X17412485Y19272014D01*
X17386047Y19208188D01*
X17359772Y19144754D01*
X17340715Y19000000D01*
X17341793Y18991812D01*
X17358139Y18867652D01*
X17359772Y18855246D01*
X17403077Y18750699D01*
X17415645Y18720358D01*
X17413236Y18719360D01*
X17426905Y18662996D01*
X17403679Y18595905D01*
X17347869Y18552022D01*
X17301048Y18543000D01*
X17044392Y18543000D01*
X17033410Y18543479D01*
X17029478Y18543823D01*
X16996857Y18546677D01*
X16986206Y18543823D01*
X16961419Y18537182D01*
X16950690Y18534804D01*
X16925421Y18530348D01*
X16925416Y18530346D01*
X16914560Y18528432D01*
X16905013Y18522919D01*
X16902047Y18521840D01*
X16899186Y18520506D01*
X16888534Y18517652D01*
X16879504Y18511329D01*
X16858480Y18496608D01*
X16849210Y18490703D01*
X16826989Y18477874D01*
X16826985Y18477871D01*
X16817440Y18472360D01*
X16810352Y18463913D01*
X16793857Y18444255D01*
X16786431Y18436151D01*
X16288849Y17938569D01*
X16280745Y17931143D01*
X16252640Y17907560D01*
X16247129Y17898015D01*
X16247126Y17898011D01*
X16234297Y17875790D01*
X16228392Y17866520D01*
X16207348Y17836466D01*
X16204494Y17825814D01*
X16203160Y17822953D01*
X16202081Y17819987D01*
X16196568Y17810440D01*
X16194654Y17799584D01*
X16194652Y17799579D01*
X16190196Y17774310D01*
X16187818Y17763581D01*
X16181697Y17740734D01*
X16178323Y17728143D01*
X16180772Y17700150D01*
X16181521Y17691590D01*
X16182000Y17680608D01*
X16182000Y2819392D01*
X16181521Y2808410D01*
X16178323Y2771857D01*
X16181177Y2761206D01*
X16187818Y2736419D01*
X16190196Y2725690D01*
X16194652Y2700421D01*
X16194654Y2700416D01*
X16196568Y2689560D01*
X16202081Y2680013D01*
X16203160Y2677047D01*
X16204494Y2674186D01*
X16207348Y2663534D01*
X16213671Y2654504D01*
X16228392Y2633480D01*
X16234297Y2624210D01*
X16247126Y2601989D01*
X16247129Y2601985D01*
X16252640Y2592440D01*
X16261087Y2585352D01*
X16280745Y2568857D01*
X16288849Y2561431D01*
X16611431Y2238849D01*
X16618857Y2230745D01*
X16628826Y2218865D01*
X16642440Y2202640D01*
X16651985Y2197129D01*
X16651989Y2197126D01*
X16674210Y2184297D01*
X16683480Y2178392D01*
X16713534Y2157348D01*
X16724186Y2154494D01*
X16727047Y2153160D01*
X16730013Y2152081D01*
X16739560Y2146568D01*
X16750416Y2144654D01*
X16750421Y2144652D01*
X16775690Y2140196D01*
X16786419Y2137818D01*
X16811212Y2131175D01*
X16811214Y2131175D01*
X16821857Y2128323D01*
X16832832Y2129283D01*
X16832833Y2129283D01*
X16847668Y2130581D01*
X16858416Y2131521D01*
X16869394Y2132000D01*
X17080413Y2132000D01*
X17148534Y2111998D01*
X17175625Y2085386D01*
X17175847Y2085608D01*
X17184623Y2076832D01*
X17191516Y2066516D01*
X17275699Y2010266D01*
X17349933Y1995500D01*
X17699943Y1995500D01*
X18050066Y1995501D01*
X18085818Y2002612D01*
X18112126Y2007844D01*
X18112128Y2007845D01*
X18124301Y2010266D01*
X18134621Y2017161D01*
X18134622Y2017162D01*
X18198168Y2059623D01*
X18208484Y2066516D01*
X18264734Y2150699D01*
X18279500Y2224933D01*
X18279500Y2391590D01*
X18299502Y2459711D01*
X18353158Y2506204D01*
X18423432Y2516308D01*
X18488012Y2486814D01*
X18494595Y2480685D01*
X18736431Y2238849D01*
X18743857Y2230745D01*
X18753826Y2218865D01*
X18767440Y2202640D01*
X18776985Y2197129D01*
X18776989Y2197126D01*
X18799210Y2184297D01*
X18808480Y2178392D01*
X18838534Y2157348D01*
X18849186Y2154494D01*
X18852047Y2153160D01*
X18855013Y2152081D01*
X18864560Y2146568D01*
X18875416Y2144654D01*
X18875421Y2144652D01*
X18900690Y2140196D01*
X18911419Y2137818D01*
X18936212Y2131175D01*
X18936214Y2131175D01*
X18946857Y2128323D01*
X18957833Y2129283D01*
X18957836Y2129283D01*
X18970207Y2130365D01*
X19039811Y2116374D01*
X19074969Y2084730D01*
X19075847Y2085608D01*
X19084623Y2076832D01*
X19091516Y2066516D01*
X19175699Y2010266D01*
X19249933Y1995500D01*
X19599943Y1995500D01*
X19950066Y1995501D01*
X19989505Y2003345D01*
X20013060Y2008030D01*
X20083774Y2001701D01*
X20126734Y1973546D01*
X20361431Y1738849D01*
X20368857Y1730745D01*
X20378826Y1718865D01*
X20392440Y1702640D01*
X20401987Y1697128D01*
X20415858Y1689120D01*
X20464852Y1637738D01*
X20478289Y1568024D01*
X20451903Y1502113D01*
X20394071Y1460930D01*
X20352859Y1454000D01*
X8087425Y1454000D01*
X8062847Y1456421D01*
X8050000Y1458976D01*
X8037830Y1456555D01*
X8025417Y1456555D01*
X8025417Y1456880D01*
X8014580Y1456142D01*
X7857485Y1465645D01*
X7786882Y1469916D01*
X7771778Y1471750D01*
X7519995Y1517891D01*
X7505222Y1521532D01*
X7434904Y1543444D01*
X7260826Y1597689D01*
X7246608Y1603081D01*
X7013183Y1708138D01*
X6999713Y1715207D01*
X6780649Y1847636D01*
X6768127Y1856279D01*
X6566621Y2014149D01*
X6555233Y2024239D01*
X6374239Y2205233D01*
X6364149Y2216621D01*
X6206279Y2418127D01*
X6197636Y2430649D01*
X6065207Y2649713D01*
X6058136Y2663186D01*
X5953081Y2896608D01*
X5947687Y2910831D01*
X5940652Y2933409D01*
X5871532Y3155222D01*
X5867891Y3169995D01*
X5821750Y3421778D01*
X5819916Y3436882D01*
X5814957Y3518863D01*
X5806142Y3664580D01*
X5806880Y3675417D01*
X5806555Y3675417D01*
X5806555Y3687830D01*
X5808976Y3700000D01*
X5806421Y3712847D01*
X5804000Y3737425D01*
X5804000Y10120000D01*
X9235693Y10120000D01*
X9254891Y9876071D01*
X9256045Y9871264D01*
X9256046Y9871258D01*
X9271466Y9807029D01*
X9312011Y9638148D01*
X9313904Y9633577D01*
X9313905Y9633575D01*
X9403173Y9418063D01*
X9405647Y9412089D01*
X9533494Y9203462D01*
X9692403Y9017403D01*
X9878462Y8858494D01*
X10087089Y8730647D01*
X10091659Y8728754D01*
X10091663Y8728752D01*
X10308575Y8638905D01*
X10313148Y8637011D01*
X10361449Y8625415D01*
X10546258Y8581046D01*
X10546264Y8581045D01*
X10551071Y8579891D01*
X10795000Y8560693D01*
X11038929Y8579891D01*
X11043736Y8581045D01*
X11043742Y8581046D01*
X11228551Y8625415D01*
X11276852Y8637011D01*
X11281425Y8638905D01*
X11498337Y8728752D01*
X11498341Y8728754D01*
X11502911Y8730647D01*
X11711538Y8858494D01*
X11897597Y9017403D01*
X12056506Y9203462D01*
X12184353Y9412089D01*
X12186828Y9418063D01*
X12276095Y9633575D01*
X12276096Y9633577D01*
X12277989Y9638148D01*
X12318534Y9807029D01*
X12333954Y9871258D01*
X12333955Y9871264D01*
X12335109Y9876071D01*
X12354307Y10120000D01*
X12353578Y10129272D01*
X12340550Y10294790D01*
X12335109Y10363929D01*
X12329660Y10386628D01*
X12292321Y10542156D01*
X12277989Y10601852D01*
X12259441Y10646632D01*
X12186248Y10823337D01*
X12186246Y10823341D01*
X12184353Y10827911D01*
X12056506Y11036538D01*
X11897597Y11222597D01*
X11711538Y11381506D01*
X11502911Y11509353D01*
X11498341Y11511246D01*
X11498337Y11511248D01*
X11281425Y11601095D01*
X11281423Y11601096D01*
X11276852Y11602989D01*
X11186498Y11624681D01*
X11043742Y11658954D01*
X11043736Y11658955D01*
X11038929Y11660109D01*
X10795000Y11679307D01*
X10551071Y11660109D01*
X10546264Y11658955D01*
X10546258Y11658954D01*
X10403502Y11624681D01*
X10313148Y11602989D01*
X10308577Y11601096D01*
X10308575Y11601095D01*
X10091663Y11511248D01*
X10091659Y11511246D01*
X10087089Y11509353D01*
X9878462Y11381506D01*
X9692403Y11222597D01*
X9533494Y11036538D01*
X9405647Y10827911D01*
X9403754Y10823341D01*
X9403752Y10823337D01*
X9330559Y10646632D01*
X9312011Y10601852D01*
X9297679Y10542156D01*
X9260341Y10386628D01*
X9254891Y10363929D01*
X9249450Y10294790D01*
X9236423Y10129272D01*
X9235693Y10120000D01*
X5804000Y10120000D01*
X5804000Y26685067D01*
X9240500Y26685067D01*
X9240501Y24034934D01*
X9255266Y23960699D01*
X9311516Y23876516D01*
X9395699Y23820266D01*
X9469933Y23805500D01*
X10794785Y23805500D01*
X12120066Y23805501D01*
X12161827Y23813807D01*
X12182126Y23817844D01*
X12182128Y23817845D01*
X12194301Y23820266D01*
X12204621Y23827161D01*
X12204622Y23827162D01*
X12268168Y23869623D01*
X12278484Y23876516D01*
X12334734Y23960699D01*
X12349500Y24034933D01*
X12349499Y26685066D01*
X12334734Y26759301D01*
X12278484Y26843484D01*
X12194301Y26899734D01*
X12120067Y26914500D01*
X10795215Y26914500D01*
X9469934Y26914499D01*
X9434182Y26907388D01*
X9407874Y26902156D01*
X9407872Y26902155D01*
X9395699Y26899734D01*
X9385379Y26892839D01*
X9385378Y26892838D01*
X9324985Y26852484D01*
X9311516Y26843484D01*
X9255266Y26759301D01*
X9240500Y26685067D01*
X5804000Y26685067D01*
X5804000Y28185108D01*
X5806421Y28209689D01*
X5806555Y28210363D01*
X5808976Y28222533D01*
X5806555Y28234704D01*
X5806555Y28247115D01*
X5806882Y28247115D01*
X5806144Y28257951D01*
X5808808Y28301946D01*
X5819942Y28485866D01*
X5821779Y28500982D01*
X5867997Y28752975D01*
X5871645Y28767760D01*
X5922834Y28931885D01*
X5947921Y29012323D01*
X5953324Y29026557D01*
X6058548Y29260139D01*
X6065627Y29273613D01*
X6198267Y29492803D01*
X6206920Y29505326D01*
X6365032Y29706913D01*
X6375136Y29718305D01*
X6556403Y29899337D01*
X6567808Y29909427D01*
X6572115Y29912796D01*
X6769599Y30067277D01*
X6782128Y30075910D01*
X7001493Y30208267D01*
X7014981Y30215330D01*
X7223278Y30308840D01*
X7233679Y30311985D01*
X7233564Y30312290D01*
X7245172Y30316679D01*
X7257413Y30318719D01*
X7267940Y30325287D01*
X7267942Y30325288D01*
X7268520Y30325649D01*
X7290655Y30336607D01*
X7795742Y30527585D01*
X8554309Y30814407D01*
X17740001Y34287604D01*
X17763847Y34294032D01*
X17764522Y34294145D01*
X17764524Y34294146D01*
X17776765Y34296186D01*
X17787293Y34302755D01*
X17797624Y34306661D01*
X17808924Y34311940D01*
X17883982Y34336507D01*
X17962437Y34362185D01*
X17973400Y34365232D01*
X18160054Y34408135D01*
X18171250Y34410181D01*
X18246878Y34420497D01*
X18361021Y34436065D01*
X18372337Y34437090D01*
X18472467Y34441618D01*
X18533698Y34444386D01*
X18546142Y34443444D01*
X18557183Y34443444D01*
X18569353Y34441024D01*
X18582200Y34443579D01*
X18606778Y34446000D01*
X25993222Y34446000D01*
X26017800Y34443579D01*
G37*
%TD.AperFunction*%
%TA.AperFunction,Conductor*%
G36*
X17023905Y6618251D02*
G01*
X17024213Y6618634D01*
X17045187Y6601731D01*
X17133010Y6555790D01*
X17138948Y6554047D01*
X17138949Y6554046D01*
X17156779Y6548811D01*
X17201131Y6535788D01*
X17205590Y6535147D01*
X17205594Y6535146D01*
X17236911Y6530643D01*
X17272691Y6525499D01*
X17277196Y6525499D01*
X17751479Y6525500D01*
X17818147Y6525500D01*
X17862373Y6517483D01*
X17895488Y6505070D01*
X17910403Y6499479D01*
X17915563Y6497414D01*
X17920274Y6495407D01*
X17925706Y6492432D01*
X17931611Y6490576D01*
X17937310Y6488147D01*
X17936731Y6486789D01*
X17980587Y6460203D01*
X18109095Y6331695D01*
X18143121Y6269383D01*
X18146000Y6242600D01*
X18146000Y6052190D01*
X18147455Y6025043D01*
X18150334Y5998260D01*
X18179950Y5903675D01*
X18182916Y5898243D01*
X18182917Y5898241D01*
X18211820Y5845311D01*
X18213976Y5841363D01*
X18216671Y5837763D01*
X18254603Y5787092D01*
X18254607Y5787088D01*
X18257300Y5783490D01*
X18285450Y5755340D01*
X18319476Y5693028D01*
X18314411Y5622213D01*
X18271864Y5565377D01*
X18259356Y5557126D01*
X18242440Y5547360D01*
X18235352Y5538913D01*
X18218857Y5519255D01*
X18211431Y5511151D01*
X17488849Y4788569D01*
X17480745Y4781143D01*
X17452640Y4757560D01*
X17447129Y4748015D01*
X17447126Y4748011D01*
X17434297Y4725790D01*
X17428392Y4716520D01*
X17407348Y4686466D01*
X17404494Y4675814D01*
X17403160Y4672953D01*
X17402081Y4669987D01*
X17396568Y4660440D01*
X17394654Y4649584D01*
X17394652Y4649579D01*
X17390196Y4624310D01*
X17387818Y4613581D01*
X17381697Y4590734D01*
X17378323Y4578143D01*
X17379284Y4567161D01*
X17381521Y4541590D01*
X17382000Y4530608D01*
X17382000Y4314284D01*
X17361998Y4246163D01*
X17308342Y4199670D01*
X17297785Y4196260D01*
X17287876Y4192156D01*
X17275699Y4189734D01*
X17265379Y4182839D01*
X17265378Y4182838D01*
X17237425Y4164160D01*
X17191516Y4133484D01*
X17135266Y4049301D01*
X17120500Y3975067D01*
X17120501Y3524934D01*
X17121840Y3518204D01*
X17135266Y3450699D01*
X17131066Y3449864D01*
X17136157Y3402676D01*
X17135172Y3399320D01*
X17135266Y3399301D01*
X17120500Y3325067D01*
X17120501Y3102640D01*
X17120501Y2933409D01*
X17100499Y2865289D01*
X17046844Y2818796D01*
X16976570Y2808691D01*
X16911989Y2838184D01*
X16905406Y2844314D01*
X16854905Y2894815D01*
X16820879Y2957127D01*
X16818000Y2983910D01*
X16818000Y6521506D01*
X16838002Y6589627D01*
X16891658Y6636120D01*
X16961932Y6646224D01*
X17023905Y6618251D01*
G37*
%TD.AperFunction*%
%TA.AperFunction,Conductor*%
G36*
X29193809Y14851841D02*
G01*
X29216303Y14833977D01*
X30760719Y13289561D01*
X30794745Y13227249D01*
X30789680Y13156434D01*
X30747133Y13099598D01*
X30734623Y13091346D01*
X30727989Y13087516D01*
X30720358Y13084355D01*
X30604526Y12995474D01*
X30515645Y12879642D01*
X30459772Y12744754D01*
X30458695Y12736570D01*
X30458694Y12736568D01*
X30452834Y12692055D01*
X30440715Y12600000D01*
X30441793Y12591812D01*
X30453329Y12504189D01*
X30459772Y12455246D01*
X30475638Y12416942D01*
X30505972Y12343711D01*
X30515645Y12320358D01*
X30604526Y12204526D01*
X30641320Y12176293D01*
X30648654Y12170665D01*
X30690521Y12113327D01*
X30692054Y12107558D01*
X30694654Y12100416D01*
X30696568Y12089560D01*
X30702081Y12080013D01*
X30703160Y12077047D01*
X30704494Y12074186D01*
X30707348Y12063534D01*
X30713671Y12054504D01*
X30728392Y12033480D01*
X30734297Y12024210D01*
X30747126Y12001989D01*
X30747129Y12001985D01*
X30752640Y11992440D01*
X30761087Y11985352D01*
X30780745Y11968857D01*
X30788849Y11961431D01*
X30811431Y11938849D01*
X30818857Y11930745D01*
X30842440Y11902640D01*
X30851985Y11897129D01*
X30851989Y11897126D01*
X30874210Y11884297D01*
X30883480Y11878392D01*
X30913534Y11857348D01*
X30924186Y11854494D01*
X30927047Y11853160D01*
X30930013Y11852081D01*
X30939560Y11846568D01*
X30950416Y11844654D01*
X30950421Y11844652D01*
X30975690Y11840196D01*
X30986419Y11837818D01*
X31011212Y11831175D01*
X31011214Y11831175D01*
X31021857Y11828323D01*
X31032832Y11829283D01*
X31032833Y11829283D01*
X31047668Y11830581D01*
X31058416Y11831521D01*
X31069394Y11832000D01*
X31249500Y11832000D01*
X31317621Y11811998D01*
X31364114Y11758342D01*
X31375500Y11706000D01*
X31375500Y11550356D01*
X31381578Y11504189D01*
X31385651Y11495454D01*
X31385652Y11495451D01*
X31405825Y11452190D01*
X31428823Y11402871D01*
X31507871Y11323823D01*
X31517863Y11319164D01*
X31517864Y11319163D01*
X31600451Y11280652D01*
X31600454Y11280651D01*
X31609189Y11276578D01*
X31618746Y11275320D01*
X31618749Y11275319D01*
X31651269Y11271038D01*
X31655356Y11270500D01*
X32224500Y11270500D01*
X32292621Y11250498D01*
X32339114Y11196842D01*
X32350500Y11144500D01*
X32350500Y10575356D01*
X32351038Y10571270D01*
X32351038Y10571269D01*
X32355319Y10538749D01*
X32355320Y10538746D01*
X32356578Y10529189D01*
X32360651Y10520454D01*
X32360652Y10520451D01*
X32389569Y10458438D01*
X32403823Y10427871D01*
X32482871Y10348823D01*
X32492863Y10344164D01*
X32492864Y10344163D01*
X32575451Y10305652D01*
X32575454Y10305651D01*
X32584189Y10301578D01*
X32593746Y10300320D01*
X32593749Y10300319D01*
X32624522Y10296268D01*
X32630356Y10295500D01*
X32829644Y10295500D01*
X32835478Y10296268D01*
X32866251Y10300319D01*
X32866254Y10300320D01*
X32875811Y10301578D01*
X32884546Y10305651D01*
X32884549Y10305652D01*
X32922808Y10323493D01*
X32993000Y10334154D01*
X33057813Y10305174D01*
X33096669Y10245754D01*
X33097232Y10174760D01*
X33065153Y10120203D01*
X31377068Y8432118D01*
X31368964Y8424692D01*
X31348006Y8407106D01*
X31348004Y8407103D01*
X31339561Y8400019D01*
X31328178Y8380303D01*
X31320378Y8366794D01*
X31314473Y8357525D01*
X31298785Y8335120D01*
X31298784Y8335117D01*
X31292460Y8326086D01*
X31289606Y8315435D01*
X31288033Y8312062D01*
X31286762Y8308570D01*
X31281249Y8299021D01*
X31279335Y8288167D01*
X31279056Y8287400D01*
X31236960Y8230229D01*
X31170639Y8204892D01*
X31101147Y8219434D01*
X31071560Y8241400D01*
X30790022Y8522937D01*
X30782596Y8531041D01*
X30765012Y8551997D01*
X30765011Y8551998D01*
X30757928Y8560439D01*
X30724704Y8579622D01*
X30715434Y8585527D01*
X30693029Y8601215D01*
X30693026Y8601216D01*
X30683995Y8607540D01*
X30673346Y8610394D01*
X30669968Y8611969D01*
X30666475Y8613240D01*
X30656930Y8618751D01*
X30646077Y8620665D01*
X30646076Y8620665D01*
X30634979Y8622622D01*
X30619132Y8625416D01*
X30608418Y8627791D01*
X30571346Y8637724D01*
X30560371Y8636764D01*
X30560370Y8636764D01*
X30533111Y8634379D01*
X30522130Y8633900D01*
X30506595Y8633900D01*
X30438474Y8653902D01*
X30391981Y8707558D01*
X30381877Y8777832D01*
X30387048Y8796679D01*
X30389734Y8800699D01*
X30404500Y8874933D01*
X30404499Y10325066D01*
X30389734Y10399301D01*
X30375855Y10420073D01*
X30340377Y10473168D01*
X30333484Y10483484D01*
X30249301Y10539734D01*
X30175067Y10554500D01*
X29650085Y10554500D01*
X29124934Y10554499D01*
X29092259Y10548000D01*
X29062874Y10542156D01*
X29062872Y10542155D01*
X29050699Y10539734D01*
X29040379Y10532839D01*
X29040378Y10532838D01*
X29034917Y10529189D01*
X28966516Y10483484D01*
X28910266Y10399301D01*
X28895500Y10325067D01*
X28895501Y9825024D01*
X28895501Y9365371D01*
X28875499Y9297250D01*
X28858596Y9276276D01*
X28789095Y9206775D01*
X28726783Y9172749D01*
X28655968Y9177814D01*
X28610905Y9206775D01*
X28541405Y9276275D01*
X28507379Y9338587D01*
X28504500Y9365370D01*
X28504499Y10318877D01*
X28504499Y10325066D01*
X28489734Y10399301D01*
X28475855Y10420073D01*
X28440377Y10473168D01*
X28433484Y10483484D01*
X28349301Y10539734D01*
X28275067Y10554500D01*
X27750085Y10554500D01*
X27224934Y10554499D01*
X27192259Y10548000D01*
X27162874Y10542156D01*
X27162872Y10542155D01*
X27150699Y10539734D01*
X27140379Y10532839D01*
X27140378Y10532838D01*
X27134917Y10529189D01*
X27066516Y10483484D01*
X27010266Y10399301D01*
X26995500Y10325067D01*
X26995501Y8874934D01*
X27010266Y8800699D01*
X27017162Y8790379D01*
X27021911Y8778913D01*
X27018744Y8777601D01*
X27033828Y8729443D01*
X27015050Y8660975D01*
X26962236Y8613528D01*
X26907848Y8601185D01*
X26438778Y8601185D01*
X26370657Y8621187D01*
X26334939Y8655816D01*
X26332480Y8659394D01*
X26328179Y8665652D01*
X26322508Y8670705D01*
X26207531Y8773146D01*
X26207528Y8773148D01*
X26201859Y8778199D01*
X26052339Y8857366D01*
X26006052Y8868992D01*
X25944858Y8904987D01*
X25912837Y8968352D01*
X25920157Y9038971D01*
X25947653Y9080291D01*
X26606007Y9738646D01*
X26628611Y9761250D01*
X26633113Y9770085D01*
X26638626Y9780903D01*
X26648953Y9797755D01*
X26650077Y9799302D01*
X26661914Y9815595D01*
X26668730Y9836574D01*
X26676293Y9854830D01*
X26681804Y9865646D01*
X26681804Y9865647D01*
X26686306Y9874482D01*
X26689757Y9896269D01*
X26694372Y9915493D01*
X26698121Y9927031D01*
X26701184Y9936458D01*
X26701184Y9968419D01*
X26701185Y9968425D01*
X26701185Y10881633D01*
X26721187Y10949754D01*
X26738090Y10970728D01*
X26807839Y11040477D01*
X26870151Y11074503D01*
X26940966Y11069438D01*
X26997802Y11026891D01*
X27008951Y11007312D01*
X27010266Y11000699D01*
X27017161Y10990380D01*
X27017162Y10990378D01*
X27044307Y10949754D01*
X27066516Y10916516D01*
X27150699Y10860266D01*
X27224933Y10845500D01*
X27749915Y10845500D01*
X28275066Y10845501D01*
X28310818Y10852612D01*
X28337126Y10857844D01*
X28337128Y10857845D01*
X28349301Y10860266D01*
X28359621Y10867161D01*
X28359622Y10867162D01*
X28423168Y10909623D01*
X28433484Y10916516D01*
X28489734Y11000699D01*
X28504500Y11074933D01*
X28504499Y12525066D01*
X28497051Y12562512D01*
X28492156Y12587126D01*
X28492155Y12587128D01*
X28489734Y12599301D01*
X28433484Y12683484D01*
X28349301Y12739734D01*
X28275067Y12754500D01*
X27750085Y12754500D01*
X27224934Y12754499D01*
X27189182Y12747388D01*
X27162874Y12742156D01*
X27162872Y12742155D01*
X27150699Y12739734D01*
X27140379Y12732839D01*
X27140378Y12732838D01*
X27138313Y12731458D01*
X27066516Y12683484D01*
X27010266Y12599301D01*
X26995500Y12525067D01*
X26995500Y12313088D01*
X26975498Y12244967D01*
X26921842Y12198474D01*
X26889211Y12188639D01*
X26874482Y12186306D01*
X26865647Y12181804D01*
X26865646Y12181804D01*
X26854830Y12176293D01*
X26836574Y12168730D01*
X26815595Y12161914D01*
X26799302Y12150077D01*
X26797755Y12148953D01*
X26780903Y12138626D01*
X26770088Y12133115D01*
X26770085Y12133113D01*
X26761250Y12128611D01*
X26738646Y12106007D01*
X25993992Y11361354D01*
X25993989Y11361350D01*
X25971389Y11338750D01*
X25961378Y11319102D01*
X25951051Y11302250D01*
X25943915Y11292429D01*
X25943913Y11292426D01*
X25938086Y11284405D01*
X25935022Y11274976D01*
X25935022Y11274975D01*
X25931273Y11263435D01*
X25923705Y11245166D01*
X25918197Y11234357D01*
X25918195Y11234352D01*
X25913694Y11225518D01*
X25910451Y11205042D01*
X25910244Y11203735D01*
X25905629Y11184512D01*
X25898815Y11163541D01*
X25898815Y10218367D01*
X25878813Y10150246D01*
X25861910Y10129272D01*
X25819595Y10086957D01*
X25757283Y10052931D01*
X25686468Y10057996D01*
X25629632Y10100543D01*
X25604821Y10167063D01*
X25604500Y10176052D01*
X25604499Y13953405D01*
X25624501Y14021526D01*
X25678157Y14068019D01*
X25748431Y14078123D01*
X25813011Y14048629D01*
X25819594Y14042500D01*
X25845229Y14016865D01*
X25956573Y13960132D01*
X25966363Y13958581D01*
X25966364Y13958581D01*
X25992101Y13954505D01*
X26048955Y13945500D01*
X26249959Y13945500D01*
X26451044Y13945501D01*
X26499266Y13953138D01*
X26533629Y13958580D01*
X26533631Y13958581D01*
X26543427Y13960132D01*
X26654771Y14016865D01*
X26710905Y14072999D01*
X26773217Y14107025D01*
X26844032Y14101960D01*
X26889095Y14072999D01*
X26945229Y14016865D01*
X27056573Y13960132D01*
X27066363Y13958581D01*
X27066364Y13958581D01*
X27092101Y13954505D01*
X27148955Y13945500D01*
X27349959Y13945500D01*
X27551044Y13945501D01*
X27599266Y13953138D01*
X27633629Y13958580D01*
X27633631Y13958581D01*
X27643427Y13960132D01*
X27754771Y14016865D01*
X27810905Y14072999D01*
X27873217Y14107025D01*
X27944032Y14101960D01*
X27989095Y14072999D01*
X28045229Y14016865D01*
X28156573Y13960132D01*
X28166363Y13958581D01*
X28166364Y13958581D01*
X28192101Y13954505D01*
X28248955Y13945500D01*
X28449959Y13945500D01*
X28651044Y13945501D01*
X28699266Y13953138D01*
X28733629Y13958580D01*
X28733631Y13958581D01*
X28743427Y13960132D01*
X28854771Y14016865D01*
X28943135Y14105229D01*
X28999868Y14216573D01*
X29014500Y14308955D01*
X29014499Y14651044D01*
X29002759Y14725173D01*
X29011859Y14795584D01*
X29057582Y14849897D01*
X29125410Y14870869D01*
X29193809Y14851841D01*
G37*
%TD.AperFunction*%
%TA.AperFunction,Conductor*%
G36*
X33324235Y10608962D02*
G01*
X33352140Y10547859D01*
X33352623Y10548000D01*
X33353588Y10544689D01*
X33354922Y10541768D01*
X33356578Y10529189D01*
X33360653Y10520451D01*
X33363350Y10511196D01*
X33359591Y10510100D01*
X33367292Y10458438D01*
X33338134Y10393705D01*
X33331578Y10386628D01*
X33284797Y10339847D01*
X33222485Y10305821D01*
X33151670Y10310886D01*
X33094834Y10353433D01*
X33070023Y10419953D01*
X33081507Y10482192D01*
X33082110Y10483484D01*
X33087750Y10495580D01*
X33099348Y10520451D01*
X33099349Y10520454D01*
X33103422Y10529189D01*
X33105078Y10541768D01*
X33106493Y10544966D01*
X33107377Y10548000D01*
X33107783Y10547882D01*
X33133800Y10606695D01*
X33193065Y10645787D01*
X33264057Y10646632D01*
X33324235Y10608962D01*
G37*
%TD.AperFunction*%
%TA.AperFunction,Conductor*%
G36*
X35033249Y14200331D02*
G01*
X35075449Y14180653D01*
X35075452Y14180652D01*
X35084189Y14176578D01*
X35093746Y14175320D01*
X35093749Y14175319D01*
X35126267Y14171038D01*
X35126272Y14171038D01*
X35130356Y14170500D01*
X35133350Y14170500D01*
X35199770Y14146174D01*
X35242653Y14089591D01*
X35250500Y14053518D01*
X35250500Y14050356D01*
X35251038Y14046272D01*
X35251038Y14046267D01*
X35254296Y14021526D01*
X35256578Y14004189D01*
X35260652Y13995452D01*
X35260653Y13995449D01*
X35280331Y13953249D01*
X35290992Y13883058D01*
X35280331Y13846751D01*
X35275408Y13836193D01*
X35256578Y13795811D01*
X35255320Y13786254D01*
X35255319Y13786251D01*
X35251038Y13753731D01*
X35250500Y13749644D01*
X35250500Y13550356D01*
X35256578Y13504189D01*
X35260652Y13495452D01*
X35260653Y13495449D01*
X35280331Y13453249D01*
X35290992Y13383058D01*
X35280331Y13346751D01*
X35260653Y13304551D01*
X35256578Y13295811D01*
X35250500Y13249644D01*
X35250500Y13050356D01*
X35256578Y13004189D01*
X35260652Y12995452D01*
X35260653Y12995449D01*
X35280331Y12953249D01*
X35290992Y12883058D01*
X35280331Y12846751D01*
X35269351Y12823204D01*
X35256578Y12795811D01*
X35250500Y12749644D01*
X35250500Y12550356D01*
X35256578Y12504189D01*
X35260652Y12495452D01*
X35260653Y12495449D01*
X35280331Y12453249D01*
X35290992Y12383058D01*
X35280331Y12346751D01*
X35264634Y12313088D01*
X35256578Y12295811D01*
X35255320Y12286254D01*
X35255319Y12286251D01*
X35252118Y12261937D01*
X35250500Y12249644D01*
X35250500Y12050356D01*
X35256578Y12004189D01*
X35260652Y11995452D01*
X35260653Y11995449D01*
X35280331Y11953249D01*
X35290992Y11883058D01*
X35280331Y11846751D01*
X35273068Y11831175D01*
X35256578Y11795811D01*
X35250500Y11749644D01*
X35250500Y11746650D01*
X35226174Y11680230D01*
X35169591Y11637347D01*
X35133518Y11629500D01*
X35130356Y11629500D01*
X35126272Y11628962D01*
X35126267Y11628962D01*
X35093749Y11624681D01*
X35093746Y11624680D01*
X35084189Y11623422D01*
X35075454Y11619349D01*
X35075451Y11619348D01*
X35058206Y11611306D01*
X35004956Y11599501D01*
X34955044Y11599501D01*
X34901794Y11611306D01*
X34884549Y11619348D01*
X34884546Y11619349D01*
X34875811Y11623422D01*
X34866254Y11624680D01*
X34866251Y11624681D01*
X34833731Y11628962D01*
X34833730Y11628962D01*
X34829644Y11629500D01*
X34630356Y11629500D01*
X34626270Y11628962D01*
X34626269Y11628962D01*
X34593749Y11624681D01*
X34593746Y11624680D01*
X34584189Y11623422D01*
X34575452Y11619348D01*
X34575449Y11619347D01*
X34533249Y11599669D01*
X34463058Y11589008D01*
X34426751Y11599669D01*
X34384551Y11619347D01*
X34384548Y11619348D01*
X34375811Y11623422D01*
X34366254Y11624680D01*
X34366251Y11624681D01*
X34333731Y11628962D01*
X34333730Y11628962D01*
X34329644Y11629500D01*
X34130356Y11629500D01*
X34126270Y11628962D01*
X34126269Y11628962D01*
X34093749Y11624681D01*
X34093746Y11624680D01*
X34084189Y11623422D01*
X34075452Y11619348D01*
X34075449Y11619347D01*
X34033249Y11599669D01*
X33963058Y11589008D01*
X33926751Y11599669D01*
X33884551Y11619347D01*
X33884548Y11619348D01*
X33875811Y11623422D01*
X33866254Y11624680D01*
X33866251Y11624681D01*
X33833731Y11628962D01*
X33833730Y11628962D01*
X33829644Y11629500D01*
X33630356Y11629500D01*
X33626270Y11628962D01*
X33626269Y11628962D01*
X33593749Y11624681D01*
X33593746Y11624680D01*
X33584189Y11623422D01*
X33575454Y11619349D01*
X33575451Y11619348D01*
X33510387Y11589008D01*
X33482871Y11576177D01*
X33403823Y11497129D01*
X33399164Y11487137D01*
X33399163Y11487136D01*
X33360652Y11404549D01*
X33360651Y11404546D01*
X33356578Y11395811D01*
X33355320Y11386252D01*
X33354922Y11383232D01*
X33353507Y11380034D01*
X33352623Y11377000D01*
X33352217Y11377118D01*
X33326200Y11318305D01*
X33266935Y11279213D01*
X33195943Y11278368D01*
X33135765Y11316038D01*
X33107860Y11377141D01*
X33107377Y11377000D01*
X33106412Y11380311D01*
X33105078Y11383232D01*
X33104680Y11386252D01*
X33103422Y11395811D01*
X33099349Y11404546D01*
X33099348Y11404549D01*
X33060837Y11487136D01*
X33060836Y11487137D01*
X33056177Y11497129D01*
X32977129Y11576177D01*
X32949613Y11589008D01*
X32884549Y11619348D01*
X32884546Y11619349D01*
X32875811Y11623422D01*
X32866254Y11624680D01*
X32866251Y11624681D01*
X32833733Y11628962D01*
X32833728Y11628962D01*
X32829644Y11629500D01*
X32826650Y11629500D01*
X32760230Y11653826D01*
X32717347Y11710409D01*
X32709500Y11746482D01*
X32709500Y11749644D01*
X32703422Y11795811D01*
X32686932Y11831175D01*
X32679669Y11846751D01*
X32669008Y11916942D01*
X32679669Y11953249D01*
X32699347Y11995449D01*
X32699348Y11995452D01*
X32703422Y12004189D01*
X32709500Y12050356D01*
X32709500Y12249644D01*
X32707882Y12261937D01*
X32704681Y12286251D01*
X32704680Y12286254D01*
X32703422Y12295811D01*
X32695366Y12313088D01*
X32679669Y12346751D01*
X32669008Y12416942D01*
X32679669Y12453249D01*
X32699347Y12495449D01*
X32699348Y12495452D01*
X32703422Y12504189D01*
X32709500Y12550356D01*
X32709500Y12749644D01*
X32703422Y12795811D01*
X32690649Y12823204D01*
X32679669Y12846751D01*
X32669008Y12916942D01*
X32679669Y12953249D01*
X32699347Y12995449D01*
X32699348Y12995452D01*
X32703422Y13004189D01*
X32709500Y13050356D01*
X32709500Y13249644D01*
X32703422Y13295811D01*
X32699347Y13304551D01*
X32679669Y13346751D01*
X32669008Y13416942D01*
X32679669Y13453249D01*
X32699347Y13495449D01*
X32699348Y13495452D01*
X32703422Y13504189D01*
X32709500Y13550356D01*
X32709500Y13749644D01*
X32708962Y13753731D01*
X32704681Y13786251D01*
X32704680Y13786254D01*
X32703422Y13795811D01*
X32684592Y13836193D01*
X32679669Y13846751D01*
X32669008Y13916942D01*
X32679669Y13953249D01*
X32699347Y13995449D01*
X32699348Y13995452D01*
X32703422Y14004189D01*
X32705705Y14021526D01*
X32708962Y14046267D01*
X32708962Y14046272D01*
X32709500Y14050356D01*
X32709500Y14053350D01*
X32733826Y14119770D01*
X32790409Y14162653D01*
X32826482Y14170500D01*
X32829644Y14170500D01*
X32833728Y14171038D01*
X32833733Y14171038D01*
X32866251Y14175319D01*
X32866254Y14175320D01*
X32875811Y14176578D01*
X32884548Y14180652D01*
X32884551Y14180653D01*
X32926751Y14200331D01*
X32996942Y14210992D01*
X33033249Y14200331D01*
X33075449Y14180653D01*
X33075452Y14180652D01*
X33084189Y14176578D01*
X33093746Y14175320D01*
X33093749Y14175319D01*
X33126269Y14171038D01*
X33130356Y14170500D01*
X33329644Y14170500D01*
X33333731Y14171038D01*
X33366251Y14175319D01*
X33366254Y14175320D01*
X33375811Y14176578D01*
X33384548Y14180652D01*
X33384551Y14180653D01*
X33426751Y14200331D01*
X33496942Y14210992D01*
X33533249Y14200331D01*
X33575449Y14180653D01*
X33575452Y14180652D01*
X33584189Y14176578D01*
X33593746Y14175320D01*
X33593749Y14175319D01*
X33626269Y14171038D01*
X33630356Y14170500D01*
X33829644Y14170500D01*
X33833731Y14171038D01*
X33866251Y14175319D01*
X33866254Y14175320D01*
X33875811Y14176578D01*
X33884548Y14180652D01*
X33884551Y14180653D01*
X33926751Y14200331D01*
X33996942Y14210992D01*
X34033249Y14200331D01*
X34075449Y14180653D01*
X34075452Y14180652D01*
X34084189Y14176578D01*
X34093746Y14175320D01*
X34093749Y14175319D01*
X34126269Y14171038D01*
X34130356Y14170500D01*
X34329644Y14170500D01*
X34333731Y14171038D01*
X34366251Y14175319D01*
X34366254Y14175320D01*
X34375811Y14176578D01*
X34384548Y14180652D01*
X34384551Y14180653D01*
X34426751Y14200331D01*
X34496942Y14210992D01*
X34533249Y14200331D01*
X34575449Y14180653D01*
X34575452Y14180652D01*
X34584189Y14176578D01*
X34593746Y14175320D01*
X34593749Y14175319D01*
X34626269Y14171038D01*
X34630356Y14170500D01*
X34829644Y14170500D01*
X34833731Y14171038D01*
X34866251Y14175319D01*
X34866254Y14175320D01*
X34875811Y14176578D01*
X34884548Y14180652D01*
X34884551Y14180653D01*
X34926751Y14200331D01*
X34996942Y14210992D01*
X35033249Y14200331D01*
G37*
%TD.AperFunction*%
%TA.AperFunction,Conductor*%
G36*
X18712622Y17886998D02*
G01*
X18759115Y17833342D01*
X18769150Y17787212D01*
X18769894Y17787285D01*
X18770501Y17781124D01*
X18770501Y17774934D01*
X18771709Y17768862D01*
X18781992Y17717161D01*
X18785266Y17700699D01*
X18792161Y17690379D01*
X18792162Y17690378D01*
X18810133Y17663483D01*
X18841516Y17616516D01*
X18925699Y17560266D01*
X18999933Y17545500D01*
X19210815Y17545500D01*
X19278936Y17525498D01*
X19325429Y17471842D01*
X19334394Y17394919D01*
X19329699Y17371313D01*
X19320500Y17325067D01*
X19320501Y16474934D01*
X19335266Y16400699D01*
X19342161Y16390379D01*
X19342162Y16390378D01*
X19360177Y16363417D01*
X19391516Y16316516D01*
X19475699Y16260266D01*
X19549933Y16245500D01*
X19649983Y16245500D01*
X19750066Y16245501D01*
X19800419Y16255516D01*
X19849579Y16255516D01*
X19899933Y16245500D01*
X19999983Y16245500D01*
X20100066Y16245501D01*
X20150419Y16255516D01*
X20199579Y16255516D01*
X20249933Y16245500D01*
X20349983Y16245500D01*
X20450066Y16245501D01*
X20500419Y16255516D01*
X20549579Y16255516D01*
X20599933Y16245500D01*
X20699983Y16245500D01*
X20800066Y16245501D01*
X20850419Y16255516D01*
X20899579Y16255516D01*
X20949933Y16245500D01*
X21049983Y16245500D01*
X21150066Y16245501D01*
X21200419Y16255516D01*
X21249579Y16255516D01*
X21299933Y16245500D01*
X21399983Y16245500D01*
X21500066Y16245501D01*
X21550419Y16255516D01*
X21599579Y16255516D01*
X21649933Y16245500D01*
X21749983Y16245500D01*
X21850066Y16245501D01*
X21900419Y16255516D01*
X21949579Y16255516D01*
X21999933Y16245500D01*
X22095652Y16245500D01*
X22163773Y16225498D01*
X22210266Y16171842D01*
X22220370Y16101568D01*
X22190876Y16036988D01*
X22143019Y16004042D01*
X22139560Y16003432D01*
X22130014Y15997921D01*
X22127046Y15996841D01*
X22124178Y15995503D01*
X22113534Y15992651D01*
X22104505Y15986329D01*
X22104501Y15986327D01*
X22083481Y15971609D01*
X22074216Y15965706D01*
X22042440Y15947360D01*
X22035352Y15938913D01*
X22018857Y15919255D01*
X22011431Y15911150D01*
X21625763Y15525483D01*
X21569278Y15492872D01*
X21563432Y15491306D01*
X21555246Y15490228D01*
X21547621Y15487069D01*
X21547619Y15487069D01*
X21427986Y15437515D01*
X21427984Y15437514D01*
X21420358Y15434355D01*
X21304526Y15345474D01*
X21215645Y15229642D01*
X21212486Y15222016D01*
X21212485Y15222014D01*
X21205654Y15205522D01*
X21159772Y15094754D01*
X21140715Y14950000D01*
X21141793Y14941812D01*
X21156576Y14829526D01*
X21159772Y14805246D01*
X21163774Y14795584D01*
X21206873Y14691536D01*
X21215645Y14670358D01*
X21220672Y14663807D01*
X21295017Y14566919D01*
X21304526Y14554526D01*
X21311076Y14549500D01*
X21311079Y14549497D01*
X21407253Y14475700D01*
X21420357Y14465645D01*
X21555246Y14409772D01*
X21700000Y14390715D01*
X21708188Y14391793D01*
X21836566Y14408694D01*
X21844754Y14409772D01*
X21979643Y14465645D01*
X21992747Y14475700D01*
X22088921Y14549497D01*
X22088924Y14549500D01*
X22095474Y14554526D01*
X22100501Y14561077D01*
X22106343Y14566919D01*
X22107408Y14565854D01*
X22157372Y14602339D01*
X22228243Y14606563D01*
X22290147Y14571801D01*
X22299049Y14561528D01*
X22299497Y14561080D01*
X22304526Y14554526D01*
X22311076Y14549500D01*
X22311079Y14549497D01*
X22407253Y14475700D01*
X22420357Y14465645D01*
X22555246Y14409772D01*
X22700000Y14390715D01*
X22708188Y14391793D01*
X22836566Y14408694D01*
X22844754Y14409772D01*
X22979643Y14465645D01*
X22992747Y14475700D01*
X23088921Y14549497D01*
X23088924Y14549500D01*
X23095474Y14554526D01*
X23104984Y14566919D01*
X23179328Y14663807D01*
X23184355Y14670358D01*
X23193128Y14691536D01*
X23236226Y14795584D01*
X23240228Y14805246D01*
X23243425Y14829526D01*
X23258207Y14941812D01*
X23259285Y14950000D01*
X23240228Y15094754D01*
X23232336Y15113807D01*
X23185822Y15226103D01*
X23178233Y15296693D01*
X23213136Y15363416D01*
X23510905Y15661185D01*
X23573217Y15695211D01*
X23644032Y15690146D01*
X23689095Y15661185D01*
X23711431Y15638849D01*
X23718857Y15630745D01*
X23742440Y15602640D01*
X23751985Y15597129D01*
X23751989Y15597126D01*
X23774218Y15584293D01*
X23783479Y15578393D01*
X23813534Y15557349D01*
X23824179Y15554496D01*
X23827051Y15553157D01*
X23830017Y15552077D01*
X23839560Y15546568D01*
X23850409Y15544655D01*
X23850417Y15544652D01*
X23875694Y15540195D01*
X23886424Y15537817D01*
X23913328Y15530608D01*
X23973950Y15493656D01*
X23980678Y15485605D01*
X24004526Y15454526D01*
X24011076Y15449500D01*
X24105064Y15377380D01*
X24120357Y15365645D01*
X24255246Y15309772D01*
X24400000Y15290715D01*
X24408188Y15291793D01*
X24536566Y15308694D01*
X24544754Y15309772D01*
X24679643Y15365645D01*
X24688093Y15372129D01*
X24788921Y15449497D01*
X24788924Y15449500D01*
X24795474Y15454526D01*
X24825500Y15493656D01*
X24879328Y15563807D01*
X24884355Y15570358D01*
X24887681Y15578386D01*
X24937069Y15697620D01*
X24940228Y15705246D01*
X24941555Y15715321D01*
X24958207Y15841812D01*
X24959285Y15850000D01*
X24949500Y15924328D01*
X24941306Y15986568D01*
X24941305Y15986570D01*
X24940228Y15994754D01*
X24920422Y16042570D01*
X24887515Y16122014D01*
X24887514Y16122016D01*
X24884355Y16129642D01*
X24810802Y16225498D01*
X24800501Y16238923D01*
X24800500Y16238924D01*
X24795474Y16245474D01*
X24788924Y16250500D01*
X24788921Y16250503D01*
X24686196Y16329327D01*
X24686194Y16329328D01*
X24679643Y16334355D01*
X24607282Y16364328D01*
X24552001Y16408876D01*
X24529500Y16480737D01*
X24529499Y17318877D01*
X24529499Y17325066D01*
X24515605Y17394922D01*
X24521934Y17465636D01*
X24565489Y17521702D01*
X24639183Y17545501D01*
X24850066Y17545501D01*
X24887644Y17552975D01*
X24912126Y17557844D01*
X24912128Y17557845D01*
X24924301Y17560266D01*
X24940307Y17570961D01*
X25008060Y17592175D01*
X25076527Y17573391D01*
X25123970Y17520574D01*
X25134757Y17485903D01*
X25137967Y17465636D01*
X25139946Y17453138D01*
X25195960Y17343204D01*
X25250069Y17289095D01*
X25284095Y17226783D01*
X25279030Y17155968D01*
X25250069Y17110905D01*
X25195960Y17056796D01*
X25139946Y16946862D01*
X25125500Y16855653D01*
X25125501Y16524348D01*
X25126276Y16519455D01*
X25126276Y16519454D01*
X25132347Y16481123D01*
X25139946Y16433138D01*
X25144449Y16424301D01*
X25144449Y16424300D01*
X25161733Y16390378D01*
X25195960Y16323204D01*
X25283204Y16235960D01*
X25393138Y16179946D01*
X25402927Y16178396D01*
X25402929Y16178395D01*
X25484347Y16165500D01*
X25484142Y16164207D01*
X25544865Y16141063D01*
X25587006Y16083926D01*
X25591565Y16013076D01*
X25557097Y15951008D01*
X25516858Y15924327D01*
X25427986Y15887515D01*
X25427984Y15887514D01*
X25420358Y15884355D01*
X25304526Y15795474D01*
X25299503Y15788928D01*
X25295940Y15784285D01*
X25215645Y15679642D01*
X25212486Y15672016D01*
X25212485Y15672014D01*
X25188425Y15613928D01*
X25159772Y15544754D01*
X25158695Y15536570D01*
X25158694Y15536568D01*
X25146426Y15443379D01*
X25140715Y15400000D01*
X25141793Y15391812D01*
X25155322Y15289050D01*
X25159772Y15255246D01*
X25215645Y15120358D01*
X25220672Y15113807D01*
X25304526Y15004526D01*
X25302858Y15003246D01*
X25331506Y14950783D01*
X25326441Y14879968D01*
X25283894Y14823132D01*
X25217374Y14798321D01*
X25208385Y14798000D01*
X24599392Y14798000D01*
X24588410Y14798479D01*
X24584478Y14798823D01*
X24551857Y14801677D01*
X24541206Y14798823D01*
X24516419Y14792182D01*
X24505690Y14789804D01*
X24480421Y14785348D01*
X24480416Y14785346D01*
X24469560Y14783432D01*
X24460013Y14777919D01*
X24457047Y14776840D01*
X24454186Y14775506D01*
X24443534Y14772652D01*
X24434504Y14766329D01*
X24413480Y14751608D01*
X24404210Y14745703D01*
X24381989Y14732874D01*
X24381985Y14732871D01*
X24372440Y14727360D01*
X24365352Y14718913D01*
X24348857Y14699255D01*
X24341431Y14691151D01*
X24138849Y14488569D01*
X24130745Y14481143D01*
X24102640Y14457560D01*
X24097129Y14448015D01*
X24097126Y14448011D01*
X24084297Y14425790D01*
X24078392Y14416520D01*
X24057348Y14386466D01*
X24054494Y14375814D01*
X24053160Y14372953D01*
X24052081Y14369987D01*
X24046568Y14360440D01*
X24044654Y14349584D01*
X24044652Y14349579D01*
X24040196Y14324310D01*
X24037819Y14313585D01*
X24033615Y14297893D01*
X23996666Y14237268D01*
X23932806Y14206244D01*
X23911907Y14204499D01*
X23324934Y14204499D01*
X23289182Y14197388D01*
X23262874Y14192156D01*
X23262872Y14192155D01*
X23250699Y14189734D01*
X23240379Y14182839D01*
X23240378Y14182838D01*
X23185508Y14146174D01*
X23166516Y14133484D01*
X23110266Y14049301D01*
X23095500Y13975067D01*
X23095500Y12557500D01*
X23075498Y12489379D01*
X23021842Y12442886D01*
X22969500Y12431500D01*
X19430499Y12431500D01*
X19362378Y12451502D01*
X19315885Y12505158D01*
X19304499Y12557500D01*
X19304499Y12825066D01*
X19292965Y12883058D01*
X19292156Y12887126D01*
X19292155Y12887128D01*
X19289734Y12899301D01*
X19233484Y12983484D01*
X19172329Y13024347D01*
X19159620Y13032839D01*
X19149301Y13039734D01*
X19075067Y13054500D01*
X18050166Y13054500D01*
X17024934Y13054499D01*
X16968578Y13043290D01*
X16897866Y13049619D01*
X16841799Y13093174D01*
X16818000Y13166869D01*
X16818000Y17516090D01*
X16838002Y17584211D01*
X16854905Y17605185D01*
X17119815Y17870095D01*
X17182127Y17904121D01*
X17208910Y17907000D01*
X18644501Y17907000D01*
X18712622Y17886998D01*
G37*
%TD.AperFunction*%
%TA.AperFunction,Conductor*%
G36*
X20599933Y21345500D02*
G01*
X20699983Y21345500D01*
X20800066Y21345501D01*
X20850419Y21355516D01*
X20899579Y21355516D01*
X20949933Y21345500D01*
X21049983Y21345500D01*
X21150066Y21345501D01*
X21200419Y21355516D01*
X21249579Y21355516D01*
X21299933Y21345500D01*
X21399983Y21345500D01*
X21500066Y21345501D01*
X21550419Y21355516D01*
X21599579Y21355516D01*
X21649933Y21345500D01*
X21749983Y21345500D01*
X21850066Y21345501D01*
X21900419Y21355516D01*
X21949579Y21355516D01*
X21999933Y21345500D01*
X22099983Y21345500D01*
X22200066Y21345501D01*
X22250419Y21355516D01*
X22299579Y21355516D01*
X22349933Y21345500D01*
X22449983Y21345500D01*
X22550066Y21345501D01*
X22600419Y21355516D01*
X22649579Y21355516D01*
X22699933Y21345500D01*
X22799983Y21345500D01*
X22900066Y21345501D01*
X22950419Y21355516D01*
X22999579Y21355516D01*
X23049933Y21345500D01*
X23149983Y21345500D01*
X23250066Y21345501D01*
X23300419Y21355516D01*
X23349579Y21355516D01*
X23399933Y21345500D01*
X23499983Y21345500D01*
X23600066Y21345501D01*
X23639549Y21353354D01*
X23710263Y21347025D01*
X23766329Y21303470D01*
X23789947Y21236517D01*
X23783631Y21199626D01*
X23785266Y21199301D01*
X23770500Y21125067D01*
X23770501Y20924934D01*
X23775014Y20902244D01*
X23780516Y20874581D01*
X23780516Y20825422D01*
X23770500Y20775067D01*
X23770501Y20574934D01*
X23778387Y20535287D01*
X23780516Y20524581D01*
X23780516Y20475422D01*
X23770500Y20425067D01*
X23770501Y20224934D01*
X23771709Y20218862D01*
X23780516Y20174581D01*
X23780516Y20125422D01*
X23770500Y20075067D01*
X23770501Y19874934D01*
X23780516Y19824582D01*
X23780516Y19775422D01*
X23770500Y19725067D01*
X23770501Y19524934D01*
X23778256Y19485943D01*
X23780516Y19474581D01*
X23780516Y19425422D01*
X23770500Y19375067D01*
X23770501Y19174934D01*
X23771709Y19168862D01*
X23780516Y19124581D01*
X23780516Y19075422D01*
X23770500Y19025067D01*
X23770501Y18824934D01*
X23776603Y18794255D01*
X23780516Y18774581D01*
X23780516Y18725422D01*
X23770500Y18675067D01*
X23770501Y18474934D01*
X23771709Y18468862D01*
X23780516Y18424581D01*
X23780516Y18375422D01*
X23770500Y18325067D01*
X23770501Y18124934D01*
X23779258Y18080906D01*
X23780516Y18074581D01*
X23780516Y18025422D01*
X23770500Y17975067D01*
X23770501Y17774934D01*
X23783336Y17710404D01*
X23785266Y17700699D01*
X23782504Y17700150D01*
X23788125Y17647848D01*
X23756342Y17584362D01*
X23695282Y17548138D01*
X23639547Y17546647D01*
X23606135Y17553293D01*
X23600067Y17554500D01*
X23500017Y17554500D01*
X23399934Y17554499D01*
X23349581Y17544484D01*
X23300421Y17544484D01*
X23256135Y17553293D01*
X23250067Y17554500D01*
X23150017Y17554500D01*
X23049934Y17554499D01*
X22999581Y17544484D01*
X22950421Y17544484D01*
X22906135Y17553293D01*
X22900067Y17554500D01*
X22800017Y17554500D01*
X22699934Y17554499D01*
X22649581Y17544484D01*
X22600421Y17544484D01*
X22556135Y17553293D01*
X22550067Y17554500D01*
X22450017Y17554500D01*
X22349934Y17554499D01*
X22299581Y17544484D01*
X22250421Y17544484D01*
X22206135Y17553293D01*
X22200067Y17554500D01*
X22100017Y17554500D01*
X21999934Y17554499D01*
X21949581Y17544484D01*
X21900421Y17544484D01*
X21856135Y17553293D01*
X21850067Y17554500D01*
X21750017Y17554500D01*
X21649934Y17554499D01*
X21599581Y17544484D01*
X21550421Y17544484D01*
X21506135Y17553293D01*
X21500067Y17554500D01*
X21400017Y17554500D01*
X21299934Y17554499D01*
X21249581Y17544484D01*
X21200421Y17544484D01*
X21156135Y17553293D01*
X21150067Y17554500D01*
X21050017Y17554500D01*
X20949934Y17554499D01*
X20899581Y17544484D01*
X20850421Y17544484D01*
X20806135Y17553293D01*
X20800067Y17554500D01*
X20700017Y17554500D01*
X20599934Y17554499D01*
X20549581Y17544484D01*
X20500421Y17544484D01*
X20456135Y17553293D01*
X20450067Y17554500D01*
X20350017Y17554500D01*
X20249934Y17554499D01*
X20210451Y17546646D01*
X20139737Y17552975D01*
X20083671Y17596530D01*
X20060053Y17663483D01*
X20066369Y17700374D01*
X20064734Y17700699D01*
X20078293Y17768865D01*
X20079500Y17774933D01*
X20079499Y17975066D01*
X20069483Y18025424D01*
X20069484Y18074581D01*
X20079500Y18124933D01*
X20079499Y18325066D01*
X20069483Y18375424D01*
X20069484Y18424581D01*
X20079500Y18474933D01*
X20079499Y18675066D01*
X20069483Y18725424D01*
X20069484Y18774581D01*
X20079500Y18824933D01*
X20079499Y19025066D01*
X20069483Y19075424D01*
X20069484Y19124581D01*
X20079500Y19174933D01*
X20079499Y19375066D01*
X20069483Y19425424D01*
X20069484Y19474581D01*
X20079500Y19524933D01*
X20079499Y19725066D01*
X20069483Y19775424D01*
X20069484Y19824581D01*
X20079500Y19874933D01*
X20079499Y20075066D01*
X20069483Y20125424D01*
X20069484Y20174581D01*
X20079500Y20224933D01*
X20079499Y20425066D01*
X20069483Y20475424D01*
X20069484Y20524581D01*
X20079500Y20574933D01*
X20079499Y20775066D01*
X20069483Y20825424D01*
X20069484Y20874581D01*
X20079500Y20924933D01*
X20079499Y21125066D01*
X20064734Y21199301D01*
X20067496Y21199850D01*
X20061875Y21252152D01*
X20093658Y21315638D01*
X20154718Y21351862D01*
X20210453Y21353353D01*
X20249933Y21345500D01*
X20349983Y21345500D01*
X20450066Y21345501D01*
X20500419Y21355516D01*
X20549579Y21355516D01*
X20599933Y21345500D01*
G37*
%TD.AperFunction*%
%TD*%
M02*
