%TF.GenerationSoftware,KiCad,Pcbnew,(6.0.0-0)*%
%TF.CreationDate,2022-12-06T19:34:54+01:00*%
%TF.ProjectId,esp32-led,65737033-322d-46c6-9564-2e6b69636164,rev?*%
%TF.SameCoordinates,Original*%
%TF.FileFunction,Copper,L2,Inr*%
%TF.FilePolarity,Positive*%
%FSLAX46Y46*%
G04 Gerber Fmt 4.6, Leading zero omitted, Abs format (unit mm)*
G04 Created by KiCad (PCBNEW (6.0.0-0)) date 2022-12-06 19:34:54*
%MOMM*%
%LPD*%
G01*
G04 APERTURE LIST*
%TA.AperFunction,ComponentPad*%
%ADD10R,2.600000X2.600000*%
%TD*%
%TA.AperFunction,ComponentPad*%
%ADD11C,2.600000*%
%TD*%
%TA.AperFunction,ComponentPad*%
%ADD12C,0.600000*%
%TD*%
%TA.AperFunction,ComponentPad*%
%ADD13C,4.400000*%
%TD*%
%TA.AperFunction,ComponentPad*%
%ADD14O,1.300000X2.300000*%
%TD*%
%TA.AperFunction,ComponentPad*%
%ADD15O,1.300000X2.600000*%
%TD*%
%TA.AperFunction,ViaPad*%
%ADD16C,0.600000*%
%TD*%
%TA.AperFunction,ViaPad*%
%ADD17C,0.685800*%
%TD*%
%TA.AperFunction,ViaPad*%
%ADD18C,0.889000*%
%TD*%
G04 APERTURE END LIST*
D10*
%TO.N,+5V*%
%TO.C,J2*%
X10795000Y25360000D03*
D11*
%TO.N,GPIO26*%
X10795000Y20280000D03*
%TO.N,GND*%
X10795000Y15200000D03*
%TO.N,+5V*%
X10795000Y10120000D03*
%TO.N,GND*%
X10795000Y5040000D03*
%TD*%
D12*
%TO.N,GND*%
%TO.C,U1*%
X34730000Y13650000D03*
X33980000Y12900000D03*
X33230000Y13650000D03*
X33230000Y12150000D03*
X34730000Y12150000D03*
%TD*%
D13*
%TO.N,GND*%
%TO.C,H1*%
X18300000Y31700000D03*
%TD*%
D14*
%TO.N,GND*%
%TO.C,J1*%
X35620000Y6575000D03*
D15*
X35620000Y2750000D03*
X26980000Y2750000D03*
D14*
X26980000Y6575000D03*
%TD*%
D12*
%TO.N,GND*%
%TO.C,IC1*%
X21925000Y18450000D03*
X20925000Y20450000D03*
X21925000Y19450000D03*
X22925000Y19450000D03*
X21925000Y20450000D03*
X22925000Y20450000D03*
X20925000Y19450000D03*
X20925000Y18450000D03*
X22925000Y18450000D03*
%TD*%
D13*
%TO.N,GND*%
%TO.C,H2*%
X26300000Y31700000D03*
%TD*%
D16*
%TO.N,GND*%
X37400000Y2100000D03*
X19450000Y14800000D03*
X23650000Y3900000D03*
X19450000Y13900000D03*
X37400000Y6750000D03*
X29400000Y13200000D03*
X23650000Y2800000D03*
D17*
X26390000Y27100000D03*
D16*
X29400000Y14000000D03*
X17200000Y4950000D03*
X26250000Y12650000D03*
D17*
X26390000Y25100000D03*
D16*
X37080000Y9800000D03*
%TO.N,EN*%
X18700000Y4650000D03*
X18700000Y24100000D03*
%TO.N,+3V3*%
X25550000Y20325000D03*
X26800000Y15400000D03*
X23050000Y24100000D03*
X37180000Y14950000D03*
X25700000Y15400000D03*
X22250000Y24100000D03*
X24400000Y15850000D03*
X37980000Y11680000D03*
X27900000Y15400000D03*
X17900000Y19000000D03*
X25550000Y21400000D03*
X33200000Y23200000D03*
X25560000Y19275000D03*
X35280000Y8900000D03*
%TO.N,SCL*%
X33250000Y19200000D03*
X21700000Y14950000D03*
%TO.N,SDA*%
X22700000Y14950000D03*
X33200000Y21200000D03*
D18*
%TO.N,+5V*%
X19225000Y7275000D03*
X19225000Y6200000D03*
%TO.N,/5V to 3.3V Power/VBUS*%
X24350000Y7250000D03*
X24350000Y6175000D03*
X33650000Y8000000D03*
X25800000Y8200000D03*
D16*
%TO.N,/USB to UART /RTS*%
X19600000Y4650000D03*
X30975000Y15225000D03*
%TO.N,/USB to UART /DTR*%
X31000000Y12600000D03*
X21000000Y1950000D03*
%TD*%
%TA.AperFunction,Conductor*%
%TO.N,GND*%
G36*
X26000703Y34190500D02*
G01*
X26015504Y34188195D01*
X26015507Y34188195D01*
X26024376Y34186814D01*
X26033278Y34187978D01*
X26033283Y34187978D01*
X26044483Y34189443D01*
X26066510Y34190378D01*
X26103337Y34188713D01*
X26204738Y34184128D01*
X26216057Y34183103D01*
X26346817Y34165267D01*
X26383092Y34160319D01*
X26394288Y34158273D01*
X26558576Y34120511D01*
X26569539Y34117464D01*
X26693994Y34076730D01*
X26716963Y34066579D01*
X26727464Y34060623D01*
X26736199Y34058564D01*
X26736202Y34058563D01*
X26758406Y34053330D01*
X26774061Y34048548D01*
X36638441Y30318732D01*
X37208382Y30103232D01*
X37225976Y30094976D01*
X37246816Y30083156D01*
X37255551Y30081097D01*
X37255554Y30081096D01*
X37263655Y30079187D01*
X37286351Y30071496D01*
X37467181Y29990318D01*
X37480671Y29983253D01*
X37673749Y29866756D01*
X37686288Y29858116D01*
X37863887Y29719190D01*
X37875293Y29709100D01*
X38034843Y29549757D01*
X38044948Y29538365D01*
X38184113Y29360933D01*
X38192769Y29348405D01*
X38309510Y29155489D01*
X38316592Y29142008D01*
X38409208Y28936416D01*
X38414609Y28922188D01*
X38481749Y28706916D01*
X38485395Y28692140D01*
X38526075Y28470340D01*
X38527912Y28455224D01*
X38539453Y28264592D01*
X38538199Y28237947D01*
X38538196Y28237677D01*
X38536814Y28228803D01*
X38537978Y28219901D01*
X38537978Y28219898D01*
X38540936Y28197282D01*
X38542000Y28180944D01*
X38542000Y12510157D01*
X38521998Y12442036D01*
X38468342Y12395543D01*
X38398068Y12385439D01*
X38348487Y12403771D01*
X38347127Y12404634D01*
X38336666Y12411273D01*
X38300486Y12424156D01*
X38172425Y12469757D01*
X38172420Y12469758D01*
X38165790Y12472119D01*
X38158802Y12472952D01*
X38158799Y12472953D01*
X38035698Y12487632D01*
X37985680Y12493596D01*
X37978677Y12492860D01*
X37978676Y12492860D01*
X37812288Y12475372D01*
X37812286Y12475371D01*
X37805288Y12474636D01*
X37633579Y12416182D01*
X37583607Y12385439D01*
X37485095Y12324834D01*
X37485092Y12324832D01*
X37479088Y12321138D01*
X37474053Y12316207D01*
X37474050Y12316205D01*
X37354525Y12199157D01*
X37349493Y12194229D01*
X37251235Y12041762D01*
X37248826Y12035142D01*
X37248824Y12035139D01*
X37191606Y11877934D01*
X37189197Y11871315D01*
X37166463Y11691360D01*
X37184163Y11510840D01*
X37241418Y11338727D01*
X37335380Y11183576D01*
X37461382Y11053098D01*
X37613159Y10953778D01*
X37619763Y10951322D01*
X37619765Y10951321D01*
X37776558Y10893010D01*
X37776560Y10893010D01*
X37783168Y10890552D01*
X37866995Y10879367D01*
X37955980Y10867493D01*
X37955984Y10867493D01*
X37962961Y10866562D01*
X37969972Y10867200D01*
X37969976Y10867200D01*
X38112459Y10880168D01*
X38143600Y10883002D01*
X38150302Y10885180D01*
X38150304Y10885180D01*
X38309409Y10936876D01*
X38309412Y10936877D01*
X38316108Y10939053D01*
X38351484Y10960142D01*
X38420237Y10977841D01*
X38487646Y10955559D01*
X38532309Y10900371D01*
X38542000Y10851912D01*
X38542000Y3749328D01*
X38540500Y3729944D01*
X38536814Y3706270D01*
X38538941Y3690001D01*
X38539734Y3665433D01*
X38525498Y3448234D01*
X38523347Y3431894D01*
X38475735Y3192530D01*
X38471471Y3176617D01*
X38436550Y3073743D01*
X38393023Y2945516D01*
X38386716Y2930290D01*
X38278776Y2711408D01*
X38270535Y2697134D01*
X38134950Y2494217D01*
X38124917Y2481142D01*
X37964002Y2297653D01*
X37952347Y2285998D01*
X37768858Y2125083D01*
X37755783Y2115050D01*
X37552866Y1979465D01*
X37538592Y1971224D01*
X37319710Y1863284D01*
X37304486Y1856978D01*
X37073383Y1778529D01*
X37057473Y1774266D01*
X36937788Y1750459D01*
X36818106Y1726653D01*
X36801766Y1724502D01*
X36591732Y1710736D01*
X36568696Y1711761D01*
X36565146Y1711804D01*
X36556270Y1713186D01*
X36527762Y1709458D01*
X36524749Y1709064D01*
X36508411Y1708000D01*
X21927427Y1708000D01*
X21859306Y1728002D01*
X21812813Y1781658D01*
X21802653Y1851535D01*
X21813299Y1927283D01*
X21813616Y1950000D01*
X21793397Y2130255D01*
X21791080Y2136909D01*
X21736064Y2294894D01*
X21736062Y2294897D01*
X21733745Y2301552D01*
X21637626Y2455376D01*
X21623941Y2469157D01*
X21514778Y2579085D01*
X21514774Y2579088D01*
X21509815Y2584082D01*
X21498697Y2591138D01*
X21450538Y2621700D01*
X21356666Y2681273D01*
X21292841Y2704000D01*
X21192425Y2739757D01*
X21192420Y2739758D01*
X21185790Y2742119D01*
X21178802Y2742952D01*
X21178799Y2742953D01*
X21055698Y2757632D01*
X21005680Y2763596D01*
X20998677Y2762860D01*
X20998676Y2762860D01*
X20832288Y2745372D01*
X20832286Y2745371D01*
X20825288Y2744636D01*
X20653579Y2686182D01*
X20647575Y2682488D01*
X20505095Y2594834D01*
X20505092Y2594832D01*
X20499088Y2591138D01*
X20494053Y2586207D01*
X20494050Y2586205D01*
X20393100Y2487347D01*
X20369493Y2464229D01*
X20271235Y2311762D01*
X20268826Y2305142D01*
X20268824Y2305139D01*
X20211606Y2147934D01*
X20209197Y2141315D01*
X20186463Y1961360D01*
X20190189Y1923363D01*
X20197745Y1846295D01*
X20184485Y1776548D01*
X20135623Y1725041D01*
X20072346Y1708000D01*
X8099328Y1708000D01*
X8079943Y1709500D01*
X8065142Y1711805D01*
X8065139Y1711805D01*
X8056270Y1713186D01*
X8040001Y1711059D01*
X8015433Y1710266D01*
X7798234Y1724502D01*
X7781894Y1726653D01*
X7662212Y1750459D01*
X7542527Y1774266D01*
X7526617Y1778529D01*
X7295514Y1856978D01*
X7280290Y1863284D01*
X7061408Y1971224D01*
X7047134Y1979465D01*
X6844217Y2115050D01*
X6831142Y2125083D01*
X6647653Y2285998D01*
X6635998Y2297653D01*
X6475083Y2481142D01*
X6465050Y2494217D01*
X6329465Y2697134D01*
X6321224Y2711408D01*
X6213284Y2930290D01*
X6206977Y2945516D01*
X6163450Y3073743D01*
X6128529Y3176617D01*
X6124265Y3192530D01*
X6076653Y3431894D01*
X6074502Y3448234D01*
X6060974Y3654624D01*
X6062147Y3677782D01*
X6061829Y3677811D01*
X6062264Y3682667D01*
X6063071Y3687461D01*
X6063224Y3700000D01*
X6059273Y3727588D01*
X6058000Y3745451D01*
X6058000Y4661360D01*
X17886463Y4661360D01*
X17904163Y4480840D01*
X17961418Y4308727D01*
X17965065Y4302705D01*
X17965066Y4302703D01*
X17975978Y4284686D01*
X18055380Y4153576D01*
X18181382Y4023098D01*
X18187278Y4019240D01*
X18312607Y3937227D01*
X18333159Y3923778D01*
X18339763Y3921322D01*
X18339765Y3921321D01*
X18496558Y3863010D01*
X18496560Y3863010D01*
X18503168Y3860552D01*
X18586995Y3849367D01*
X18675980Y3837493D01*
X18675984Y3837493D01*
X18682961Y3836562D01*
X18689972Y3837200D01*
X18689976Y3837200D01*
X18832459Y3850168D01*
X18863600Y3853002D01*
X18870302Y3855180D01*
X18870304Y3855180D01*
X19029409Y3906876D01*
X19029412Y3906877D01*
X19036108Y3909053D01*
X19083370Y3937227D01*
X19152125Y3954927D01*
X19216881Y3934430D01*
X19233159Y3923778D01*
X19239763Y3921322D01*
X19239765Y3921321D01*
X19396558Y3863010D01*
X19396560Y3863010D01*
X19403168Y3860552D01*
X19486995Y3849367D01*
X19575980Y3837493D01*
X19575984Y3837493D01*
X19582961Y3836562D01*
X19589972Y3837200D01*
X19589976Y3837200D01*
X19732459Y3850168D01*
X19763600Y3853002D01*
X19770302Y3855180D01*
X19770304Y3855180D01*
X19929409Y3906876D01*
X19929412Y3906877D01*
X19936108Y3909053D01*
X20091912Y4001931D01*
X20223266Y4127018D01*
X20323643Y4278098D01*
X20388055Y4447662D01*
X20389035Y4454634D01*
X20412748Y4623361D01*
X20412748Y4623364D01*
X20413299Y4627283D01*
X20413616Y4650000D01*
X20393397Y4830255D01*
X20391080Y4836909D01*
X20336064Y4994894D01*
X20336062Y4994897D01*
X20333745Y5001552D01*
X20299346Y5056603D01*
X20241359Y5149402D01*
X20237626Y5155376D01*
X20223941Y5169157D01*
X20114778Y5279085D01*
X20114774Y5279088D01*
X20109815Y5284082D01*
X20098697Y5291138D01*
X19964011Y5376612D01*
X19917212Y5430001D01*
X19906707Y5500216D01*
X19936143Y5565327D01*
X20007507Y5648002D01*
X20099821Y5810505D01*
X20114091Y5853400D01*
X20148551Y5956991D01*
X20158814Y5987843D01*
X20165709Y6042425D01*
X20181796Y6169759D01*
X20181797Y6169768D01*
X20182238Y6173262D01*
X20182449Y6188370D01*
X23392482Y6188370D01*
X23392998Y6182226D01*
X23406813Y6017712D01*
X23408121Y6002133D01*
X23459636Y5822480D01*
X23545064Y5656254D01*
X23548887Y5651430D01*
X23548890Y5651426D01*
X23584351Y5606686D01*
X23661152Y5509788D01*
X23665846Y5505793D01*
X23767189Y5419543D01*
X23803478Y5388658D01*
X23966621Y5297481D01*
X24144367Y5239728D01*
X24329945Y5217599D01*
X24336080Y5218071D01*
X24336082Y5218071D01*
X24392119Y5222383D01*
X24516287Y5231937D01*
X24696296Y5282196D01*
X24701785Y5284969D01*
X24701791Y5284971D01*
X24811094Y5340185D01*
X24863114Y5366462D01*
X24876106Y5376612D01*
X24931054Y5419543D01*
X25010387Y5481525D01*
X25014413Y5486189D01*
X25014416Y5486192D01*
X25128480Y5618337D01*
X25132507Y5623002D01*
X25224821Y5785505D01*
X25231356Y5805148D01*
X25248166Y5855680D01*
X27486404Y5855680D01*
X27487140Y5848677D01*
X27487140Y5848676D01*
X27487842Y5842003D01*
X27505364Y5675288D01*
X27563818Y5503579D01*
X27567512Y5497575D01*
X27645841Y5370254D01*
X27658862Y5349088D01*
X27663793Y5344053D01*
X27663795Y5344050D01*
X27725988Y5280541D01*
X27785771Y5219493D01*
X27938238Y5121235D01*
X27944858Y5118826D01*
X27944861Y5118824D01*
X28102066Y5061606D01*
X28108685Y5059197D01*
X28248769Y5041500D01*
X28345610Y5041500D01*
X28480255Y5056603D01*
X28494622Y5061606D01*
X28644894Y5113936D01*
X28644897Y5113938D01*
X28651552Y5116255D01*
X28659522Y5121235D01*
X28799402Y5208641D01*
X28805376Y5212374D01*
X28826744Y5233593D01*
X28929085Y5335222D01*
X28929088Y5335226D01*
X28934082Y5340185D01*
X28963273Y5386182D01*
X29021371Y5477731D01*
X29031273Y5493334D01*
X29071636Y5606686D01*
X29089757Y5657575D01*
X29089758Y5657580D01*
X29092119Y5664210D01*
X29094152Y5681254D01*
X29112762Y5837327D01*
X29113596Y5844320D01*
X29112402Y5855680D01*
X33361404Y5855680D01*
X33362140Y5848677D01*
X33362140Y5848676D01*
X33362842Y5842003D01*
X33380364Y5675288D01*
X33438818Y5503579D01*
X33442512Y5497575D01*
X33520841Y5370254D01*
X33533862Y5349088D01*
X33538793Y5344053D01*
X33538795Y5344050D01*
X33600988Y5280541D01*
X33660771Y5219493D01*
X33813238Y5121235D01*
X33819858Y5118826D01*
X33819861Y5118824D01*
X33977066Y5061606D01*
X33983685Y5059197D01*
X34123769Y5041500D01*
X34470610Y5041500D01*
X34605255Y5056603D01*
X34619622Y5061606D01*
X34769894Y5113936D01*
X34769897Y5113938D01*
X34776552Y5116255D01*
X34784522Y5121235D01*
X34924402Y5208641D01*
X34930376Y5212374D01*
X34951744Y5233593D01*
X35054085Y5335222D01*
X35054088Y5335226D01*
X35059082Y5340185D01*
X35088273Y5386182D01*
X35146371Y5477731D01*
X35156273Y5493334D01*
X35196636Y5606686D01*
X35214757Y5657575D01*
X35214758Y5657580D01*
X35217119Y5664210D01*
X35219152Y5681254D01*
X35237762Y5837327D01*
X35238596Y5844320D01*
X35226139Y5962843D01*
X35220372Y6017712D01*
X35220371Y6017714D01*
X35219636Y6024712D01*
X35161182Y6196421D01*
X35066138Y6350912D01*
X35061207Y6355947D01*
X35061205Y6355950D01*
X34944157Y6475475D01*
X34944156Y6475476D01*
X34939229Y6480507D01*
X34786762Y6578765D01*
X34780142Y6581174D01*
X34780139Y6581176D01*
X34622934Y6638394D01*
X34622933Y6638394D01*
X34616315Y6640803D01*
X34476231Y6658500D01*
X34129390Y6658500D01*
X33994745Y6643397D01*
X33988092Y6641080D01*
X33988091Y6641080D01*
X33830106Y6586064D01*
X33830103Y6586062D01*
X33823448Y6583745D01*
X33817469Y6580009D01*
X33783875Y6559017D01*
X33669624Y6487626D01*
X33664628Y6482665D01*
X33664627Y6482664D01*
X33545915Y6364778D01*
X33545912Y6364774D01*
X33540918Y6359815D01*
X33443727Y6206666D01*
X33441362Y6200024D01*
X33385243Y6042425D01*
X33385242Y6042420D01*
X33382881Y6035790D01*
X33382048Y6028802D01*
X33382047Y6028799D01*
X33373485Y5956991D01*
X33361404Y5855680D01*
X29112402Y5855680D01*
X29101139Y5962843D01*
X29095372Y6017712D01*
X29095371Y6017714D01*
X29094636Y6024712D01*
X29036182Y6196421D01*
X28941138Y6350912D01*
X28936207Y6355947D01*
X28936205Y6355950D01*
X28819157Y6475475D01*
X28819156Y6475476D01*
X28814229Y6480507D01*
X28661762Y6578765D01*
X28655142Y6581174D01*
X28655139Y6581176D01*
X28497934Y6638394D01*
X28497933Y6638394D01*
X28491315Y6640803D01*
X28351231Y6658500D01*
X28254390Y6658500D01*
X28119745Y6643397D01*
X28113092Y6641080D01*
X28113091Y6641080D01*
X27955106Y6586064D01*
X27955103Y6586062D01*
X27948448Y6583745D01*
X27942469Y6580009D01*
X27908875Y6559017D01*
X27794624Y6487626D01*
X27789628Y6482665D01*
X27789627Y6482664D01*
X27670915Y6364778D01*
X27670912Y6364774D01*
X27665918Y6359815D01*
X27568727Y6206666D01*
X27566362Y6200024D01*
X27510243Y6042425D01*
X27510242Y6042420D01*
X27507881Y6035790D01*
X27507048Y6028802D01*
X27507047Y6028799D01*
X27498485Y5956991D01*
X27486404Y5855680D01*
X25248166Y5855680D01*
X25281867Y5956991D01*
X25283814Y5962843D01*
X25292472Y6031376D01*
X25306796Y6144759D01*
X25306797Y6144768D01*
X25307238Y6148262D01*
X25307611Y6175000D01*
X25289373Y6361001D01*
X25285419Y6374099D01*
X25252140Y6484323D01*
X25235355Y6539917D01*
X25174734Y6653930D01*
X25160415Y6723468D01*
X25176429Y6775319D01*
X25221778Y6855148D01*
X25221779Y6855149D01*
X25224821Y6860505D01*
X25231356Y6880148D01*
X25281867Y7031991D01*
X25283814Y7037843D01*
X25304502Y7201602D01*
X25332884Y7266679D01*
X25391944Y7306080D01*
X25468443Y7305643D01*
X25594367Y7264728D01*
X25779945Y7242599D01*
X25786080Y7243071D01*
X25786082Y7243071D01*
X25853543Y7248262D01*
X25966287Y7256937D01*
X26146296Y7307196D01*
X26151785Y7309969D01*
X26151791Y7309971D01*
X26229159Y7349053D01*
X26313114Y7391462D01*
X26460387Y7506525D01*
X26464413Y7511189D01*
X26464416Y7511192D01*
X26578480Y7643337D01*
X26582507Y7648002D01*
X26661947Y7787843D01*
X26671778Y7805148D01*
X26671779Y7805149D01*
X26674821Y7810505D01*
X26678225Y7820736D01*
X26717250Y7938050D01*
X26733814Y7987843D01*
X26737039Y8013370D01*
X32692482Y8013370D01*
X32708121Y7827133D01*
X32709819Y7821212D01*
X32709819Y7821211D01*
X32716047Y7799493D01*
X32759636Y7647480D01*
X32781392Y7605148D01*
X32832077Y7506525D01*
X32845064Y7481254D01*
X32848887Y7476430D01*
X32848890Y7476426D01*
X32918433Y7388686D01*
X32961152Y7334788D01*
X32965846Y7330793D01*
X33060777Y7250000D01*
X33103478Y7213658D01*
X33266621Y7122481D01*
X33444367Y7064728D01*
X33629945Y7042599D01*
X33636080Y7043071D01*
X33636082Y7043071D01*
X33692119Y7047383D01*
X33816287Y7056937D01*
X33996296Y7107196D01*
X34001785Y7109969D01*
X34001791Y7109971D01*
X34079159Y7149053D01*
X34163114Y7191462D01*
X34191524Y7213658D01*
X34229499Y7243328D01*
X34310387Y7306525D01*
X34314413Y7311189D01*
X34314416Y7311192D01*
X34428480Y7443337D01*
X34432507Y7448002D01*
X34524821Y7610505D01*
X34532643Y7634017D01*
X34581867Y7781991D01*
X34583814Y7787843D01*
X34589553Y7833273D01*
X34606796Y7969759D01*
X34606797Y7969768D01*
X34607238Y7973262D01*
X34607611Y8000000D01*
X34594117Y8137619D01*
X34607376Y8207367D01*
X34656239Y8258874D01*
X34725191Y8275787D01*
X34788508Y8255347D01*
X34823288Y8232588D01*
X34895911Y8185065D01*
X34913159Y8173778D01*
X34919763Y8171322D01*
X34919765Y8171321D01*
X35076558Y8113010D01*
X35076560Y8113010D01*
X35083168Y8110552D01*
X35166995Y8099367D01*
X35255980Y8087493D01*
X35255984Y8087493D01*
X35262961Y8086562D01*
X35269972Y8087200D01*
X35269976Y8087200D01*
X35412459Y8100168D01*
X35443600Y8103002D01*
X35450302Y8105180D01*
X35450304Y8105180D01*
X35609409Y8156876D01*
X35609412Y8156877D01*
X35616108Y8159053D01*
X35771912Y8251931D01*
X35903266Y8377018D01*
X36003643Y8528098D01*
X36045423Y8638083D01*
X36065555Y8691080D01*
X36065556Y8691082D01*
X36068055Y8697662D01*
X36074139Y8740950D01*
X36092748Y8873361D01*
X36092748Y8873364D01*
X36093299Y8877283D01*
X36093616Y8900000D01*
X36073397Y9080255D01*
X36071080Y9086909D01*
X36016064Y9244894D01*
X36016062Y9244897D01*
X36013745Y9251552D01*
X35917626Y9405376D01*
X35903941Y9419157D01*
X35794778Y9529085D01*
X35794774Y9529088D01*
X35789815Y9534082D01*
X35778697Y9541138D01*
X35730538Y9571700D01*
X35636666Y9631273D01*
X35607463Y9641672D01*
X35472425Y9689757D01*
X35472420Y9689758D01*
X35465790Y9692119D01*
X35458802Y9692952D01*
X35458799Y9692953D01*
X35335698Y9707632D01*
X35285680Y9713596D01*
X35278677Y9712860D01*
X35278676Y9712860D01*
X35112288Y9695372D01*
X35112286Y9695371D01*
X35105288Y9694636D01*
X34933579Y9636182D01*
X34927575Y9632488D01*
X34785095Y9544834D01*
X34785092Y9544832D01*
X34779088Y9541138D01*
X34774053Y9536207D01*
X34774050Y9536205D01*
X34736795Y9499722D01*
X34649493Y9414229D01*
X34551235Y9261762D01*
X34548826Y9255142D01*
X34548824Y9255139D01*
X34506442Y9138696D01*
X34489197Y9091315D01*
X34466463Y8911360D01*
X34469265Y8882786D01*
X34473969Y8834805D01*
X34460709Y8765058D01*
X34411846Y8713551D01*
X34342894Y8696638D01*
X34275743Y8719688D01*
X34268255Y8725425D01*
X34261710Y8730840D01*
X34220347Y8765058D01*
X34190239Y8789966D01*
X34190236Y8789968D01*
X34185489Y8793895D01*
X34021089Y8882786D01*
X33906188Y8918354D01*
X33848441Y8936230D01*
X33848438Y8936231D01*
X33842554Y8938052D01*
X33836429Y8938696D01*
X33836428Y8938696D01*
X33662813Y8956944D01*
X33662812Y8956944D01*
X33656685Y8957588D01*
X33538087Y8946794D01*
X33476703Y8941208D01*
X33476702Y8941208D01*
X33470562Y8940649D01*
X33464648Y8938908D01*
X33464646Y8938908D01*
X33371047Y8911360D01*
X33291273Y8887881D01*
X33285808Y8885024D01*
X33180529Y8829986D01*
X33125647Y8801295D01*
X32979995Y8684187D01*
X32859862Y8541019D01*
X32856899Y8535630D01*
X32856896Y8535625D01*
X32786229Y8407081D01*
X32769826Y8377243D01*
X32767965Y8371376D01*
X32767964Y8371374D01*
X32765916Y8364917D01*
X32713315Y8199099D01*
X32692482Y8013370D01*
X26737039Y8013370D01*
X26741830Y8051295D01*
X26756796Y8169759D01*
X26756797Y8169768D01*
X26757238Y8173262D01*
X26757611Y8200000D01*
X26739373Y8386001D01*
X26735419Y8399099D01*
X26701530Y8511343D01*
X26685355Y8564917D01*
X26597615Y8729934D01*
X26592974Y8735625D01*
X26483388Y8869990D01*
X26483385Y8869993D01*
X26479493Y8874765D01*
X26474744Y8878694D01*
X26340239Y8989966D01*
X26340236Y8989968D01*
X26335489Y8993895D01*
X26171089Y9082786D01*
X26081821Y9110419D01*
X25998441Y9136230D01*
X25998438Y9136231D01*
X25992554Y9138052D01*
X25986429Y9138696D01*
X25986428Y9138696D01*
X25812813Y9156944D01*
X25812812Y9156944D01*
X25806685Y9157588D01*
X25688087Y9146794D01*
X25626703Y9141208D01*
X25626702Y9141208D01*
X25620562Y9140649D01*
X25614648Y9138908D01*
X25614646Y9138908D01*
X25492466Y9102948D01*
X25441273Y9087881D01*
X25275647Y9001295D01*
X25129995Y8884187D01*
X25009862Y8741019D01*
X25006899Y8735630D01*
X25006896Y8735625D01*
X24963017Y8655808D01*
X24919826Y8577243D01*
X24917965Y8571376D01*
X24917964Y8571374D01*
X24904236Y8528098D01*
X24863315Y8399099D01*
X24860838Y8377018D01*
X24846650Y8250531D01*
X24819179Y8185065D01*
X24760675Y8144843D01*
X24684178Y8144212D01*
X24542554Y8188052D01*
X24536429Y8188696D01*
X24536428Y8188696D01*
X24362813Y8206944D01*
X24362812Y8206944D01*
X24356685Y8207588D01*
X24238087Y8196794D01*
X24176703Y8191208D01*
X24176702Y8191208D01*
X24170562Y8190649D01*
X24164648Y8188908D01*
X24164646Y8188908D01*
X24099584Y8169759D01*
X23991273Y8137881D01*
X23985808Y8135024D01*
X23851798Y8064966D01*
X23825647Y8051295D01*
X23679995Y7934187D01*
X23559862Y7791019D01*
X23556899Y7785630D01*
X23556896Y7785625D01*
X23486536Y7657638D01*
X23469826Y7627243D01*
X23413315Y7449099D01*
X23392482Y7263370D01*
X23392998Y7257226D01*
X23406022Y7102133D01*
X23408121Y7077133D01*
X23459636Y6897480D01*
X23478638Y6860505D01*
X23525637Y6769054D01*
X23538984Y6699323D01*
X23523985Y6650760D01*
X23472794Y6557643D01*
X23472792Y6557638D01*
X23469826Y6552243D01*
X23413315Y6374099D01*
X23392482Y6188370D01*
X20182449Y6188370D01*
X20182611Y6200000D01*
X20164373Y6386001D01*
X20160419Y6399099D01*
X20134688Y6484323D01*
X20110355Y6564917D01*
X20049734Y6678930D01*
X20035415Y6748468D01*
X20051429Y6800319D01*
X20096778Y6880148D01*
X20096779Y6880149D01*
X20099821Y6885505D01*
X20114091Y6928400D01*
X20148551Y7031991D01*
X20158814Y7062843D01*
X20174712Y7188686D01*
X20181796Y7244759D01*
X20181797Y7244768D01*
X20182238Y7248262D01*
X20182611Y7275000D01*
X20164373Y7461001D01*
X20160419Y7474099D01*
X20115953Y7621374D01*
X20110355Y7639917D01*
X20022615Y7804934D01*
X20018720Y7809710D01*
X19908388Y7944990D01*
X19908385Y7944993D01*
X19904493Y7949765D01*
X19899744Y7953694D01*
X19765239Y8064966D01*
X19765236Y8064968D01*
X19760489Y8068895D01*
X19596089Y8157786D01*
X19496235Y8188696D01*
X19423441Y8211230D01*
X19423438Y8211231D01*
X19417554Y8213052D01*
X19411429Y8213696D01*
X19411428Y8213696D01*
X19237813Y8231944D01*
X19237812Y8231944D01*
X19231685Y8232588D01*
X19113087Y8221794D01*
X19051703Y8216208D01*
X19051702Y8216208D01*
X19045562Y8215649D01*
X19039648Y8213908D01*
X19039646Y8213908D01*
X18944827Y8186001D01*
X18866273Y8162881D01*
X18860808Y8160024D01*
X18721507Y8087200D01*
X18700647Y8076295D01*
X18554995Y7959187D01*
X18434862Y7816019D01*
X18431899Y7810630D01*
X18431896Y7810625D01*
X18416155Y7781991D01*
X18344826Y7652243D01*
X18342965Y7646376D01*
X18342964Y7646374D01*
X18340916Y7639917D01*
X18288315Y7474099D01*
X18267482Y7288370D01*
X18267998Y7282226D01*
X18282463Y7109971D01*
X18283121Y7102133D01*
X18334636Y6922480D01*
X18353638Y6885505D01*
X18400637Y6794054D01*
X18413984Y6724323D01*
X18398985Y6675760D01*
X18347794Y6582643D01*
X18347792Y6582638D01*
X18344826Y6577243D01*
X18288315Y6399099D01*
X18267482Y6213370D01*
X18267998Y6207226D01*
X18281837Y6042425D01*
X18283121Y6027133D01*
X18334636Y5847480D01*
X18420064Y5681254D01*
X18423887Y5676430D01*
X18423890Y5676426D01*
X18479166Y5606686D01*
X18505804Y5540876D01*
X18492633Y5471111D01*
X18443836Y5419543D01*
X18421027Y5409143D01*
X18353579Y5386182D01*
X18303048Y5355095D01*
X18205095Y5294834D01*
X18205092Y5294832D01*
X18199088Y5291138D01*
X18194053Y5286207D01*
X18194050Y5286205D01*
X18118657Y5212374D01*
X18069493Y5164229D01*
X17971235Y5011762D01*
X17968826Y5005142D01*
X17968824Y5005139D01*
X17911606Y4847934D01*
X17909197Y4841315D01*
X17886463Y4661360D01*
X6058000Y4661360D01*
X6058000Y10167474D01*
X8982050Y10167474D01*
X8994947Y9898981D01*
X9047388Y9635344D01*
X9138220Y9382354D01*
X9140432Y9378238D01*
X9140433Y9378235D01*
X9206844Y9254639D01*
X9265450Y9145569D01*
X9268241Y9141832D01*
X9268245Y9141825D01*
X9349887Y9032494D01*
X9426281Y8930190D01*
X9429590Y8926910D01*
X9429595Y8926904D01*
X9612352Y8745736D01*
X9617180Y8740950D01*
X9620942Y8738192D01*
X9620945Y8738189D01*
X9707445Y8674765D01*
X9833954Y8582005D01*
X9838089Y8579829D01*
X9838093Y8579827D01*
X10067698Y8459025D01*
X10071840Y8456846D01*
X10214346Y8407081D01*
X10316596Y8371374D01*
X10325613Y8368225D01*
X10330206Y8367353D01*
X10585109Y8318958D01*
X10585112Y8318958D01*
X10589698Y8318087D01*
X10717370Y8313071D01*
X10853625Y8307717D01*
X10853630Y8307717D01*
X10858293Y8307534D01*
X10962607Y8318958D01*
X11120844Y8336287D01*
X11120850Y8336288D01*
X11125497Y8336797D01*
X11232304Y8364917D01*
X11380918Y8404044D01*
X11380920Y8404045D01*
X11385441Y8405235D01*
X11389738Y8407081D01*
X11628120Y8509498D01*
X11628122Y8509499D01*
X11632414Y8511343D01*
X11751071Y8584770D01*
X11857017Y8650331D01*
X11857021Y8650334D01*
X11860990Y8652790D01*
X12066149Y8826470D01*
X12243382Y9028566D01*
X12276630Y9080255D01*
X12386269Y9250709D01*
X12388797Y9254639D01*
X12499199Y9499722D01*
X12536967Y9633638D01*
X12570893Y9753928D01*
X12570894Y9753931D01*
X12572163Y9758432D01*
X12590043Y9898981D01*
X12605688Y10021955D01*
X12605688Y10021959D01*
X12606086Y10025085D01*
X12608571Y10120000D01*
X12588650Y10388063D01*
X12529327Y10650237D01*
X12431902Y10900762D01*
X12298518Y11134136D01*
X12132105Y11345231D01*
X11936317Y11529409D01*
X11715457Y11682626D01*
X11711264Y11684694D01*
X11478564Y11799449D01*
X11478561Y11799450D01*
X11474376Y11801514D01*
X11469728Y11803002D01*
X11372621Y11834086D01*
X11218370Y11883462D01*
X11213763Y11884212D01*
X11213760Y11884213D01*
X10957674Y11925919D01*
X10957675Y11925919D01*
X10953063Y11926670D01*
X10822719Y11928376D01*
X10688961Y11930127D01*
X10688958Y11930127D01*
X10684284Y11930188D01*
X10417937Y11893940D01*
X10413451Y11892632D01*
X10413449Y11892632D01*
X10362000Y11877636D01*
X10159874Y11818722D01*
X9915763Y11706185D01*
X9911854Y11703622D01*
X9694881Y11561369D01*
X9694876Y11561365D01*
X9690968Y11558803D01*
X9490426Y11379812D01*
X9458615Y11341563D01*
X9327219Y11183576D01*
X9318544Y11173146D01*
X9316121Y11169153D01*
X9185428Y10953778D01*
X9179096Y10943344D01*
X9177287Y10939030D01*
X9177285Y10939026D01*
X9076957Y10699769D01*
X9075148Y10695455D01*
X9008981Y10434923D01*
X8982050Y10167474D01*
X6058000Y10167474D01*
X6058000Y12611360D01*
X30186463Y12611360D01*
X30204163Y12430840D01*
X30261418Y12258727D01*
X30265065Y12252705D01*
X30265066Y12252703D01*
X30304066Y12188307D01*
X30355380Y12103576D01*
X30481382Y11973098D01*
X30553479Y11925919D01*
X30617213Y11884213D01*
X30633159Y11873778D01*
X30639763Y11871322D01*
X30639765Y11871321D01*
X30796558Y11813010D01*
X30796560Y11813010D01*
X30803168Y11810552D01*
X30886379Y11799449D01*
X30975980Y11787493D01*
X30975984Y11787493D01*
X30982961Y11786562D01*
X30989972Y11787200D01*
X30989976Y11787200D01*
X31147250Y11801514D01*
X31163600Y11803002D01*
X31170302Y11805180D01*
X31170304Y11805180D01*
X31329409Y11856876D01*
X31329412Y11856877D01*
X31336108Y11859053D01*
X31448277Y11925919D01*
X31485860Y11948323D01*
X31485862Y11948324D01*
X31491912Y11951931D01*
X31623266Y12077018D01*
X31723643Y12228098D01*
X31788055Y12397662D01*
X31790977Y12418453D01*
X31812748Y12573361D01*
X31812748Y12573364D01*
X31813299Y12577283D01*
X31813616Y12600000D01*
X31793397Y12780255D01*
X31791080Y12786909D01*
X31736064Y12944894D01*
X31736062Y12944897D01*
X31733745Y12951552D01*
X31637626Y13105376D01*
X31623941Y13119157D01*
X31514778Y13229085D01*
X31514774Y13229088D01*
X31509815Y13234082D01*
X31498697Y13241138D01*
X31450538Y13271700D01*
X31356666Y13331273D01*
X31327463Y13341672D01*
X31192425Y13389757D01*
X31192420Y13389758D01*
X31185790Y13392119D01*
X31178802Y13392952D01*
X31178799Y13392953D01*
X31055698Y13407632D01*
X31005680Y13413596D01*
X30998677Y13412860D01*
X30998676Y13412860D01*
X30832288Y13395372D01*
X30832286Y13395371D01*
X30825288Y13394636D01*
X30653579Y13336182D01*
X30647575Y13332488D01*
X30505095Y13244834D01*
X30505092Y13244832D01*
X30499088Y13241138D01*
X30494053Y13236207D01*
X30494050Y13236205D01*
X30374525Y13119157D01*
X30369493Y13114229D01*
X30271235Y12961762D01*
X30268826Y12955142D01*
X30268824Y12955139D01*
X30211606Y12797934D01*
X30209197Y12791315D01*
X30186463Y12611360D01*
X6058000Y12611360D01*
X6058000Y14961360D01*
X20886463Y14961360D01*
X20904163Y14780840D01*
X20961418Y14608727D01*
X20965065Y14602705D01*
X20965066Y14602703D01*
X21036923Y14484053D01*
X21055380Y14453576D01*
X21060269Y14448513D01*
X21060270Y14448512D01*
X21095953Y14411562D01*
X21181382Y14323098D01*
X21333159Y14223778D01*
X21339763Y14221322D01*
X21339765Y14221321D01*
X21496558Y14163010D01*
X21496560Y14163010D01*
X21503168Y14160552D01*
X21586995Y14149367D01*
X21675980Y14137493D01*
X21675984Y14137493D01*
X21682961Y14136562D01*
X21689972Y14137200D01*
X21689976Y14137200D01*
X21832459Y14150168D01*
X21863600Y14153002D01*
X21870302Y14155180D01*
X21870304Y14155180D01*
X22029409Y14206876D01*
X22029412Y14206877D01*
X22036108Y14209053D01*
X22135701Y14268423D01*
X22204454Y14286122D01*
X22269211Y14265625D01*
X22333159Y14223778D01*
X22339763Y14221322D01*
X22339765Y14221321D01*
X22496558Y14163010D01*
X22496560Y14163010D01*
X22503168Y14160552D01*
X22586995Y14149367D01*
X22675980Y14137493D01*
X22675984Y14137493D01*
X22682961Y14136562D01*
X22689972Y14137200D01*
X22689976Y14137200D01*
X22832459Y14150168D01*
X22863600Y14153002D01*
X22870302Y14155180D01*
X22870304Y14155180D01*
X23029409Y14206876D01*
X23029412Y14206877D01*
X23036108Y14209053D01*
X23191912Y14301931D01*
X23323266Y14427018D01*
X23423643Y14578098D01*
X23470716Y14702018D01*
X23485555Y14741080D01*
X23485556Y14741082D01*
X23488055Y14747662D01*
X23491630Y14773098D01*
X23512748Y14923361D01*
X23512748Y14923364D01*
X23513299Y14927283D01*
X23513616Y14950000D01*
X23493397Y15130255D01*
X23491080Y15136909D01*
X23436064Y15294894D01*
X23436062Y15294897D01*
X23433745Y15301552D01*
X23388874Y15373361D01*
X23341359Y15449402D01*
X23337626Y15455376D01*
X23323941Y15469157D01*
X23214778Y15579085D01*
X23214774Y15579088D01*
X23209815Y15584082D01*
X23198935Y15590987D01*
X23150538Y15621700D01*
X23056666Y15681273D01*
X23027463Y15691672D01*
X22892425Y15739757D01*
X22892420Y15739758D01*
X22885790Y15742119D01*
X22878802Y15742952D01*
X22878799Y15742953D01*
X22755698Y15757632D01*
X22705680Y15763596D01*
X22698677Y15762860D01*
X22698676Y15762860D01*
X22532288Y15745372D01*
X22532286Y15745371D01*
X22525288Y15744636D01*
X22353579Y15686182D01*
X22265946Y15632269D01*
X22197447Y15613612D01*
X22132412Y15633203D01*
X22062620Y15677495D01*
X22062616Y15677497D01*
X22056666Y15681273D01*
X22027463Y15691672D01*
X21892425Y15739757D01*
X21892420Y15739758D01*
X21885790Y15742119D01*
X21878802Y15742952D01*
X21878799Y15742953D01*
X21755698Y15757632D01*
X21705680Y15763596D01*
X21698677Y15762860D01*
X21698676Y15762860D01*
X21532288Y15745372D01*
X21532286Y15745371D01*
X21525288Y15744636D01*
X21353579Y15686182D01*
X21347575Y15682488D01*
X21205095Y15594834D01*
X21205092Y15594832D01*
X21199088Y15591138D01*
X21194053Y15586207D01*
X21194050Y15586205D01*
X21108781Y15502703D01*
X21069493Y15464229D01*
X20971235Y15311762D01*
X20968826Y15305142D01*
X20968824Y15305139D01*
X20929960Y15198361D01*
X20909197Y15141315D01*
X20886463Y14961360D01*
X6058000Y14961360D01*
X6058000Y15861360D01*
X23586463Y15861360D01*
X23604163Y15680840D01*
X23661418Y15508727D01*
X23665065Y15502705D01*
X23665066Y15502703D01*
X23741023Y15377283D01*
X23755380Y15353576D01*
X23760269Y15348513D01*
X23760270Y15348512D01*
X23799845Y15307531D01*
X23881382Y15223098D01*
X23930311Y15191080D01*
X24019730Y15132566D01*
X24033159Y15123778D01*
X24039763Y15121322D01*
X24039765Y15121321D01*
X24196558Y15063010D01*
X24196560Y15063010D01*
X24203168Y15060552D01*
X24286995Y15049367D01*
X24375980Y15037493D01*
X24375984Y15037493D01*
X24382961Y15036562D01*
X24389972Y15037200D01*
X24389976Y15037200D01*
X24532459Y15050168D01*
X24563600Y15053002D01*
X24570302Y15055180D01*
X24570304Y15055180D01*
X24729409Y15106876D01*
X24729412Y15106877D01*
X24736108Y15109053D01*
X24775552Y15132567D01*
X24844305Y15150267D01*
X24911715Y15127986D01*
X24956378Y15072798D01*
X24958913Y15066021D01*
X24959194Y15065413D01*
X24961418Y15058727D01*
X24965065Y15052705D01*
X24965066Y15052703D01*
X25041023Y14927283D01*
X25055380Y14903576D01*
X25181382Y14773098D01*
X25333159Y14673778D01*
X25339763Y14671322D01*
X25339765Y14671321D01*
X25496558Y14613010D01*
X25496560Y14613010D01*
X25503168Y14610552D01*
X25586995Y14599367D01*
X25675980Y14587493D01*
X25675984Y14587493D01*
X25682961Y14586562D01*
X25689972Y14587200D01*
X25689976Y14587200D01*
X25832459Y14600168D01*
X25863600Y14603002D01*
X25870302Y14605180D01*
X25870304Y14605180D01*
X26029409Y14656876D01*
X26029412Y14656877D01*
X26036108Y14659053D01*
X26188031Y14749618D01*
X26256784Y14767317D01*
X26321538Y14746821D01*
X26433159Y14673778D01*
X26439763Y14671322D01*
X26439765Y14671321D01*
X26596558Y14613010D01*
X26596560Y14613010D01*
X26603168Y14610552D01*
X26686995Y14599367D01*
X26775980Y14587493D01*
X26775984Y14587493D01*
X26782961Y14586562D01*
X26789972Y14587200D01*
X26789976Y14587200D01*
X26932459Y14600168D01*
X26963600Y14603002D01*
X26970302Y14605180D01*
X26970304Y14605180D01*
X27129409Y14656876D01*
X27129412Y14656877D01*
X27136108Y14659053D01*
X27288031Y14749618D01*
X27356784Y14767317D01*
X27421538Y14746821D01*
X27533159Y14673778D01*
X27539763Y14671322D01*
X27539765Y14671321D01*
X27696558Y14613010D01*
X27696560Y14613010D01*
X27703168Y14610552D01*
X27786995Y14599367D01*
X27875980Y14587493D01*
X27875984Y14587493D01*
X27882961Y14586562D01*
X27889972Y14587200D01*
X27889976Y14587200D01*
X28032459Y14600168D01*
X28063600Y14603002D01*
X28070302Y14605180D01*
X28070304Y14605180D01*
X28229409Y14656876D01*
X28229412Y14656877D01*
X28236108Y14659053D01*
X28352734Y14728576D01*
X28385860Y14748323D01*
X28385862Y14748324D01*
X28391912Y14751931D01*
X28523266Y14877018D01*
X28623643Y15028098D01*
X28688055Y15197662D01*
X28693494Y15236360D01*
X30161463Y15236360D01*
X30179163Y15055840D01*
X30236418Y14883727D01*
X30240065Y14877705D01*
X30240066Y14877703D01*
X30316236Y14751931D01*
X30330380Y14728576D01*
X30335269Y14723513D01*
X30335270Y14723512D01*
X30383298Y14673778D01*
X30456382Y14598098D01*
X30608159Y14498778D01*
X30614763Y14496322D01*
X30614765Y14496321D01*
X30771558Y14438010D01*
X30771560Y14438010D01*
X30778168Y14435552D01*
X30861995Y14424367D01*
X30950980Y14412493D01*
X30950984Y14412493D01*
X30957961Y14411562D01*
X30964972Y14412200D01*
X30964976Y14412200D01*
X31107459Y14425168D01*
X31138600Y14428002D01*
X31145302Y14430180D01*
X31145304Y14430180D01*
X31304409Y14481876D01*
X31304412Y14481877D01*
X31311108Y14484053D01*
X31466912Y14576931D01*
X31598266Y14702018D01*
X31698643Y14853098D01*
X31739768Y14961360D01*
X36366463Y14961360D01*
X36384163Y14780840D01*
X36441418Y14608727D01*
X36445065Y14602705D01*
X36445066Y14602703D01*
X36516923Y14484053D01*
X36535380Y14453576D01*
X36540269Y14448513D01*
X36540270Y14448512D01*
X36575953Y14411562D01*
X36661382Y14323098D01*
X36813159Y14223778D01*
X36819763Y14221322D01*
X36819765Y14221321D01*
X36976558Y14163010D01*
X36976560Y14163010D01*
X36983168Y14160552D01*
X37066995Y14149367D01*
X37155980Y14137493D01*
X37155984Y14137493D01*
X37162961Y14136562D01*
X37169972Y14137200D01*
X37169976Y14137200D01*
X37312459Y14150168D01*
X37343600Y14153002D01*
X37350302Y14155180D01*
X37350304Y14155180D01*
X37509409Y14206876D01*
X37509412Y14206877D01*
X37516108Y14209053D01*
X37671912Y14301931D01*
X37803266Y14427018D01*
X37903643Y14578098D01*
X37950716Y14702018D01*
X37965555Y14741080D01*
X37965556Y14741082D01*
X37968055Y14747662D01*
X37971630Y14773098D01*
X37992748Y14923361D01*
X37992748Y14923364D01*
X37993299Y14927283D01*
X37993616Y14950000D01*
X37973397Y15130255D01*
X37971080Y15136909D01*
X37916064Y15294894D01*
X37916062Y15294897D01*
X37913745Y15301552D01*
X37868874Y15373361D01*
X37821359Y15449402D01*
X37817626Y15455376D01*
X37803941Y15469157D01*
X37694778Y15579085D01*
X37694774Y15579088D01*
X37689815Y15584082D01*
X37678935Y15590987D01*
X37630538Y15621700D01*
X37536666Y15681273D01*
X37507463Y15691672D01*
X37372425Y15739757D01*
X37372420Y15739758D01*
X37365790Y15742119D01*
X37358802Y15742952D01*
X37358799Y15742953D01*
X37235698Y15757632D01*
X37185680Y15763596D01*
X37178677Y15762860D01*
X37178676Y15762860D01*
X37012288Y15745372D01*
X37012286Y15745371D01*
X37005288Y15744636D01*
X36833579Y15686182D01*
X36827575Y15682488D01*
X36685095Y15594834D01*
X36685092Y15594832D01*
X36679088Y15591138D01*
X36674053Y15586207D01*
X36674050Y15586205D01*
X36588781Y15502703D01*
X36549493Y15464229D01*
X36451235Y15311762D01*
X36448826Y15305142D01*
X36448824Y15305139D01*
X36409960Y15198361D01*
X36389197Y15141315D01*
X36366463Y14961360D01*
X31739768Y14961360D01*
X31763055Y15022662D01*
X31765098Y15037200D01*
X31787748Y15198361D01*
X31787748Y15198364D01*
X31788299Y15202283D01*
X31788616Y15225000D01*
X31768397Y15405255D01*
X31766080Y15411909D01*
X31711064Y15569894D01*
X31711062Y15569897D01*
X31708745Y15576552D01*
X31643309Y15681273D01*
X31616359Y15724402D01*
X31612626Y15730376D01*
X31603835Y15739229D01*
X31489778Y15854085D01*
X31489774Y15854088D01*
X31484815Y15859082D01*
X31473697Y15866138D01*
X31403993Y15910373D01*
X31331666Y15956273D01*
X31302463Y15966672D01*
X31167425Y16014757D01*
X31167420Y16014758D01*
X31160790Y16017119D01*
X31153802Y16017952D01*
X31153799Y16017953D01*
X31016497Y16034325D01*
X30980680Y16038596D01*
X30973677Y16037860D01*
X30973676Y16037860D01*
X30807288Y16020372D01*
X30807286Y16020371D01*
X30800288Y16019636D01*
X30628579Y15961182D01*
X30622575Y15957488D01*
X30480095Y15869834D01*
X30480092Y15869832D01*
X30474088Y15866138D01*
X30469053Y15861207D01*
X30469050Y15861205D01*
X30350766Y15745372D01*
X30344493Y15739229D01*
X30246235Y15586762D01*
X30243826Y15580142D01*
X30243824Y15580139D01*
X30220265Y15515410D01*
X30184197Y15416315D01*
X30161463Y15236360D01*
X28693494Y15236360D01*
X28704091Y15311762D01*
X28712748Y15373361D01*
X28712748Y15373364D01*
X28713299Y15377283D01*
X28713616Y15400000D01*
X28693397Y15580255D01*
X28689607Y15591138D01*
X28636064Y15744894D01*
X28636062Y15744897D01*
X28633745Y15751552D01*
X28537626Y15905376D01*
X28487083Y15956273D01*
X28414778Y16029085D01*
X28414774Y16029088D01*
X28409815Y16034082D01*
X28402703Y16038596D01*
X28350538Y16071700D01*
X28256666Y16131273D01*
X28227463Y16141672D01*
X28092425Y16189757D01*
X28092420Y16189758D01*
X28085790Y16192119D01*
X28078802Y16192952D01*
X28078799Y16192953D01*
X27955698Y16207632D01*
X27905680Y16213596D01*
X27898677Y16212860D01*
X27898676Y16212860D01*
X27732288Y16195372D01*
X27732286Y16195371D01*
X27725288Y16194636D01*
X27553579Y16136182D01*
X27547575Y16132488D01*
X27415172Y16051033D01*
X27346671Y16032374D01*
X27281636Y16051965D01*
X27258176Y16066853D01*
X27156666Y16131273D01*
X27127463Y16141672D01*
X26992425Y16189757D01*
X26992420Y16189758D01*
X26985790Y16192119D01*
X26978802Y16192952D01*
X26978799Y16192953D01*
X26855698Y16207632D01*
X26805680Y16213596D01*
X26798677Y16212860D01*
X26798676Y16212860D01*
X26632288Y16195372D01*
X26632286Y16195371D01*
X26625288Y16194636D01*
X26453579Y16136182D01*
X26447575Y16132488D01*
X26315172Y16051033D01*
X26246671Y16032374D01*
X26181636Y16051965D01*
X26158176Y16066853D01*
X26056666Y16131273D01*
X26027463Y16141672D01*
X25892425Y16189757D01*
X25892420Y16189758D01*
X25885790Y16192119D01*
X25878802Y16192952D01*
X25878799Y16192953D01*
X25755698Y16207632D01*
X25705680Y16213596D01*
X25698677Y16212860D01*
X25698676Y16212860D01*
X25532288Y16195372D01*
X25532286Y16195371D01*
X25525288Y16194636D01*
X25353579Y16136182D01*
X25329114Y16121131D01*
X25324753Y16118448D01*
X25256252Y16099791D01*
X25188538Y16121131D01*
X25143111Y16175692D01*
X25139747Y16184317D01*
X25133745Y16201552D01*
X25037626Y16355376D01*
X25023941Y16369157D01*
X24914778Y16479085D01*
X24914774Y16479088D01*
X24909815Y16484082D01*
X24898697Y16491138D01*
X24850538Y16521700D01*
X24756666Y16581273D01*
X24727463Y16591672D01*
X24592425Y16639757D01*
X24592420Y16639758D01*
X24585790Y16642119D01*
X24578802Y16642952D01*
X24578799Y16642953D01*
X24455698Y16657632D01*
X24405680Y16663596D01*
X24398677Y16662860D01*
X24398676Y16662860D01*
X24232288Y16645372D01*
X24232286Y16645371D01*
X24225288Y16644636D01*
X24053579Y16586182D01*
X24047575Y16582488D01*
X23905095Y16494834D01*
X23905092Y16494832D01*
X23899088Y16491138D01*
X23894053Y16486207D01*
X23894050Y16486205D01*
X23774525Y16369157D01*
X23769493Y16364229D01*
X23671235Y16211762D01*
X23668826Y16205142D01*
X23668824Y16205139D01*
X23613073Y16051965D01*
X23609197Y16041315D01*
X23586463Y15861360D01*
X6058000Y15861360D01*
X6058000Y20327474D01*
X8982050Y20327474D01*
X8994947Y20058981D01*
X9047388Y19795344D01*
X9138220Y19542354D01*
X9140432Y19538238D01*
X9140433Y19538235D01*
X9229080Y19373256D01*
X9265450Y19305569D01*
X9268241Y19301832D01*
X9268245Y19301825D01*
X9364174Y19173361D01*
X9426281Y19090190D01*
X9429590Y19086910D01*
X9429595Y19086904D01*
X9590192Y18927703D01*
X9617180Y18900950D01*
X9620942Y18898192D01*
X9620945Y18898189D01*
X9758047Y18797662D01*
X9833954Y18742005D01*
X9838089Y18739829D01*
X9838093Y18739827D01*
X10059529Y18623323D01*
X10071840Y18616846D01*
X10325613Y18528225D01*
X10330206Y18527353D01*
X10585109Y18478958D01*
X10585112Y18478958D01*
X10589698Y18478087D01*
X10717370Y18473071D01*
X10853625Y18467717D01*
X10853630Y18467717D01*
X10858293Y18467534D01*
X10962607Y18478958D01*
X11120844Y18496287D01*
X11120850Y18496288D01*
X11125497Y18496797D01*
X11132011Y18498512D01*
X11380918Y18564044D01*
X11380920Y18564045D01*
X11385441Y18565235D01*
X11415539Y18578166D01*
X11628120Y18669498D01*
X11628122Y18669499D01*
X11632414Y18671343D01*
X11751071Y18744770D01*
X11857017Y18810331D01*
X11857021Y18810334D01*
X11860990Y18812790D01*
X12066149Y18986470D01*
X12087977Y19011360D01*
X17086463Y19011360D01*
X17104163Y18830840D01*
X17161418Y18658727D01*
X17165065Y18652705D01*
X17165066Y18652703D01*
X17236923Y18534053D01*
X17255380Y18503576D01*
X17260269Y18498513D01*
X17260270Y18498512D01*
X17295953Y18461562D01*
X17381382Y18373098D01*
X17533159Y18273778D01*
X17539763Y18271322D01*
X17539765Y18271321D01*
X17696558Y18213010D01*
X17696560Y18213010D01*
X17703168Y18210552D01*
X17786995Y18199367D01*
X17875980Y18187493D01*
X17875984Y18187493D01*
X17882961Y18186562D01*
X17889972Y18187200D01*
X17889976Y18187200D01*
X18032459Y18200168D01*
X18063600Y18203002D01*
X18070302Y18205180D01*
X18070304Y18205180D01*
X18229409Y18256876D01*
X18229412Y18256877D01*
X18236108Y18259053D01*
X18391912Y18351931D01*
X18523266Y18477018D01*
X18623643Y18628098D01*
X18670716Y18752018D01*
X18685555Y18791080D01*
X18685556Y18791082D01*
X18688055Y18797662D01*
X18690605Y18815808D01*
X18712748Y18973361D01*
X18712748Y18973364D01*
X18713299Y18977283D01*
X18713616Y19000000D01*
X18693397Y19180255D01*
X18690503Y19188566D01*
X18636064Y19344894D01*
X18636062Y19344897D01*
X18633745Y19351552D01*
X18537626Y19505376D01*
X18523941Y19519157D01*
X18414778Y19629085D01*
X18414774Y19629088D01*
X18409815Y19634082D01*
X18398697Y19641138D01*
X18350538Y19671700D01*
X18256666Y19731273D01*
X18227463Y19741672D01*
X18092425Y19789757D01*
X18092420Y19789758D01*
X18085790Y19792119D01*
X18078802Y19792952D01*
X18078799Y19792953D01*
X17955698Y19807632D01*
X17905680Y19813596D01*
X17898677Y19812860D01*
X17898676Y19812860D01*
X17732288Y19795372D01*
X17732286Y19795371D01*
X17725288Y19794636D01*
X17553579Y19736182D01*
X17517895Y19714229D01*
X17405095Y19644834D01*
X17405092Y19644832D01*
X17399088Y19641138D01*
X17394053Y19636207D01*
X17394050Y19636205D01*
X17307606Y19551552D01*
X17269493Y19514229D01*
X17171235Y19361762D01*
X17168826Y19355142D01*
X17168824Y19355139D01*
X17129960Y19248361D01*
X17109197Y19191315D01*
X17086463Y19011360D01*
X12087977Y19011360D01*
X12243382Y19188566D01*
X12248189Y19196038D01*
X12370960Y19386909D01*
X12388797Y19414639D01*
X12499199Y19659722D01*
X12514572Y19714229D01*
X12570893Y19913928D01*
X12570894Y19913931D01*
X12572163Y19918432D01*
X12590043Y20058981D01*
X12605688Y20181955D01*
X12605688Y20181959D01*
X12606086Y20185085D01*
X12608571Y20280000D01*
X12604383Y20336360D01*
X24736463Y20336360D01*
X24754163Y20155840D01*
X24811418Y19983727D01*
X24815065Y19977705D01*
X24815066Y19977703D01*
X24888561Y19856347D01*
X24906740Y19787717D01*
X24886698Y19722824D01*
X24831235Y19636762D01*
X24828826Y19630142D01*
X24828824Y19630139D01*
X24796873Y19542354D01*
X24769197Y19466315D01*
X24746463Y19286360D01*
X24764163Y19105840D01*
X24821418Y18933727D01*
X24825065Y18927705D01*
X24825066Y18927703D01*
X24899599Y18804634D01*
X24915380Y18778576D01*
X25041382Y18648098D01*
X25193159Y18548778D01*
X25199763Y18546322D01*
X25199765Y18546321D01*
X25356558Y18488010D01*
X25356560Y18488010D01*
X25363168Y18485552D01*
X25446995Y18474367D01*
X25535980Y18462493D01*
X25535984Y18462493D01*
X25542961Y18461562D01*
X25549972Y18462200D01*
X25549976Y18462200D01*
X25692459Y18475168D01*
X25723600Y18478002D01*
X25730302Y18480180D01*
X25730304Y18480180D01*
X25889409Y18531876D01*
X25889412Y18531877D01*
X25896108Y18534053D01*
X26032406Y18615303D01*
X26045860Y18623323D01*
X26045862Y18623324D01*
X26051912Y18626931D01*
X26183266Y18752018D01*
X26283643Y18903098D01*
X26348055Y19072662D01*
X26350057Y19086904D01*
X26367548Y19211360D01*
X32436463Y19211360D01*
X32454163Y19030840D01*
X32511418Y18858727D01*
X32515065Y18852705D01*
X32515066Y18852703D01*
X32583426Y18739827D01*
X32605380Y18703576D01*
X32610269Y18698513D01*
X32610270Y18698512D01*
X32671907Y18634686D01*
X32731382Y18573098D01*
X32737278Y18569240D01*
X32876854Y18477904D01*
X32883159Y18473778D01*
X32889763Y18471322D01*
X32889765Y18471321D01*
X33046558Y18413010D01*
X33046560Y18413010D01*
X33053168Y18410552D01*
X33136995Y18399367D01*
X33225980Y18387493D01*
X33225984Y18387493D01*
X33232961Y18386562D01*
X33239972Y18387200D01*
X33239976Y18387200D01*
X33382459Y18400168D01*
X33413600Y18403002D01*
X33420302Y18405180D01*
X33420304Y18405180D01*
X33579409Y18456876D01*
X33579412Y18456877D01*
X33586108Y18459053D01*
X33704732Y18529767D01*
X33735860Y18548323D01*
X33735862Y18548324D01*
X33741912Y18551931D01*
X33873266Y18677018D01*
X33973643Y18828098D01*
X34031818Y18981243D01*
X34035555Y18991080D01*
X34035556Y18991082D01*
X34038055Y18997662D01*
X34040963Y19018354D01*
X34062748Y19173361D01*
X34062748Y19173364D01*
X34063299Y19177283D01*
X34063616Y19200000D01*
X34043397Y19380255D01*
X34041080Y19386909D01*
X33986064Y19544894D01*
X33986062Y19544897D01*
X33983745Y19551552D01*
X33936880Y19626552D01*
X33891359Y19699402D01*
X33887626Y19705376D01*
X33873941Y19719157D01*
X33764778Y19829085D01*
X33764774Y19829088D01*
X33759815Y19834082D01*
X33748697Y19841138D01*
X33626900Y19918432D01*
X33606666Y19931273D01*
X33526873Y19959686D01*
X33442425Y19989757D01*
X33442420Y19989758D01*
X33435790Y19992119D01*
X33428802Y19992952D01*
X33428799Y19992953D01*
X33305698Y20007632D01*
X33255680Y20013596D01*
X33248677Y20012860D01*
X33248676Y20012860D01*
X33082288Y19995372D01*
X33082286Y19995371D01*
X33075288Y19994636D01*
X32903579Y19936182D01*
X32897575Y19932488D01*
X32755095Y19844834D01*
X32755092Y19844832D01*
X32749088Y19841138D01*
X32744053Y19836207D01*
X32744050Y19836205D01*
X32628267Y19722821D01*
X32619493Y19714229D01*
X32521235Y19561762D01*
X32518826Y19555142D01*
X32518824Y19555139D01*
X32488904Y19472934D01*
X32459197Y19391315D01*
X32436463Y19211360D01*
X26367548Y19211360D01*
X26372748Y19248361D01*
X26372748Y19248364D01*
X26373299Y19252283D01*
X26373616Y19275000D01*
X26353397Y19455255D01*
X26351080Y19461909D01*
X26296064Y19619894D01*
X26296062Y19619897D01*
X26293745Y19626552D01*
X26221880Y19741561D01*
X26202744Y19809930D01*
X26223786Y19878057D01*
X26223987Y19878359D01*
X26273643Y19953098D01*
X26338055Y20122662D01*
X26339035Y20129634D01*
X26362748Y20298361D01*
X26362748Y20298364D01*
X26363299Y20302283D01*
X26363616Y20325000D01*
X26343397Y20505255D01*
X26341080Y20511909D01*
X26286064Y20669894D01*
X26286062Y20669897D01*
X26283745Y20676552D01*
X26208675Y20796690D01*
X26189540Y20865057D01*
X26210581Y20933182D01*
X26273643Y21028098D01*
X26338055Y21197662D01*
X26339980Y21211360D01*
X32386463Y21211360D01*
X32404163Y21030840D01*
X32461418Y20858727D01*
X32465065Y20852705D01*
X32465066Y20852703D01*
X32501265Y20792932D01*
X32555380Y20703576D01*
X32560269Y20698513D01*
X32560270Y20698512D01*
X32637121Y20618932D01*
X32681382Y20573098D01*
X32687278Y20569240D01*
X32795753Y20498256D01*
X32833159Y20473778D01*
X32839763Y20471322D01*
X32839765Y20471321D01*
X32996558Y20413010D01*
X32996560Y20413010D01*
X33003168Y20410552D01*
X33086995Y20399367D01*
X33175980Y20387493D01*
X33175984Y20387493D01*
X33182961Y20386562D01*
X33189972Y20387200D01*
X33189976Y20387200D01*
X33332459Y20400168D01*
X33363600Y20403002D01*
X33370302Y20405180D01*
X33370304Y20405180D01*
X33529409Y20456876D01*
X33529412Y20456877D01*
X33536108Y20459053D01*
X33677615Y20543408D01*
X33685860Y20548323D01*
X33685862Y20548324D01*
X33691912Y20551931D01*
X33823266Y20677018D01*
X33923643Y20828098D01*
X33988055Y20997662D01*
X33991508Y21022232D01*
X34012748Y21173361D01*
X34012748Y21173364D01*
X34013299Y21177283D01*
X34013616Y21200000D01*
X33993397Y21380255D01*
X33991080Y21386909D01*
X33936064Y21544894D01*
X33936062Y21544897D01*
X33933745Y21551552D01*
X33837626Y21705376D01*
X33827388Y21715686D01*
X33714778Y21829085D01*
X33714774Y21829088D01*
X33709815Y21834082D01*
X33700552Y21839961D01*
X33650538Y21871700D01*
X33556666Y21931273D01*
X33527463Y21941672D01*
X33392425Y21989757D01*
X33392420Y21989758D01*
X33385790Y21992119D01*
X33378802Y21992952D01*
X33378799Y21992953D01*
X33255698Y22007632D01*
X33205680Y22013596D01*
X33198677Y22012860D01*
X33198676Y22012860D01*
X33032288Y21995372D01*
X33032286Y21995371D01*
X33025288Y21994636D01*
X32853579Y21936182D01*
X32817895Y21914229D01*
X32705095Y21844834D01*
X32705092Y21844832D01*
X32699088Y21841138D01*
X32694053Y21836207D01*
X32694050Y21836205D01*
X32607606Y21751552D01*
X32569493Y21714229D01*
X32471235Y21561762D01*
X32468826Y21555142D01*
X32468824Y21555139D01*
X32451824Y21508431D01*
X32409197Y21391315D01*
X32386463Y21211360D01*
X26339980Y21211360D01*
X26340963Y21218354D01*
X26362748Y21373361D01*
X26362748Y21373364D01*
X26363299Y21377283D01*
X26363616Y21400000D01*
X26343397Y21580255D01*
X26341080Y21586909D01*
X26286064Y21744894D01*
X26286062Y21744897D01*
X26283745Y21751552D01*
X26273662Y21767688D01*
X26191359Y21899402D01*
X26187626Y21905376D01*
X26159561Y21933638D01*
X26064778Y22029085D01*
X26064774Y22029088D01*
X26059815Y22034082D01*
X26048697Y22041138D01*
X25971406Y22090188D01*
X25906666Y22131273D01*
X25877463Y22141672D01*
X25742425Y22189757D01*
X25742420Y22189758D01*
X25735790Y22192119D01*
X25728802Y22192952D01*
X25728799Y22192953D01*
X25605698Y22207632D01*
X25555680Y22213596D01*
X25548677Y22212860D01*
X25548676Y22212860D01*
X25382288Y22195372D01*
X25382286Y22195371D01*
X25375288Y22194636D01*
X25203579Y22136182D01*
X25197575Y22132488D01*
X25055095Y22044834D01*
X25055092Y22044832D01*
X25049088Y22041138D01*
X25044053Y22036207D01*
X25044050Y22036205D01*
X24924525Y21919157D01*
X24919493Y21914229D01*
X24821235Y21761762D01*
X24818826Y21755142D01*
X24818824Y21755139D01*
X24761606Y21597934D01*
X24759197Y21591315D01*
X24736463Y21411360D01*
X24754163Y21230840D01*
X24811418Y21058727D01*
X24815065Y21052705D01*
X24815066Y21052703D01*
X24891522Y20926458D01*
X24909701Y20857828D01*
X24889657Y20792933D01*
X24821235Y20686762D01*
X24818826Y20680142D01*
X24818824Y20680139D01*
X24789460Y20599462D01*
X24759197Y20516315D01*
X24736463Y20336360D01*
X12604383Y20336360D01*
X12600652Y20386562D01*
X12588996Y20543408D01*
X12588996Y20543409D01*
X12588650Y20548063D01*
X12586676Y20556789D01*
X12530361Y20805669D01*
X12530360Y20805674D01*
X12529327Y20810237D01*
X12431902Y21060762D01*
X12298518Y21294136D01*
X12132105Y21505231D01*
X11936317Y21689409D01*
X11724713Y21836205D01*
X11719299Y21839961D01*
X11719296Y21839963D01*
X11715457Y21842626D01*
X11710980Y21844834D01*
X11478564Y21959449D01*
X11478561Y21959450D01*
X11474376Y21961514D01*
X11426745Y21976761D01*
X11313971Y22012860D01*
X11218370Y22043462D01*
X11213763Y22044212D01*
X11213760Y22044213D01*
X10957674Y22085919D01*
X10957675Y22085919D01*
X10953063Y22086670D01*
X10822719Y22088376D01*
X10688961Y22090127D01*
X10688958Y22090127D01*
X10684284Y22090188D01*
X10417937Y22053940D01*
X10413451Y22052632D01*
X10413449Y22052632D01*
X10349807Y22034082D01*
X10159874Y21978722D01*
X9915763Y21866185D01*
X9911854Y21863622D01*
X9694881Y21721369D01*
X9694876Y21721365D01*
X9690968Y21718803D01*
X9669231Y21699402D01*
X9503580Y21551552D01*
X9490426Y21539812D01*
X9318544Y21333146D01*
X9316121Y21329153D01*
X9223964Y21177283D01*
X9179096Y21103344D01*
X9177287Y21099030D01*
X9177285Y21099026D01*
X9134780Y20997662D01*
X9075148Y20855455D01*
X9008981Y20594923D01*
X8982050Y20327474D01*
X6058000Y20327474D01*
X6058000Y23211360D01*
X32386463Y23211360D01*
X32404163Y23030840D01*
X32461418Y22858727D01*
X32465065Y22852705D01*
X32465066Y22852703D01*
X32475978Y22834686D01*
X32555380Y22703576D01*
X32681382Y22573098D01*
X32833159Y22473778D01*
X32839763Y22471322D01*
X32839765Y22471321D01*
X32996558Y22413010D01*
X32996560Y22413010D01*
X33003168Y22410552D01*
X33086995Y22399367D01*
X33175980Y22387493D01*
X33175984Y22387493D01*
X33182961Y22386562D01*
X33189972Y22387200D01*
X33189976Y22387200D01*
X33332459Y22400168D01*
X33363600Y22403002D01*
X33370302Y22405180D01*
X33370304Y22405180D01*
X33529409Y22456876D01*
X33529412Y22456877D01*
X33536108Y22459053D01*
X33691912Y22551931D01*
X33823266Y22677018D01*
X33923643Y22828098D01*
X33988055Y22997662D01*
X33989035Y23004634D01*
X34012748Y23173361D01*
X34012748Y23173364D01*
X34013299Y23177283D01*
X34013616Y23200000D01*
X33993397Y23380255D01*
X33991080Y23386909D01*
X33936064Y23544894D01*
X33936062Y23544897D01*
X33933745Y23551552D01*
X33837626Y23705376D01*
X33808520Y23734686D01*
X33714778Y23829085D01*
X33714774Y23829088D01*
X33709815Y23834082D01*
X33698697Y23841138D01*
X33620000Y23891080D01*
X33556666Y23931273D01*
X33504962Y23949684D01*
X33392425Y23989757D01*
X33392420Y23989758D01*
X33385790Y23992119D01*
X33378802Y23992952D01*
X33378799Y23992953D01*
X33248676Y24008469D01*
X33205680Y24013596D01*
X33198677Y24012860D01*
X33198676Y24012860D01*
X33032288Y23995372D01*
X33032286Y23995371D01*
X33025288Y23994636D01*
X32853579Y23936182D01*
X32847575Y23932488D01*
X32705095Y23844834D01*
X32705092Y23844832D01*
X32699088Y23841138D01*
X32694053Y23836207D01*
X32694050Y23836205D01*
X32577660Y23722227D01*
X32569493Y23714229D01*
X32471235Y23561762D01*
X32468826Y23555142D01*
X32468824Y23555139D01*
X32429946Y23448323D01*
X32409197Y23391315D01*
X32386463Y23211360D01*
X6058000Y23211360D01*
X6058000Y24011866D01*
X8986500Y24011866D01*
X8993255Y23949684D01*
X9044385Y23813295D01*
X9131739Y23696739D01*
X9248295Y23609385D01*
X9384684Y23558255D01*
X9446866Y23551500D01*
X12143134Y23551500D01*
X12205316Y23558255D01*
X12341705Y23609385D01*
X12458261Y23696739D01*
X12545615Y23813295D01*
X12596745Y23949684D01*
X12603500Y24011866D01*
X12603500Y24111360D01*
X17886463Y24111360D01*
X17904163Y23930840D01*
X17961418Y23758727D01*
X17965065Y23752705D01*
X17965066Y23752703D01*
X18002218Y23691358D01*
X18055380Y23603576D01*
X18060269Y23598513D01*
X18060270Y23598512D01*
X18112049Y23544894D01*
X18181382Y23473098D01*
X18187278Y23469240D01*
X18313093Y23386909D01*
X18333159Y23373778D01*
X18339763Y23371322D01*
X18339765Y23371321D01*
X18496558Y23313010D01*
X18496560Y23313010D01*
X18503168Y23310552D01*
X18586995Y23299367D01*
X18675980Y23287493D01*
X18675984Y23287493D01*
X18682961Y23286562D01*
X18689972Y23287200D01*
X18689976Y23287200D01*
X18832459Y23300168D01*
X18863600Y23303002D01*
X18870302Y23305180D01*
X18870304Y23305180D01*
X19029409Y23356876D01*
X19029412Y23356877D01*
X19036108Y23359053D01*
X19191912Y23451931D01*
X19323266Y23577018D01*
X19423643Y23728098D01*
X19488055Y23897662D01*
X19489035Y23904634D01*
X19512748Y24073361D01*
X19512748Y24073364D01*
X19513299Y24077283D01*
X19513616Y24100000D01*
X19512342Y24111360D01*
X21436463Y24111360D01*
X21454163Y23930840D01*
X21511418Y23758727D01*
X21515065Y23752705D01*
X21515066Y23752703D01*
X21552218Y23691358D01*
X21605380Y23603576D01*
X21610269Y23598513D01*
X21610270Y23598512D01*
X21662049Y23544894D01*
X21731382Y23473098D01*
X21737278Y23469240D01*
X21863093Y23386909D01*
X21883159Y23373778D01*
X21889763Y23371322D01*
X21889765Y23371321D01*
X22046558Y23313010D01*
X22046560Y23313010D01*
X22053168Y23310552D01*
X22136995Y23299367D01*
X22225980Y23287493D01*
X22225984Y23287493D01*
X22232961Y23286562D01*
X22239972Y23287200D01*
X22239976Y23287200D01*
X22382459Y23300168D01*
X22413600Y23303002D01*
X22420302Y23305180D01*
X22420304Y23305180D01*
X22579409Y23356876D01*
X22579412Y23356877D01*
X22586108Y23359053D01*
X22592159Y23362660D01*
X22598574Y23365570D01*
X22599826Y23362810D01*
X22655550Y23377134D01*
X22695185Y23369306D01*
X22853168Y23310552D01*
X22936995Y23299367D01*
X23025980Y23287493D01*
X23025984Y23287493D01*
X23032961Y23286562D01*
X23039972Y23287200D01*
X23039976Y23287200D01*
X23182459Y23300168D01*
X23213600Y23303002D01*
X23220302Y23305180D01*
X23220304Y23305180D01*
X23379409Y23356876D01*
X23379412Y23356877D01*
X23386108Y23359053D01*
X23541912Y23451931D01*
X23673266Y23577018D01*
X23773643Y23728098D01*
X23838055Y23897662D01*
X23839035Y23904634D01*
X23862748Y24073361D01*
X23862748Y24073364D01*
X23863299Y24077283D01*
X23863616Y24100000D01*
X23843397Y24280255D01*
X23841080Y24286909D01*
X23786064Y24444894D01*
X23786062Y24444897D01*
X23783745Y24451552D01*
X23687626Y24605376D01*
X23673941Y24619157D01*
X23564778Y24729085D01*
X23564774Y24729088D01*
X23559815Y24734082D01*
X23548697Y24741138D01*
X23450442Y24803492D01*
X23406666Y24831273D01*
X23377463Y24841672D01*
X23242425Y24889757D01*
X23242420Y24889758D01*
X23235790Y24892119D01*
X23228802Y24892952D01*
X23228799Y24892953D01*
X23105698Y24907632D01*
X23055680Y24913596D01*
X23048677Y24912860D01*
X23048676Y24912860D01*
X22882288Y24895372D01*
X22882286Y24895371D01*
X22875288Y24894636D01*
X22703579Y24836182D01*
X22701809Y24835093D01*
X22633599Y24824487D01*
X22607094Y24832474D01*
X22606666Y24831273D01*
X22442425Y24889757D01*
X22442420Y24889758D01*
X22435790Y24892119D01*
X22428802Y24892952D01*
X22428799Y24892953D01*
X22305698Y24907632D01*
X22255680Y24913596D01*
X22248677Y24912860D01*
X22248676Y24912860D01*
X22082288Y24895372D01*
X22082286Y24895371D01*
X22075288Y24894636D01*
X21903579Y24836182D01*
X21841109Y24797750D01*
X21755095Y24744834D01*
X21755092Y24744832D01*
X21749088Y24741138D01*
X21744053Y24736207D01*
X21744050Y24736205D01*
X21624525Y24619157D01*
X21619493Y24614229D01*
X21521235Y24461762D01*
X21518826Y24455142D01*
X21518824Y24455139D01*
X21461606Y24297934D01*
X21459197Y24291315D01*
X21436463Y24111360D01*
X19512342Y24111360D01*
X19493397Y24280255D01*
X19491080Y24286909D01*
X19436064Y24444894D01*
X19436062Y24444897D01*
X19433745Y24451552D01*
X19337626Y24605376D01*
X19323941Y24619157D01*
X19214778Y24729085D01*
X19214774Y24729088D01*
X19209815Y24734082D01*
X19198697Y24741138D01*
X19100442Y24803492D01*
X19056666Y24831273D01*
X19027463Y24841672D01*
X18892425Y24889757D01*
X18892420Y24889758D01*
X18885790Y24892119D01*
X18878802Y24892952D01*
X18878799Y24892953D01*
X18755698Y24907632D01*
X18705680Y24913596D01*
X18698677Y24912860D01*
X18698676Y24912860D01*
X18532288Y24895372D01*
X18532286Y24895371D01*
X18525288Y24894636D01*
X18353579Y24836182D01*
X18291109Y24797750D01*
X18205095Y24744834D01*
X18205092Y24744832D01*
X18199088Y24741138D01*
X18194053Y24736207D01*
X18194050Y24736205D01*
X18074525Y24619157D01*
X18069493Y24614229D01*
X17971235Y24461762D01*
X17968826Y24455142D01*
X17968824Y24455139D01*
X17911606Y24297934D01*
X17909197Y24291315D01*
X17886463Y24111360D01*
X12603500Y24111360D01*
X12603500Y26708134D01*
X12596745Y26770316D01*
X12545615Y26906705D01*
X12458261Y27023261D01*
X12341705Y27110615D01*
X12205316Y27161745D01*
X12143134Y27168500D01*
X9446866Y27168500D01*
X9384684Y27161745D01*
X9248295Y27110615D01*
X9131739Y27023261D01*
X9044385Y26906705D01*
X8993255Y26770316D01*
X8986500Y26708134D01*
X8986500Y24011866D01*
X6058000Y24011866D01*
X6058000Y28169326D01*
X6059746Y28190230D01*
X6062264Y28205198D01*
X6063071Y28209994D01*
X6063224Y28222533D01*
X6061369Y28235486D01*
X6060326Y28260961D01*
X6072087Y28455224D01*
X6073924Y28470340D01*
X6114604Y28692140D01*
X6118250Y28706916D01*
X6185390Y28922188D01*
X6190791Y28936416D01*
X6283410Y29142016D01*
X6290482Y29155478D01*
X6407231Y29348408D01*
X6415886Y29360934D01*
X6555051Y29538366D01*
X6565156Y29549758D01*
X6724706Y29709101D01*
X6736112Y29719191D01*
X6913712Y29858117D01*
X6926251Y29866758D01*
X7022789Y29925006D01*
X7119330Y29983255D01*
X7132809Y29990314D01*
X7307039Y30068531D01*
X7332476Y30076805D01*
X7332671Y30076876D01*
X7341455Y30078721D01*
X7369489Y30093729D01*
X7384381Y30100496D01*
X17818707Y34045813D01*
X17837366Y34051264D01*
X17852025Y34054343D01*
X17852027Y34054344D01*
X17860807Y34056188D01*
X17868718Y34060423D01*
X17878680Y34065756D01*
X17898954Y34074421D01*
X18030459Y34117462D01*
X18041420Y34120509D01*
X18205712Y34158272D01*
X18216908Y34160318D01*
X18253183Y34165266D01*
X18383943Y34183102D01*
X18395262Y34184127D01*
X18515767Y34189576D01*
X18526082Y34190042D01*
X18551154Y34188671D01*
X18553034Y34188379D01*
X18563084Y34186814D01*
X18594606Y34190936D01*
X18610943Y34192000D01*
X25981318Y34192000D01*
X26000703Y34190500D01*
G37*
%TD.AperFunction*%
%TD*%
M02*
