M48
; DRILL file {KiCad (6.0.0-0)} date 2022 December 06, Tuesday 19:34:54
; FORMAT={-:-/ absolute / inch / decimal}
; #@! TF.CreationDate,2022-12-06T19:34:54+01:00
; #@! TF.GenerationSoftware,Kicad,Pcbnew,(6.0.0-0)
; #@! TF.FileFunction,Plated,1,4,PTH
FMAT,2
INCH
; #@! TA.AperFunction,Plated,PTH,ComponentDrill
T1C0.0079
; #@! TA.AperFunction,Plated,PTH,ViaDrill
T2C0.0118
; #@! TA.AperFunction,Plated,PTH,ViaDrill
T3C0.0130
; #@! TA.AperFunction,Plated,PTH,ViaDrill
T4C0.0150
; #@! TA.AperFunction,Plated,PTH,ComponentDrill
T5C0.0236
; #@! TA.AperFunction,Plated,PTH,ComponentDrill
T6C0.0512
; #@! TA.AperFunction,Plated,PTH,ComponentDrill
T7C0.0866
%
G90
G05
T1
X0.8238Y0.8051
X0.8238Y0.7657
X0.8238Y0.7264
X0.8632Y0.8051
X0.8632Y0.7657
X0.8632Y0.7264
X0.9026Y0.8051
X0.9026Y0.7657
X0.9026Y0.7264
X1.3083Y0.5374
X1.3083Y0.4783
X1.3378Y0.5079
X1.3673Y0.5374
X1.3673Y0.4783
T2
X0.6772Y0.1949
X0.7047Y0.748
X0.7362Y0.9488
X0.7362Y0.1831
X0.7657Y0.5827
X0.7657Y0.5472
X0.7717Y0.1831
X0.8268Y0.0768
X0.8543Y0.5886
X0.876Y0.9488
X0.8937Y0.5886
X0.9075Y0.9488
X0.9311Y0.1535
X0.9311Y0.1102
X0.9606Y0.624
X1.0059Y0.8425
X1.0059Y0.8002
X1.0063Y0.7589
X1.0118Y0.6063
X1.0335Y0.498
X1.0551Y0.6063
X1.0984Y0.6063
X1.1575Y0.5512
X1.1575Y0.5197
X1.2195Y0.5994
X1.2205Y0.4961
X1.3071Y0.9134
X1.3071Y0.8346
X1.3091Y0.7559
X1.389Y0.3504
X1.4598Y0.3858
X1.4638Y0.5886
X1.4724Y0.2657
X1.4724Y0.0827
X1.4953Y0.4598
T3
X1.039Y1.0669
X1.039Y0.9882
T4
X0.7569Y0.2864
X0.7569Y0.2441
X0.9587Y0.2854
X0.9587Y0.2431
X1.0157Y0.3228
X1.3248Y0.315
T6
X0.425Y0.9984
X0.425Y0.7984
X0.425Y0.5984
X0.425Y0.3984
X0.425Y0.1984
T7
X0.7205Y1.248
X1.0354Y1.248
T5
G00X1.0622Y0.2785
M15
G01X1.0622Y0.2392
M16
G05
G00X1.0622Y0.1339
M15
G01X1.0622Y0.0827
M16
G05
G00X1.4024Y0.2785
M15
G01X1.4024Y0.2392
M16
G05
G00X1.4024Y0.1339
M15
G01X1.4024Y0.0827
M16
G05
T0
M30
