%TF.GenerationSoftware,KiCad,Pcbnew,(6.0.0-0)*%
%TF.CreationDate,2022-12-06T19:34:54+01:00*%
%TF.ProjectId,esp32-led,65737033-322d-46c6-9564-2e6b69636164,rev?*%
%TF.SameCoordinates,Original*%
%TF.FileFunction,Legend,Top*%
%TF.FilePolarity,Positive*%
%FSLAX46Y46*%
G04 Gerber Fmt 4.6, Leading zero omitted, Abs format (unit mm)*
G04 Created by KiCad (PCBNEW (6.0.0-0)) date 2022-12-06 19:34:54*
%MOMM*%
%LPD*%
G01*
G04 APERTURE LIST*
G04 Aperture macros list*
%AMRoundRect*
0 Rectangle with rounded corners*
0 $1 Rounding radius*
0 $2 $3 $4 $5 $6 $7 $8 $9 X,Y pos of 4 corners*
0 Add a 4 corners polygon primitive as box body*
4,1,4,$2,$3,$4,$5,$6,$7,$8,$9,$2,$3,0*
0 Add four circle primitives for the rounded corners*
1,1,$1+$1,$2,$3*
1,1,$1+$1,$4,$5*
1,1,$1+$1,$6,$7*
1,1,$1+$1,$8,$9*
0 Add four rect primitives between the rounded corners*
20,1,$1+$1,$2,$3,$4,$5,0*
20,1,$1+$1,$4,$5,$6,$7,0*
20,1,$1+$1,$6,$7,$8,$9,0*
20,1,$1+$1,$8,$9,$2,$3,0*%
G04 Aperture macros list end*
%ADD10C,0.120000*%
%ADD11C,0.175000*%
%ADD12RoundRect,0.190000X-0.140000X-0.170000X0.140000X-0.170000X0.140000X0.170000X-0.140000X0.170000X0*%
%ADD13RoundRect,0.050000X-1.300000X1.300000X-1.300000X-1.300000X1.300000X-1.300000X1.300000X1.300000X0*%
%ADD14C,2.700000*%
%ADD15RoundRect,0.250000X0.200000X0.700000X-0.200000X0.700000X-0.200000X-0.700000X0.200000X-0.700000X0*%
%ADD16RoundRect,0.050000X0.600000X0.700000X-0.600000X0.700000X-0.600000X-0.700000X0.600000X-0.700000X0*%
%ADD17RoundRect,0.050000X0.500000X0.700000X-0.500000X0.700000X-0.500000X-0.700000X0.500000X-0.700000X0*%
%ADD18RoundRect,0.112500X0.062500X-0.350000X0.062500X0.350000X-0.062500X0.350000X-0.062500X-0.350000X0*%
%ADD19RoundRect,0.112500X0.350000X-0.062500X0.350000X0.062500X-0.350000X0.062500X-0.350000X-0.062500X0*%
%ADD20C,0.700000*%
%ADD21RoundRect,0.050000X1.300000X-1.300000X1.300000X1.300000X-1.300000X1.300000X-1.300000X-1.300000X0*%
%ADD22RoundRect,0.050000X-0.450000X-0.850000X0.450000X-0.850000X0.450000X0.850000X-0.450000X0.850000X0*%
%ADD23RoundRect,0.190000X-0.170000X0.140000X-0.170000X-0.140000X0.170000X-0.140000X0.170000X0.140000X0*%
%ADD24C,4.500000*%
%ADD25RoundRect,0.185000X-0.185000X0.135000X-0.185000X-0.135000X0.185000X-0.135000X0.185000X0.135000X0*%
%ADD26RoundRect,0.185000X0.135000X0.185000X-0.135000X0.185000X-0.135000X-0.185000X0.135000X-0.185000X0*%
%ADD27RoundRect,0.190000X0.140000X0.170000X-0.140000X0.170000X-0.140000X-0.170000X0.140000X-0.170000X0*%
%ADD28RoundRect,0.050000X-0.500000X-1.000000X0.500000X-1.000000X0.500000X1.000000X-0.500000X1.000000X0*%
%ADD29O,0.950000X0.700000*%
%ADD30RoundRect,0.050000X-0.260000X-0.500000X0.260000X-0.500000X0.260000X0.500000X-0.260000X0.500000X0*%
%ADD31RoundRect,0.050000X-0.135000X-0.500000X0.135000X-0.500000X0.135000X0.500000X-0.135000X0.500000X0*%
%ADD32O,1.400000X2.400000*%
%ADD33O,1.400000X2.700000*%
%ADD34RoundRect,0.050000X-1.875000X1.875000X-1.875000X-1.875000X1.875000X-1.875000X1.875000X1.875000X0*%
%ADD35RoundRect,0.050000X-0.400000X0.075000X-0.400000X-0.075000X0.400000X-0.075000X0.400000X0.075000X0*%
%ADD36RoundRect,0.050000X-0.075000X-0.400000X0.075000X-0.400000X0.075000X0.400000X-0.075000X0.400000X0*%
%ADD37RoundRect,0.275000X-0.250000X0.225000X-0.250000X-0.225000X0.250000X-0.225000X0.250000X0.225000X0*%
%ADD38RoundRect,0.185000X0.185000X-0.135000X0.185000X0.135000X-0.185000X0.135000X-0.185000X-0.135000X0*%
%ADD39RoundRect,0.300000X1.500000X-0.250000X1.500000X0.250000X-1.500000X0.250000X-1.500000X-0.250000X0*%
%ADD40RoundRect,0.300001X1.449999X-0.499999X1.449999X0.499999X-1.449999X0.499999X-1.449999X-0.499999X0*%
%ADD41RoundRect,0.300000X0.350000X0.450000X-0.350000X0.450000X-0.350000X-0.450000X0.350000X-0.450000X0*%
%ADD42RoundRect,0.197500X-0.172500X0.147500X-0.172500X-0.147500X0.172500X-0.147500X0.172500X0.147500X0*%
%ADD43RoundRect,0.050000X-0.325000X-0.200000X0.325000X-0.200000X0.325000X0.200000X-0.325000X0.200000X0*%
%ADD44RoundRect,0.050000X-1.000000X-0.750000X1.000000X-0.750000X1.000000X0.750000X-1.000000X0.750000X0*%
%ADD45RoundRect,0.050000X-1.000000X-1.900000X1.000000X-1.900000X1.000000X1.900000X-1.000000X1.900000X0*%
G04 APERTURE END LIST*
D10*
%TO.C,C1*%
X24957164Y26815000D02*
X25172836Y26815000D01*
X24957164Y27535000D02*
X25172836Y27535000D01*
%TO.C,J2*%
X6635000Y28200000D02*
X5895000Y28200000D01*
X12070000Y9050000D02*
X12034000Y9085000D01*
X8195000Y27960000D02*
X8195000Y2440000D01*
X13096000Y27960000D02*
X13096000Y2440000D01*
X12070000Y19210000D02*
X12034000Y19245000D01*
X9556000Y6074000D02*
X9521000Y6109000D01*
X5895000Y28200000D02*
X5895000Y27700000D01*
X9772000Y6267000D02*
X9726000Y6314000D01*
X12070000Y3970000D02*
X12034000Y4005000D01*
X11864000Y8845000D02*
X11818000Y8892000D01*
X6135000Y27960000D02*
X6135000Y2440000D01*
X11864000Y3765000D02*
X11818000Y3812000D01*
X9556000Y16234000D02*
X9521000Y16269000D01*
X9772000Y16427000D02*
X9726000Y16474000D01*
X11864000Y13925000D02*
X11818000Y13972000D01*
X12070000Y14130000D02*
X12034000Y14165000D01*
X9556000Y11154000D02*
X9521000Y11189000D01*
X16056000Y27960000D02*
X16056000Y2440000D01*
X16056000Y2440000D02*
X6135000Y2440000D01*
X9556000Y21314000D02*
X9521000Y21349000D01*
X6695000Y27960000D02*
X6695000Y2440000D01*
X9772000Y11347000D02*
X9726000Y11394000D01*
X16056000Y27960000D02*
X6135000Y27960000D01*
X11864000Y19005000D02*
X11818000Y19052000D01*
X9772000Y21507000D02*
X9726000Y21554000D01*
X10111000Y23825000D02*
G75*
G03*
X11478042Y23824573I684001J1534993D01*
G01*
X9260000Y26044000D02*
G75*
G03*
X9114747Y25331195I1535001J-683999D01*
G01*
X11479000Y26895000D02*
G75*
G03*
X10111958Y26895427I-684001J-1534993D01*
G01*
X12330000Y24676000D02*
G75*
G03*
X12330427Y26043042I-1534993J684001D01*
G01*
X9115000Y25360000D02*
G75*
G03*
X9260244Y24676682I1679992J-1D01*
G01*
X12475000Y15200000D02*
G75*
G03*
X12475000Y15200000I-1680000J0D01*
G01*
X12475000Y20280000D02*
G75*
G03*
X12475000Y20280000I-1680000J0D01*
G01*
X12475000Y5040000D02*
G75*
G03*
X12475000Y5040000I-1680000J0D01*
G01*
X12475000Y10120000D02*
G75*
G03*
X12475000Y10120000I-1680000J0D01*
G01*
%TO.C,A1*%
X23720000Y26075000D02*
X23720000Y28275000D01*
X23720000Y28275000D02*
X21620000Y28275000D01*
X23720000Y26075000D02*
X21620000Y26075000D01*
%TO.C,D1*%
X30250000Y9500000D02*
X30250000Y12450000D01*
X27150000Y11900000D02*
X27150000Y9500000D01*
%TO.C,U1*%
X36090000Y15010000D02*
X35615000Y15010000D01*
X36090000Y10790000D02*
X35615000Y10790000D01*
X31870000Y11265000D02*
X31870000Y10790000D01*
X36090000Y14535000D02*
X36090000Y15010000D01*
X31870000Y14535000D02*
X31870000Y15010000D01*
X31870000Y15010000D02*
X32345000Y15010000D01*
X36090000Y11265000D02*
X36090000Y10790000D01*
%TO.C,SW1*%
X21250000Y4450000D02*
X21250000Y4750000D01*
X24550000Y1950000D02*
X24550000Y2250000D01*
X21250000Y4750000D02*
X24550000Y4750000D01*
X21250000Y2250000D02*
X21250000Y1950000D01*
X21250000Y1950000D02*
X24550000Y1950000D01*
X24550000Y4750000D02*
X24550000Y4450000D01*
%TO.C,C7*%
X26610000Y14107836D02*
X26610000Y13892164D01*
X25890000Y14107836D02*
X25890000Y13892164D01*
%TO.C,R7*%
X37020000Y3528641D02*
X37020000Y3221359D01*
X37780000Y3528641D02*
X37780000Y3221359D01*
%TO.C,R1*%
X21873641Y23570000D02*
X21566359Y23570000D01*
X21873641Y22810000D02*
X21566359Y22810000D01*
%TO.C,C3*%
X19827836Y22830000D02*
X19612164Y22830000D01*
X19827836Y23550000D02*
X19612164Y23550000D01*
%TO.C,J1*%
X35880000Y5115000D02*
X35880000Y4260000D01*
X26720000Y1140000D02*
X26720000Y190000D01*
X35880000Y1140000D02*
X35880000Y190000D01*
X26720000Y5115000D02*
X26720000Y4260000D01*
X26720000Y190000D02*
X35880000Y190000D01*
%TO.C,R2*%
X17793641Y19600000D02*
X17486359Y19600000D01*
X17793641Y20360000D02*
X17486359Y20360000D01*
D11*
%TO.C,IC1*%
X24812500Y22199500D02*
G75*
G03*
X24812500Y22199500I-87500J0D01*
G01*
D10*
%TO.C,C8*%
X26990000Y14107836D02*
X26990000Y13892164D01*
X27710000Y14107836D02*
X27710000Y13892164D01*
%TO.C,C4*%
X36820000Y11307836D02*
X36820000Y11092164D01*
X37540000Y11307836D02*
X37540000Y11092164D01*
%TO.C,C6*%
X17040000Y6990580D02*
X17040000Y6709420D01*
X18060000Y6990580D02*
X18060000Y6709420D01*
%TO.C,R6*%
X37780000Y5271359D02*
X37780000Y5578641D01*
X37020000Y5271359D02*
X37020000Y5578641D01*
%TO.C,J3*%
X34640000Y16140000D02*
X30390000Y16140000D01*
X31990000Y18440000D02*
X29100000Y18440000D01*
X38210000Y17860000D02*
X38210000Y26540000D01*
X30390000Y28260000D02*
X30390000Y27240000D01*
X30390000Y27240000D02*
X31990000Y27240000D01*
X30390000Y16140000D02*
X30390000Y17160000D01*
X31990000Y27240000D02*
X31990000Y25960000D01*
X31990000Y17160000D02*
X31990000Y18440000D01*
X30390000Y17160000D02*
X31990000Y17160000D01*
X34640000Y28260000D02*
X30390000Y28260000D01*
%TO.C,R5*%
X21977064Y6015000D02*
X21522936Y6015000D01*
X21977064Y7485000D02*
X21522936Y7485000D01*
%TO.C,C5*%
X35572164Y9340000D02*
X35787836Y9340000D01*
X35572164Y10060000D02*
X35787836Y10060000D01*
%TO.C,R3*%
X37560000Y13853641D02*
X37560000Y13546359D01*
X36800000Y13853641D02*
X36800000Y13546359D01*
%TO.C,C9*%
X28810000Y14107836D02*
X28810000Y13892164D01*
X28090000Y14107836D02*
X28090000Y13892164D01*
%TO.C,R4*%
X25320000Y17046359D02*
X25320000Y17353641D01*
X26080000Y17046359D02*
X26080000Y17353641D01*
%TO.C,C2*%
X25152164Y24610000D02*
X25367836Y24610000D01*
X25152164Y23890000D02*
X25367836Y23890000D01*
%TO.C,Q1*%
X19350000Y4260000D02*
X17450000Y4260000D01*
X17950000Y1940000D02*
X19350000Y1940000D01*
%TO.C,U2*%
X17100000Y15460000D02*
X23110000Y15460000D01*
X23110000Y8640000D02*
X23110000Y9900000D01*
X23110000Y15460000D02*
X23110000Y14200000D01*
X19350000Y8640000D02*
X23110000Y8640000D01*
%TD*%
%LPC*%
D12*
%TO.C,C1*%
X24585000Y27175000D03*
X25545000Y27175000D03*
%TD*%
D13*
%TO.C,J2*%
X10795000Y25360000D03*
D14*
X10795000Y20280000D03*
X10795000Y15200000D03*
X10795000Y10120000D03*
X10795000Y5040000D03*
%TD*%
D15*
%TO.C,A1*%
X23120000Y27175000D03*
X20120000Y27175000D03*
%TD*%
D16*
%TO.C,D1*%
X29470000Y11800000D03*
D17*
X27750000Y11800000D03*
X27750000Y9600000D03*
X29650000Y9600000D03*
%TD*%
D18*
%TO.C,U1*%
X32730000Y10962500D03*
X33230000Y10962500D03*
X33730000Y10962500D03*
X34230000Y10962500D03*
X34730000Y10962500D03*
X35230000Y10962500D03*
D19*
X35917500Y11650000D03*
X35917500Y12150000D03*
X35917500Y12650000D03*
X35917500Y13150000D03*
X35917500Y13650000D03*
X35917500Y14150000D03*
D18*
X35230000Y14837500D03*
X34730000Y14837500D03*
X34230000Y14837500D03*
X33730000Y14837500D03*
X33230000Y14837500D03*
X32730000Y14837500D03*
D19*
X32042500Y14150000D03*
X32042500Y13650000D03*
X32042500Y13150000D03*
X32042500Y12650000D03*
X32042500Y12150000D03*
X32042500Y11650000D03*
D20*
X34730000Y13650000D03*
X33980000Y12900000D03*
X33230000Y13650000D03*
X33230000Y12150000D03*
X34730000Y12150000D03*
D21*
X33980000Y12900000D03*
%TD*%
D22*
%TO.C,SW1*%
X21200000Y3350000D03*
X24600000Y3350000D03*
%TD*%
D23*
%TO.C,C7*%
X26250000Y14480000D03*
X26250000Y13520000D03*
%TD*%
D24*
%TO.C,H1*%
X18300000Y31700000D03*
%TD*%
D25*
%TO.C,R7*%
X37400000Y3885000D03*
X37400000Y2865000D03*
%TD*%
D26*
%TO.C,R1*%
X22230000Y23190000D03*
X21210000Y23190000D03*
%TD*%
D27*
%TO.C,C3*%
X20200000Y23190000D03*
X19240000Y23190000D03*
%TD*%
D20*
%TO.C,J1*%
X28300000Y5850000D03*
D28*
X32700000Y2750000D03*
D29*
X34300000Y5850000D03*
D28*
X29900000Y2750000D03*
D30*
X28200000Y6950000D03*
X28950000Y6950000D03*
D31*
X29550000Y6950000D03*
X31050000Y6950000D03*
X32050000Y6950000D03*
X33050000Y6950000D03*
D30*
X33650000Y6950000D03*
X34400000Y6950000D03*
X34400000Y6950000D03*
X33650000Y6950000D03*
D31*
X32550000Y6950000D03*
X31550000Y6950000D03*
X30550000Y6950000D03*
X30050000Y6950000D03*
D30*
X28950000Y6950000D03*
X28200000Y6950000D03*
D32*
X35620000Y6575000D03*
D33*
X35620000Y2750000D03*
X26980000Y2750000D03*
D32*
X26980000Y6575000D03*
%TD*%
D26*
%TO.C,R2*%
X18150000Y19980000D03*
X17130000Y19980000D03*
%TD*%
D20*
%TO.C,IC1*%
X21925000Y18450000D03*
X20925000Y20450000D03*
X21925000Y19450000D03*
X22925000Y19450000D03*
X21925000Y20450000D03*
X22925000Y20450000D03*
D34*
X21925000Y19450000D03*
D20*
X20925000Y19450000D03*
X20925000Y18450000D03*
X22925000Y18450000D03*
D35*
X24425000Y21025000D03*
X24425000Y20675000D03*
X24425000Y20325000D03*
X24425000Y19975000D03*
X24425000Y19625000D03*
X24425000Y19275000D03*
X24425000Y18925000D03*
X24425000Y18575000D03*
X24425000Y18225000D03*
X24425000Y17875000D03*
D36*
X24200000Y16900000D03*
X23850000Y16900000D03*
X23500000Y16900000D03*
X23150000Y16900000D03*
X22800000Y16900000D03*
X22450000Y16900000D03*
X22100000Y16900000D03*
X21750000Y16900000D03*
X21400000Y16900000D03*
X21050000Y16900000D03*
X20700000Y16900000D03*
X20350000Y16900000D03*
X20000000Y16900000D03*
X19650000Y16900000D03*
D35*
X19425000Y17875000D03*
X19425000Y18225000D03*
X19425000Y18575000D03*
X19425000Y18925000D03*
X19425000Y19275000D03*
X19425000Y19625000D03*
X19425000Y19975000D03*
X19425000Y20325000D03*
X19425000Y20675000D03*
X19425000Y21025000D03*
D36*
X19650000Y22000000D03*
X20000000Y22000000D03*
X20350000Y22000000D03*
X20700000Y22000000D03*
X21050000Y22000000D03*
X21400000Y22000000D03*
X21750000Y22000000D03*
X22100000Y22000000D03*
X22450000Y22000000D03*
X22800000Y22000000D03*
X23150000Y22000000D03*
X23500000Y22000000D03*
X23850000Y22000000D03*
X24200000Y22000000D03*
%TD*%
D23*
%TO.C,C8*%
X27350000Y14480000D03*
X27350000Y13520000D03*
%TD*%
%TO.C,C4*%
X37180000Y11680000D03*
X37180000Y10720000D03*
%TD*%
D37*
%TO.C,C6*%
X17550000Y7625000D03*
X17550000Y6075000D03*
%TD*%
D38*
%TO.C,R6*%
X37400000Y4915000D03*
X37400000Y5935000D03*
%TD*%
D39*
%TO.C,J3*%
X30850000Y19200000D03*
X30850000Y21200000D03*
X30850000Y23200000D03*
X30850000Y25200000D03*
D40*
X36600000Y27550000D03*
X36600000Y16850000D03*
%TD*%
D41*
%TO.C,R5*%
X22750000Y6750000D03*
X20750000Y6750000D03*
%TD*%
D12*
%TO.C,C5*%
X35200000Y9700000D03*
X36160000Y9700000D03*
%TD*%
D25*
%TO.C,R3*%
X37180000Y14210000D03*
X37180000Y13190000D03*
%TD*%
D42*
%TO.C,L1*%
X24815000Y26210000D03*
X24815000Y25240000D03*
%TD*%
D24*
%TO.C,H2*%
X26300000Y31700000D03*
%TD*%
D23*
%TO.C,C9*%
X28450000Y14480000D03*
X28450000Y13520000D03*
%TD*%
D38*
%TO.C,R4*%
X25700000Y16690000D03*
X25700000Y17710000D03*
%TD*%
D12*
%TO.C,C2*%
X24780000Y24250000D03*
X25740000Y24250000D03*
%TD*%
D43*
%TO.C,Q1*%
X17700000Y3750000D03*
X17700000Y3100000D03*
X17700000Y2450000D03*
X19600000Y2450000D03*
X19600000Y3100000D03*
X19600000Y3750000D03*
%TD*%
D44*
%TO.C,U2*%
X18050000Y14350000D03*
D45*
X24350000Y12050000D03*
D44*
X18050000Y12050000D03*
X18050000Y9750000D03*
%TD*%
M02*
